<ttFont>
<head>
    <!-- Most of this table will be recalculated by the compiler -->
    <tableVersion value="1.0"/>
    <fontRevision value="1.0"/>
    <checkSumAdjustment value="0xec806ae4"/>
    <magicNumber value="0x5f0f3cf5"/>
    <flags value="00000000 00011011"/>
    <unitsPerEm value="1000"/>
    <created value="Sat Dec  6 13:43:37 2025"/>
    <modified value="Sat Dec  6 13:48:53 2025"/>
    <xMin value="-61"/>
    <yMin value="-250"/>
    <xMax value="999"/>
    <yMax value="759"/>
    <macStyle value="00000000 00000000"/>
    <lowestRecPPEM value="6"/>
    <fontDirectionHint value="2"/>
    <indexToLocFormat value="0"/>
    <glyphDataFormat value="0"/>
  </head>
    <TTGlyph name="A" xMin="28" yMin="0" xMax="638" yMax="694">
      <contour>
        <pt x="638" y="0" on="1"/>
        <pt x="546" y="0" on="1"/>
        <pt x="470" y="204" on="1"/>
        <pt x="179" y="204" on="1"/>
        <pt x="102" y="0" on="1"/>
        <pt x="28" y="0" on="1"/>
        <pt x="289" y="694" on="1"/>
        <pt x="377" y="694" on="1"/>
      </contour>
      <contour>
        <pt x="357" y="517" on="1"/>
        <pt x="348" y="542" on="0"/>
        <pt x="337" y="577" on="0"/>
        <pt x="329" y="601" on="0"/>
        <pt x="326" y="617" on="0"/>
        <pt x="325" y="622" on="1"/>
        <pt x="324" y="622" on="1"/>
        <pt x="321" y="608" on="0"/>
        <pt x="308" y="565" on="0"/>
        <pt x="291" y="515" on="0"/>
        <pt x="273" y="463" on="0"/>
        <pt x="265" y="441" on="1"/>
        <pt x="200" y="260" on="1"/>
        <pt x="448" y="260" on="1"/>
      </contour>
    </TTGlyph>
    <TTGlyph name="AE" xMin="28" yMin="0" xMax="818" yMax="694">
      <contour>
        <pt x="103" y="0" on="1"/>
        <pt x="28" y="0" on="1"/>
        <pt x="312" y="694" on="1"/>
        <pt x="804" y="694" on="1"/>
        <pt x="804" y="629" on="1"/>
        <pt x="651" y="629" on="1"/>
        <pt x="642" y="629" on="0"/>
        <pt x="624" y="630" on="0"/>
        <pt x="615" y="630" on="1"/>
        <pt x="507" y="630" on="1"/>
        <pt x="507" y="391" on="1"/>
        <pt x="777" y="391" on="1"/>
        <pt x="777" y="330" on="1"/>
        <pt x="507" y="330" on="1"/>
        <pt x="507" y="70" on="1"/>
        <pt x="677" y="70" on="1"/>
        <pt x="686" y="70" on="0"/>
        <pt x="704" y="71" on="0"/>
        <pt x="713" y="71" on="1"/>
        <pt x="818" y="71" on="1"/>
        <pt x="818" y="0" on="1"/>
        <pt x="419" y="0" on="1"/>
        <pt x="419" y="222" on="1"/>
        <pt x="194" y="222" on="1"/>
      </contour>
      <contour>
        <pt x="217" y="278" on="1"/>
        <pt x="419" y="278" on="1"/>
        <pt x="419" y="630" on="1"/>
        <pt x="361" y="630" on="1"/>
      </contour>
    </TTGlyph>
    <TTGlyph name="B" xMin="97" yMin="0" xMax="610" yMax="694">
      <contour>
        <pt x="334" y="694" on="1"/>
        <pt x="387" y="694" on="0"/>
        <pt x="478" y="666" on="0"/>
        <pt x="545" y="618" on="0"/>
        <pt x="583" y="555" on="0"/>
        <pt x="583" y="520" on="1"/>
        <pt x="583" y="492" on="0"/>
        <pt x="557" y="442" on="0"/>
        <pt x="512" y="401" on="0"/>
        <pt x="451" y="372" on="0"/>
        <pt x="417" y="363" on="1"/>
        <pt x="457" y="357" on="0"/>
        <pt x="527" y="325" on="0"/>
        <pt x="580" y="279" on="0"/>
        <pt x="610" y="221" on="0"/>
        <pt x="610" y="188" on="1"/>
        <pt x="610" y="151" on="0"/>
        <pt x="573" y="83" on="0"/>
        <pt x="506" y="31" on="0"/>
        <pt x="415" y="0" on="0"/>
        <pt x="361" y="0" on="1"/>
        <pt x="97" y="0" on="1"/>
        <pt x="97" y="694" on="1"/>
      </contour>
      <contour>
        <pt x="296" y="391" on="1"/>
        <pt x="348" y="391" on="0"/>
        <pt x="426" y="414" on="0"/>
        <pt x="479" y="451" on="0"/>
        <pt x="505" y="497" on="0"/>
        <pt x="505" y="519" on="1"/>
        <pt x="505" y="544" on="0"/>
        <pt x="474" y="587" on="0"/>
        <pt x="420" y="619" on="0"/>
        <pt x="348" y="638" on="0"/>
        <pt x="306" y="638" on="1"/>
        <pt x="180" y="638" on="1"/>
        <pt x="180" y="391" on="1"/>
      </contour>
      <contour>
        <pt x="333" y="56" on="1"/>
        <pt x="374" y="56" on="0"/>
        <pt x="445" y="76" on="0"/>
        <pt x="498" y="112" on="0"/>
        <pt x="529" y="161" on="0"/>
        <pt x="529" y="189" on="1"/>
        <pt x="529" y="219" on="0"/>
        <pt x="495" y="271" on="0"/>
        <pt x="438" y="308" on="0"/>
        <pt x="365" y="330" on="0"/>
        <pt x="325" y="330" on="1"/>
        <pt x="180" y="330" on="1"/>
        <pt x="180" y="56" on="1"/>
      </contour>
    </TTGlyph>
    <TTGlyph name="C" xMin="66" yMin="-11" xMax="588" yMax="705">
      <contour>
        <pt x="588" y="45" on="1"/>
        <pt x="564" y="30" on="0"/>
        <pt x="522" y="9" on="0"/>
        <pt x="479" y="-5" on="0"/>
        <pt x="428" y="-11" on="0"/>
        <pt x="393" y="-11" on="1"/>
        <pt x="315" y="-11" on="0"/>
        <pt x="193" y="54" on="0"/>
        <pt x="110" y="156" on="0"/>
        <pt x="66" y="280" on="0"/>
        <pt x="66" y="339" on="1"/>
        <pt x="66" y="418" on="0"/>
        <pt x="116" y="552" on="0"/>
        <pt x="204" y="650" on="0"/>
        <pt x="324" y="705" on="0"/>
        <pt x="393" y="705" on="1"/>
        <pt x="417" y="705" on="0"/>
        <pt x="468" y="700" on="0"/>
        <pt x="517" y="691" on="0"/>
        <pt x="561" y="679" on="0"/>
        <pt x="577" y="671" on="1"/>
        <pt x="563" y="589" on="1"/>
        <pt x="522" y="615" on="0"/>
        <pt x="445" y="641" on="0"/>
        <pt x="392" y="641" on="1"/>
        <pt x="335" y="641" on="0"/>
        <pt x="247" y="588" on="0"/>
        <pt x="187" y="503" on="0"/>
        <pt x="156" y="399" on="0"/>
        <pt x="156" y="348" on="1"/>
        <pt x="156" y="294" on="0"/>
        <pt x="189" y="189" on="0"/>
        <pt x="249" y="105" on="0"/>
        <pt x="336" y="54" on="0"/>
        <pt x="390" y="54" on="1"/>
        <pt x="427" y="54" on="0"/>
        <pt x="480" y="62" on="0"/>
        <pt x="522" y="77" on="0"/>
        <pt x="560" y="99" on="0"/>
        <pt x="582" y="114" on="1"/>
      </contour>
    </TTGlyph>
    <TTGlyph name="D" xMin="96" yMin="0" xMax="665" yMax="694">
      <contour>
        <pt x="358" y="694" on="1"/>
        <pt x="423" y="694" on="0"/>
        <pt x="535" y="638" on="0"/>
        <pt x="617" y="542" on="0"/>
        <pt x="665" y="414" on="0"/>
        <pt x="665" y="341" on="1"/>
        <pt x="665" y="270" on="0"/>
        <pt x="617" y="146" on="0"/>
        <pt x="534" y="53" on="0"/>
        <pt x="423" y="0" on="0"/>
        <pt x="359" y="0" on="1"/>
        <pt x="96" y="0" on="1"/>
        <pt x="96" y="694" on="1"/>
      </contour>
      <contour>
        <pt x="335" y="56" on="1"/>
        <pt x="388" y="56" on="0"/>
        <pt x="477" y="97" on="0"/>
        <pt x="542" y="172" on="0"/>
        <pt x="579" y="277" on="0"/>
        <pt x="579" y="341" on="1"/>
        <pt x="579" y="407" on="0"/>
        <pt x="542" y="516" on="0"/>
        <pt x="477" y="595" on="0"/>
        <pt x="388" y="638" on="0"/>
        <pt x="335" y="638" on="1"/>
        <pt x="182" y="638" on="1"/>
        <pt x="182" y="56" on="1"/>
      </contour>
    </TTGlyph>
    <TTGlyph name="E" xMin="94" yMin="0" xMax="554" yMax="691">
      <contour>
        <pt x="183" y="329" on="1"/>
        <pt x="183" y="70" on="1"/>
        <pt x="392" y="70" on="1"/>
        <pt x="401" y="70" on="0"/>
        <pt x="419" y="71" on="0"/>
        <pt x="428" y="71" on="1"/>
        <pt x="554" y="71" on="1"/>
        <pt x="554" y="0" on="1"/>
        <pt x="94" y="0" on="1"/>
        <pt x="94" y="691" on="1"/>
        <pt x="540" y="691" on="1"/>
        <pt x="540" y="626" on="1"/>
        <pt x="357" y="626" on="1"/>
        <pt x="348" y="626" on="0"/>
        <pt x="330" y="627" on="0"/>
        <pt x="321" y="627" on="1"/>
        <pt x="183" y="627" on="1"/>
        <pt x="183" y="390" on="1"/>
        <pt x="513" y="390" on="1"/>
        <pt x="513" y="329" on="1"/>
      </contour>
    </TTGlyph>
    <TTGlyph name="F" xMin="94" yMin="0" xMax="526" yMax="691">
      <contour>
        <pt x="183" y="315" on="1"/>
        <pt x="183" y="0" on="1"/>
        <pt x="94" y="0" on="1"/>
        <pt x="94" y="691" on="1"/>
        <pt x="526" y="691" on="1"/>
        <pt x="526" y="626" on="1"/>
        <pt x="350" y="626" on="1"/>
        <pt x="341" y="626" on="0"/>
        <pt x="323" y="627" on="0"/>
        <pt x="314" y="627" on="1"/>
        <pt x="183" y="627" on="1"/>
        <pt x="183" y="376" on="1"/>
        <pt x="485" y="376" on="1"/>
        <pt x="485" y="315" on="1"/>
      </contour>
    </TTGlyph>
    <TTGlyph name="G" xMin="66" yMin="-11" xMax="600" yMax="706">
      <contour>
        <pt x="600" y="38" on="1"/>
        <pt x="549" y="16" on="0"/>
        <pt x="447" y="-11" on="0"/>
        <pt x="391" y="-11" on="1"/>
        <pt x="319" y="-11" on="0"/>
        <pt x="199" y="50" on="0"/>
        <pt x="114" y="151" on="0"/>
        <pt x="66" y="280" on="0"/>
        <pt x="66" y="348" on="1"/>
        <pt x="66" y="417" on="0"/>
        <pt x="113" y="546" on="0"/>
        <pt x="199" y="646" on="0"/>
        <pt x="319" y="706" on="0"/>
        <pt x="391" y="706" on="1"/>
        <pt x="441" y="706" on="0"/>
        <pt x="549" y="683" on="0"/>
        <pt x="591" y="657" on="1"/>
        <pt x="577" y="575" on="1"/>
        <pt x="539" y="607" on="0"/>
        <pt x="449" y="641" on="0"/>
        <pt x="388" y="641" on="1"/>
        <pt x="339" y="641" on="0"/>
        <pt x="254" y="594" on="0"/>
        <pt x="191" y="513" on="0"/>
        <pt x="156" y="407" on="0"/>
        <pt x="156" y="348" on="1"/>
        <pt x="156" y="287" on="0"/>
        <pt x="192" y="180" on="0"/>
        <pt x="255" y="100" on="0"/>
        <pt x="341" y="53" on="0"/>
        <pt x="390" y="53" on="1"/>
        <pt x="422" y="53" on="0"/>
        <pt x="491" y="63" on="0"/>
        <pt x="521" y="74" on="1"/>
        <pt x="521" y="237" on="1"/>
        <pt x="389" y="237" on="1"/>
        <pt x="389" y="299" on="1"/>
        <pt x="600" y="299" on="1"/>
      </contour>
    </TTGlyph>
    <TTGlyph name="Gamma" xMin="94" yMin="0" xMax="499" yMax="691">
      <contour>
        <pt x="183" y="627" on="1"/>
        <pt x="183" y="0" on="1"/>
        <pt x="94" y="0" on="1"/>
        <pt x="94" y="691" on="1"/>
        <pt x="499" y="691" on="1"/>
        <pt x="499" y="626" on="1"/>
        <pt x="337" y="626" on="1"/>
        <pt x="328" y="626" on="0"/>
        <pt x="310" y="627" on="0"/>
        <pt x="301" y="627" on="1"/>
      </contour>
    </TTGlyph>
    <TTGlyph name="H" xMin="94" yMin="0" xMax="613" yMax="694">
      <contour>
        <pt x="613" y="0" on="1"/>
        <pt x="524" y="0" on="1"/>
        <pt x="524" y="330" on="1"/>
        <pt x="183" y="330" on="1"/>
        <pt x="183" y="0" on="1"/>
        <pt x="94" y="0" on="1"/>
        <pt x="94" y="694" on="1"/>
        <pt x="183" y="694" on="1"/>
        <pt x="183" y="391" on="1"/>
        <pt x="524" y="391" on="1"/>
        <pt x="524" y="694" on="1"/>
        <pt x="613" y="694" on="1"/>
      </contour>
    </TTGlyph>
    <TTGlyph name="I" xMin="94" yMin="0" xMax="183" yMax="694">
      <contour>
        <pt x="183" y="0" on="1"/>
        <pt x="94" y="0" on="1"/>
        <pt x="94" y="694" on="1"/>
        <pt x="183" y="694" on="1"/>
      </contour>
    </TTGlyph>
    <TTGlyph name="J" xMin="42" yMin="-22" xMax="388" yMax="694">
      <contour>
        <pt x="388" y="149" on="1"/>
        <pt x="388" y="107" on="0"/>
        <pt x="362" y="43" on="0"/>
        <pt x="316" y="0" on="0"/>
        <pt x="252" y="-22" on="0"/>
        <pt x="213" y="-22" on="1"/>
        <pt x="182" y="-22" on="0"/>
        <pt x="127" y="-12" on="0"/>
        <pt x="83" y="1" on="0"/>
        <pt x="51" y="16" on="0"/>
        <pt x="42" y="20" on="1"/>
        <pt x="56" y="95" on="1"/>
        <pt x="82" y="66" on="0"/>
        <pt x="152" y="39" on="0"/>
        <pt x="184" y="39" on="1"/>
        <pt x="228" y="39" on="0"/>
        <pt x="276" y="70" on="0"/>
        <pt x="298" y="109" on="0"/>
        <pt x="302" y="146" on="0"/>
        <pt x="302" y="152" on="1"/>
        <pt x="302" y="694" on="1"/>
        <pt x="388" y="694" on="1"/>
      </contour>
    </TTGlyph>
    <TTGlyph name="K" xMin="96" yMin="0" xMax="651" yMax="694">
      <contour>
        <pt x="651" y="0" on="1"/>
        <pt x="559" y="0" on="1"/>
        <pt x="314" y="364" on="1"/>
        <pt x="181" y="227" on="1"/>
        <pt x="181" y="0" on="1"/>
        <pt x="96" y="0" on="1"/>
        <pt x="96" y="694" on="1"/>
        <pt x="181" y="694" on="1"/>
        <pt x="181" y="323" on="1"/>
        <pt x="544" y="694" on="1"/>
        <pt x="637" y="694" on="1"/>
        <pt x="369" y="420" on="1"/>
      </contour>
    </TTGlyph>
    <TTGlyph name="L" xMin="94" yMin="0" xMax="499" yMax="694">
      <contour>
        <pt x="183" y="64" on="1"/>
        <pt x="232" y="64" on="1"/>
        <pt x="299" y="64" on="0"/>
        <pt x="432" y="65" on="0"/>
        <pt x="499" y="66" on="1"/>
        <pt x="499" y="0" on="1"/>
        <pt x="94" y="0" on="1"/>
        <pt x="94" y="694" on="1"/>
        <pt x="183" y="694" on="1"/>
      </contour>
    </TTGlyph>
    <TTGlyph name="Lambda" xMin="28" yMin="0" xMax="582" yMax="694">
      <contour>
        <pt x="582" y="0" on="1"/>
        <pt x="488" y="0" on="1"/>
        <pt x="387" y="304" on="1"/>
        <pt x="373" y="344" on="0"/>
        <pt x="349" y="424" on="0"/>
        <pt x="336" y="464" on="1"/>
        <pt x="330" y="484" on="0"/>
        <pt x="317" y="529" on="0"/>
        <pt x="306" y="572" on="0"/>
        <pt x="297" y="609" on="0"/>
        <pt x="295" y="621" on="1"/>
        <pt x="294" y="621" on="1"/>
        <pt x="293" y="606" on="0"/>
        <pt x="278" y="546" on="0"/>
        <pt x="257" y="475" on="0"/>
        <pt x="234" y="400" on="0"/>
        <pt x="214" y="338" on="0"/>
        <pt x="200" y="297" on="0"/>
        <pt x="200" y="296" on="1"/>
        <pt x="102" y="0" on="1"/>
        <pt x="28" y="0" on="1"/>
        <pt x="261" y="694" on="1"/>
        <pt x="349" y="694" on="1"/>
      </contour>
    </TTGlyph>
    <TTGlyph name="M" xMin="100" yMin="0" xMax="774" yMax="694">
      <contour>
        <pt x="660" y="694" on="1"/>
        <pt x="774" y="694" on="1"/>
        <pt x="774" y="0" on="1"/>
        <pt x="696" y="0" on="1"/>
        <pt x="696" y="620" on="1"/>
        <pt x="695" y="621" on="1"/>
        <pt x="693" y="612" on="0"/>
        <pt x="682" y="580" on="0"/>
        <pt x="669" y="543" on="0"/>
        <pt x="657" y="508" on="0"/>
        <pt x="653" y="497" on="1"/>
        <pt x="650" y="490" on="0"/>
        <pt x="644" y="471" on="0"/>
        <pt x="633" y="443" on="0"/>
        <pt x="617" y="401" on="0"/>
        <pt x="605" y="370" on="1"/>
        <pt x="472" y="22" on="1"/>
        <pt x="399" y="22" on="1"/>
        <pt x="251" y="411" on="1"/>
        <pt x="241" y="437" on="0"/>
        <pt x="218" y="499" on="0"/>
        <pt x="197" y="559" on="0"/>
        <pt x="181" y="608" on="0"/>
        <pt x="179" y="620" on="1"/>
        <pt x="178" y="620" on="1"/>
        <pt x="178" y="0" on="1"/>
        <pt x="100" y="0" on="1"/>
        <pt x="100" y="694" on="1"/>
        <pt x="213" y="694" on="1"/>
        <pt x="247" y="607" on="1"/>
        <pt x="404" y="193" on="1"/>
        <pt x="415" y="161" on="0"/>
        <pt x="432" y="109" on="0"/>
        <pt x="436" y="93" on="1"/>
        <pt x="437" y="93" on="1"/>
        <pt x="441" y="111" on="0"/>
        <pt x="461" y="171" on="0"/>
        <pt x="488" y="244" on="0"/>
        <pt x="517" y="321" on="0"/>
        <pt x="530" y="355" on="1"/>
      </contour>
    </TTGlyph>
    <TTGlyph name="N" xMin="96" yMin="0" xMax="611" yMax="694">
      <contour>
        <pt x="465" y="208" on="1"/>
        <pt x="467" y="204" on="0"/>
        <pt x="483" y="172" on="0"/>
        <pt x="504" y="130" on="0"/>
        <pt x="525" y="86" on="0"/>
        <pt x="532" y="71" on="1"/>
        <pt x="533" y="71" on="1"/>
        <pt x="533" y="694" on="1"/>
        <pt x="611" y="694" on="1"/>
        <pt x="611" y="0" on="1"/>
        <pt x="487" y="0" on="1"/>
        <pt x="242" y="486" on="1"/>
        <pt x="240" y="490" on="0"/>
        <pt x="224" y="522" on="0"/>
        <pt x="203" y="564" on="0"/>
        <pt x="182" y="608" on="0"/>
        <pt x="175" y="623" on="1"/>
        <pt x="174" y="623" on="1"/>
        <pt x="174" y="0" on="1"/>
        <pt x="96" y="0" on="1"/>
        <pt x="96" y="694" on="1"/>
        <pt x="220" y="694" on="1"/>
      </contour>
    </TTGlyph>
    <TTGlyph name="O" xMin="56" yMin="-22" xMax="679" yMax="716">
      <contour>
        <pt x="679" y="345" on="1"/>
        <pt x="679" y="266" on="0"/>
        <pt x="628" y="132" on="0"/>
        <pt x="543" y="34" on="0"/>
        <pt x="430" y="-22" on="0"/>
        <pt x="367" y="-22" on="1"/>
        <pt x="306" y="-22" on="0"/>
        <pt x="193" y="33" on="0"/>
        <pt x="107" y="131" on="0"/>
        <pt x="56" y="266" on="0"/>
        <pt x="56" y="345" on="1"/>
        <pt x="56" y="423" on="0"/>
        <pt x="106" y="558" on="0"/>
        <pt x="191" y="659" on="0"/>
        <pt x="304" y="716" on="0"/>
        <pt x="368" y="716" on="1"/>
        <pt x="430" y="716" on="0"/>
        <pt x="543" y="659" on="0"/>
        <pt x="629" y="559" on="0"/>
        <pt x="679" y="424" on="0"/>
      </contour>
      <contour>
        <pt x="368" y="43" on="1"/>
        <pt x="411" y="43" on="0"/>
        <pt x="491" y="87" on="0"/>
        <pt x="553" y="170" on="0"/>
        <pt x="590" y="287" on="0"/>
        <pt x="590" y="360" on="1"/>
        <pt x="590" y="427" on="0"/>
        <pt x="553" y="535" on="0"/>
        <pt x="491" y="611" on="0"/>
        <pt x="411" y="652" on="0"/>
        <pt x="367" y="652" on="1"/>
        <pt x="325" y="652" on="0"/>
        <pt x="245" y="612" on="0"/>
        <pt x="183" y="537" on="0"/>
        <pt x="145" y="429" on="0"/>
        <pt x="145" y="360" on="1"/>
        <pt x="145" y="288" on="0"/>
        <pt x="182" y="171" on="0"/>
        <pt x="243" y="88" on="0"/>
        <pt x="324" y="43" on="0"/>
      </contour>
    </TTGlyph>
    <TTGlyph name="OE" xMin="28" yMin="-22" xMax="929" yMax="716">
      <contour>
        <pt x="559" y="70" on="1"/>
        <pt x="768" y="70" on="1"/>
        <pt x="777" y="70" on="0"/>
        <pt x="795" y="71" on="0"/>
        <pt x="804" y="71" on="1"/>
        <pt x="929" y="71" on="1"/>
        <pt x="929" y="0" on="1"/>
        <pt x="519" y="0" on="1"/>
        <pt x="509" y="0" on="0"/>
        <pt x="492" y="-1" on="0"/>
        <pt x="474" y="-4" on="0"/>
        <pt x="452" y="-8" on="0"/>
        <pt x="438" y="-11" on="1"/>
        <pt x="413" y="-16" on="0"/>
        <pt x="379" y="-22" on="0"/>
        <pt x="358" y="-22" on="1"/>
        <pt x="294" y="-22" on="0"/>
        <pt x="175" y="33" on="0"/>
        <pt x="83" y="130" on="0"/>
        <pt x="28" y="265" on="0"/>
        <pt x="28" y="345" on="1"/>
        <pt x="28" y="425" on="0"/>
        <pt x="82" y="560" on="0"/>
        <pt x="174" y="660" on="0"/>
        <pt x="293" y="716" on="0"/>
        <pt x="358" y="716" on="1"/>
        <pt x="379" y="716" on="0"/>
        <pt x="414" y="710" on="0"/>
        <pt x="439" y="705" on="1"/>
        <pt x="473" y="698" on="0"/>
        <pt x="503" y="694" on="0"/>
        <pt x="519" y="694" on="1"/>
        <pt x="915" y="694" on="1"/>
        <pt x="915" y="629" on="1"/>
        <pt x="733" y="629" on="1"/>
        <pt x="724" y="629" on="0"/>
        <pt x="706" y="630" on="0"/>
        <pt x="697" y="630" on="1"/>
        <pt x="559" y="630" on="1"/>
        <pt x="559" y="391" on="1"/>
        <pt x="888" y="391" on="1"/>
        <pt x="888" y="330" on="1"/>
        <pt x="559" y="330" on="1"/>
      </contour>
      <contour>
        <pt x="363" y="39" on="1"/>
        <pt x="395" y="39" on="0"/>
        <pt x="433" y="52" on="0"/>
        <pt x="455" y="76" on="0"/>
        <pt x="465" y="110" on="0"/>
        <pt x="468" y="131" on="1"/>
        <pt x="471" y="156" on="0"/>
        <pt x="472" y="259" on="0"/>
        <pt x="472" y="347" on="1"/>
        <pt x="472" y="380" on="0"/>
        <pt x="472" y="446" on="0"/>
        <pt x="471" y="503" on="0"/>
        <pt x="470" y="548" on="0"/>
        <pt x="468" y="560" on="1"/>
        <pt x="465" y="583" on="0"/>
        <pt x="455" y="618" on="0"/>
        <pt x="432" y="642" on="0"/>
        <pt x="394" y="655" on="0"/>
        <pt x="363" y="655" on="1"/>
        <pt x="311" y="655" on="0"/>
        <pt x="220" y="609" on="0"/>
        <pt x="152" y="529" on="0"/>
        <pt x="114" y="421" on="0"/>
        <pt x="114" y="360" on="1"/>
        <pt x="114" y="294" on="0"/>
        <pt x="152" y="177" on="0"/>
        <pt x="219" y="90" on="0"/>
        <pt x="310" y="39" on="0"/>
      </contour>
    </TTGlyph>
    <TTGlyph name="Oslash" xMin="56" yMin="-65" xMax="721" yMax="759">
      <contour>
        <pt x="593" y="637" on="1"/>
        <pt x="614" y="619" on="0"/>
        <pt x="660" y="564" on="0"/>
        <pt x="697" y="490" on="0"/>
        <pt x="721" y="398" on="0"/>
        <pt x="721" y="345" on="1"/>
        <pt x="721" y="267" on="0"/>
        <pt x="668" y="133" on="0"/>
        <pt x="576" y="34" on="0"/>
        <pt x="456" y="-22" on="0"/>
        <pt x="388" y="-22" on="1"/>
        <pt x="356" y="-22" on="0"/>
        <pt x="278" y="-4" on="0"/>
        <pt x="235" y="19" on="1"/>
        <pt x="187" y="-65" on="1"/>
        <pt x="132" y="-33" on="1"/>
        <pt x="183" y="57" on="1"/>
        <pt x="138" y="97" on="0"/>
        <pt x="87" y="183" on="0"/>
        <pt x="62" y="262" on="0"/>
        <pt x="56" y="327" on="0"/>
        <pt x="56" y="345" on="1"/>
        <pt x="56" y="422" on="0"/>
        <pt x="109" y="557" on="0"/>
        <pt x="199" y="658" on="0"/>
        <pt x="320" y="716" on="0"/>
        <pt x="389" y="716" on="1"/>
        <pt x="412" y="716" on="0"/>
        <pt x="488" y="703" on="0"/>
        <pt x="542" y="675" on="1"/>
        <pt x="590" y="759" on="1"/>
        <pt x="645" y="727" on="1"/>
      </contour>
      <contour>
        <pt x="509" y="619" on="1"/>
        <pt x="477" y="639" on="0"/>
        <pt x="417" y="655" on="0"/>
        <pt x="388" y="655" on="1"/>
        <pt x="341" y="655" on="0"/>
        <pt x="252" y="614" on="0"/>
        <pt x="183" y="535" on="0"/>
        <pt x="141" y="419" on="0"/>
        <pt x="141" y="345" on="1"/>
        <pt x="141" y="325" on="0"/>
        <pt x="146" y="271" on="0"/>
        <pt x="162" y="210" on="0"/>
        <pt x="192" y="147" on="0"/>
        <pt x="218" y="117" on="1"/>
      </contour>
      <contour>
        <pt x="268" y="74" on="1"/>
        <pt x="304" y="52" on="0"/>
        <pt x="366" y="39" on="0"/>
        <pt x="389" y="39" on="1"/>
        <pt x="436" y="39" on="0"/>
        <pt x="524" y="79" on="0"/>
        <pt x="594" y="156" on="0"/>
        <pt x="636" y="270" on="0"/>
        <pt x="636" y="345" on="1"/>
        <pt x="636" y="373" on="0"/>
        <pt x="628" y="434" on="0"/>
        <pt x="610" y="494" on="0"/>
        <pt x="580" y="551" on="0"/>
        <pt x="558" y="576" on="1"/>
      </contour>
    </TTGlyph>
    <TTGlyph name="P" xMin="96" yMin="0" xMax="582" yMax="694">
      <contour>
        <pt x="185" y="289" on="1"/>
        <pt x="185" y="0" on="1"/>
        <pt x="96" y="0" on="1"/>
        <pt x="96" y="694" on="1"/>
        <pt x="345" y="694" on="1"/>
        <pt x="397" y="694" on="0"/>
        <pt x="484" y="661" on="0"/>
        <pt x="547" y="605" on="0"/>
        <pt x="582" y="532" on="0"/>
        <pt x="582" y="492" on="1"/>
        <pt x="582" y="450" on="0"/>
        <pt x="545" y="376" on="0"/>
        <pt x="482" y="321" on="0"/>
        <pt x="399" y="289" on="0"/>
        <pt x="352" y="289" on="1"/>
      </contour>
      <contour>
        <pt x="182" y="638" on="1"/>
        <pt x="182" y="347" on="1"/>
        <pt x="323" y="347" on="1"/>
        <pt x="366" y="347" on="0"/>
        <pt x="433" y="370" on="0"/>
        <pt x="478" y="410" on="0"/>
        <pt x="501" y="462" on="0"/>
        <pt x="501" y="492" on="1"/>
        <pt x="501" y="556" on="0"/>
        <pt x="406" y="638" on="0"/>
        <pt x="323" y="638" on="1"/>
      </contour>
    </TTGlyph>
    <TTGlyph name="Phi" xMin="56" yMin="0" xMax="665" yMax="694">
      <contour>
        <pt x="399" y="588" on="1"/>
        <pt x="461" y="581" on="0"/>
        <pt x="560" y="536" on="0"/>
        <pt x="629" y="470" on="0"/>
        <pt x="665" y="389" on="0"/>
        <pt x="665" y="347" on="1"/>
        <pt x="665" y="305" on="0"/>
        <pt x="629" y="224" on="0"/>
        <pt x="560" y="158" on="0"/>
        <pt x="461" y="113" on="0"/>
        <pt x="399" y="106" on="1"/>
        <pt x="399" y="0" on="1"/>
        <pt x="316" y="0" on="1"/>
        <pt x="316" y="107" on="1"/>
        <pt x="262" y="113" on="0"/>
        <pt x="167" y="155" on="0"/>
        <pt x="96" y="219" on="0"/>
        <pt x="56" y="301" on="0"/>
        <pt x="56" y="347" on="1"/>
        <pt x="56" y="392" on="0"/>
        <pt x="96" y="475" on="0"/>
        <pt x="166" y="539" on="0"/>
        <pt x="261" y="581" on="0"/>
        <pt x="316" y="587" on="1"/>
        <pt x="316" y="694" on="1"/>
        <pt x="399" y="694" on="1"/>
      </contour>
      <contour>
        <pt x="316" y="526" on="1"/>
        <pt x="277" y="520" on="0"/>
        <pt x="212" y="489" on="0"/>
        <pt x="167" y="441" on="0"/>
        <pt x="142" y="381" on="0"/>
        <pt x="142" y="347" on="1"/>
        <pt x="142" y="313" on="0"/>
        <pt x="167" y="253" on="0"/>
        <pt x="212" y="205" on="0"/>
        <pt x="276" y="174" on="0"/>
        <pt x="316" y="168" on="1"/>
      </contour>
      <contour>
        <pt x="399" y="167" on="1"/>
        <pt x="443" y="173" on="0"/>
        <pt x="510" y="206" on="0"/>
        <pt x="555" y="254" on="0"/>
        <pt x="579" y="314" on="0"/>
        <pt x="579" y="347" on="1"/>
        <pt x="579" y="379" on="0"/>
        <pt x="556" y="439" on="0"/>
        <pt x="510" y="487" on="0"/>
        <pt x="443" y="521" on="0"/>
        <pt x="399" y="527" on="1"/>
      </contour>
    </TTGlyph>
    <TTGlyph name="Pi" xMin="94" yMin="0" xMax="613" yMax="691">
      <contour>
        <pt x="613" y="0" on="1"/>
        <pt x="524" y="0" on="1"/>
        <pt x="524" y="630" on="1"/>
        <pt x="183" y="630" on="1"/>
        <pt x="183" y="0" on="1"/>
        <pt x="94" y="0" on="1"/>
        <pt x="94" y="691" on="1"/>
        <pt x="613" y="691" on="1"/>
      </contour>
    </TTGlyph>
    <TTGlyph name="Psi" xMin="56" yMin="0" xMax="721" yMax="694">
      <contour>
        <pt x="427" y="170" on="1"/>
        <pt x="480" y="183" on="0"/>
        <pt x="537" y="249" on="0"/>
        <pt x="564" y="329" on="0"/>
        <pt x="569" y="411" on="0"/>
        <pt x="569" y="440" on="1"/>
        <pt x="569" y="501" on="0"/>
        <pt x="582" y="570" on="0"/>
        <pt x="603" y="605" on="0"/>
        <pt x="632" y="613" on="0"/>
        <pt x="648" y="613" on="1"/>
        <pt x="721" y="613" on="1"/>
        <pt x="721" y="552" on="1"/>
        <pt x="699" y="551" on="0"/>
        <pt x="671" y="524" on="0"/>
        <pt x="657" y="487" on="0"/>
        <pt x="652" y="444" on="0"/>
        <pt x="652" y="426" on="1"/>
        <pt x="652" y="410" on="0"/>
        <pt x="650" y="354" on="0"/>
        <pt x="637" y="288" on="0"/>
        <pt x="609" y="218" on="0"/>
        <pt x="559" y="158" on="0"/>
        <pt x="483" y="114" on="0"/>
        <pt x="427" y="107" on="1"/>
        <pt x="427" y="0" on="1"/>
        <pt x="344" y="0" on="1"/>
        <pt x="344" y="107" on="1"/>
        <pt x="277" y="117" on="0"/>
        <pt x="192" y="180" on="0"/>
        <pt x="144" y="266" on="0"/>
        <pt x="125" y="362" on="0"/>
        <pt x="125" y="404" on="1"/>
        <pt x="125" y="430" on="0"/>
        <pt x="121" y="482" on="0"/>
        <pt x="107" y="524" on="0"/>
        <pt x="80" y="551" on="0"/>
        <pt x="56" y="552" on="1"/>
        <pt x="56" y="613" on="1"/>
        <pt x="129" y="613" on="1"/>
        <pt x="153" y="613" on="0"/>
        <pt x="183" y="595" on="0"/>
        <pt x="201" y="552" on="0"/>
        <pt x="208" y="478" on="0"/>
        <pt x="208" y="422" on="1"/>
        <pt x="208" y="409" on="0"/>
        <pt x="209" y="366" on="0"/>
        <pt x="217" y="316" on="0"/>
        <pt x="233" y="263" on="0"/>
        <pt x="263" y="216" on="0"/>
        <pt x="310" y="179" on="0"/>
        <pt x="344" y="170" on="1"/>
        <pt x="344" y="694" on="1"/>
        <pt x="427" y="694" on="1"/>
      </contour>
    </TTGlyph>
    <TTGlyph name="Q" xMin="56" yMin="-125" xMax="679" yMax="716">
      <contour>
        <pt x="652" y="-125" on="1"/>
        <pt x="549" y="-125" on="1"/>
        <pt x="463" y="-4" on="1"/>
        <pt x="431" y="-17" on="0"/>
        <pt x="379" y="-22" on="0"/>
        <pt x="367" y="-22" on="1"/>
        <pt x="306" y="-22" on="0"/>
        <pt x="193" y="33" on="0"/>
        <pt x="107" y="131" on="0"/>
        <pt x="56" y="266" on="0"/>
        <pt x="56" y="345" on="1"/>
        <pt x="56" y="423" on="0"/>
        <pt x="106" y="558" on="0"/>
        <pt x="191" y="659" on="0"/>
        <pt x="304" y="716" on="0"/>
        <pt x="368" y="716" on="1"/>
        <pt x="430" y="716" on="0"/>
        <pt x="543" y="659" on="0"/>
        <pt x="629" y="559" on="0"/>
        <pt x="679" y="424" on="0"/>
        <pt x="679" y="345" on="1"/>
        <pt x="679" y="306" on="0"/>
        <pt x="664" y="222" on="0"/>
        <pt x="630" y="141" on="0"/>
        <pt x="574" y="65" on="0"/>
        <pt x="533" y="33" on="1"/>
      </contour>
      <contour>
        <pt x="323" y="194" on="1"/>
        <pt x="412" y="194" on="1"/>
        <pt x="491" y="89" on="1"/>
        <pt x="525" y="120" on="0"/>
        <pt x="565" y="189" on="0"/>
        <pt x="586" y="258" on="0"/>
        <pt x="593" y="321" on="0"/>
        <pt x="593" y="345" on="1"/>
        <pt x="593" y="414" on="0"/>
        <pt x="556" y="528" on="0"/>
        <pt x="494" y="608" on="0"/>
        <pt x="412" y="652" on="0"/>
        <pt x="367" y="652" on="1"/>
        <pt x="324" y="652" on="0"/>
        <pt x="242" y="609" on="0"/>
        <pt x="180" y="529" on="0"/>
        <pt x="142" y="415" on="0"/>
        <pt x="142" y="345" on="1"/>
        <pt x="142" y="275" on="0"/>
        <pt x="179" y="163" on="0"/>
        <pt x="242" y="84" on="0"/>
        <pt x="324" y="42" on="0"/>
        <pt x="368" y="42" on="1"/>
        <pt x="390" y="42" on="0"/>
        <pt x="423" y="51" on="0"/>
        <pt x="424" y="51" on="1"/>
      </contour>
    </TTGlyph>
    <TTGlyph name="R" xMin="96" yMin="0" xMax="617" yMax="694">
      <contour>
        <pt x="617" y="0" on="1"/>
        <pt x="528" y="0" on="1"/>
        <pt x="340" y="317" on="1"/>
        <pt x="182" y="317" on="1"/>
        <pt x="182" y="0" on="1"/>
        <pt x="96" y="0" on="1"/>
        <pt x="96" y="694" on="1"/>
        <pt x="337" y="694" on="1"/>
        <pt x="391" y="694" on="0"/>
        <pt x="483" y="664" on="0"/>
        <pt x="550" y="613" on="0"/>
        <pt x="589" y="545" on="0"/>
        <pt x="589" y="508" on="1"/>
        <pt x="589" y="447" on="0"/>
        <pt x="496" y="349" on="0"/>
        <pt x="419" y="326" on="1"/>
      </contour>
      <contour>
        <pt x="326" y="378" on="1"/>
        <pt x="370" y="378" on="0"/>
        <pt x="438" y="399" on="0"/>
        <pt x="484" y="434" on="0"/>
        <pt x="508" y="481" on="0"/>
        <pt x="508" y="508" on="1"/>
        <pt x="508" y="535" on="0"/>
        <pt x="484" y="582" on="0"/>
        <pt x="437" y="617" on="0"/>
        <pt x="370" y="638" on="0"/>
        <pt x="326" y="638" on="1"/>
        <pt x="182" y="638" on="1"/>
        <pt x="182" y="378" on="1"/>
      </contour>
    </TTGlyph>
    <TTGlyph name="S" xMin="44" yMin="-22" xMax="499" yMax="716">
      <contour>
        <pt x="450" y="586" on="1"/>
        <pt x="436" y="598" on="0"/>
        <pt x="403" y="621" on="0"/>
        <pt x="363" y="639" on="0"/>
        <pt x="313" y="650" on="0"/>
        <pt x="281" y="650" on="1"/>
        <pt x="247" y="650" on="0"/>
        <pt x="192" y="629" on="0"/>
        <pt x="155" y="596" on="0"/>
        <pt x="135" y="553" on="0"/>
        <pt x="135" y="531" on="1"/>
        <pt x="135" y="515" on="0"/>
        <pt x="144" y="487" on="0"/>
        <pt x="156" y="467" on="0"/>
        <pt x="167" y="454" on="0"/>
        <pt x="170" y="452" on="1"/>
        <pt x="181" y="442" on="0"/>
        <pt x="200" y="430" on="0"/>
        <pt x="223" y="421" on="0"/>
        <pt x="252" y="413" on="0"/>
        <pt x="274" y="408" on="1"/>
        <pt x="309" y="399" on="0"/>
        <pt x="358" y="386" on="0"/>
        <pt x="396" y="369" on="0"/>
        <pt x="428" y="345" on="0"/>
        <pt x="446" y="326" on="1"/>
        <pt x="463" y="308" on="0"/>
        <pt x="499" y="238" on="0"/>
        <pt x="499" y="189" on="1"/>
        <pt x="499" y="148" on="0"/>
        <pt x="466" y="72" on="0"/>
        <pt x="407" y="13" on="0"/>
        <pt x="325" y="-22" on="0"/>
        <pt x="275" y="-22" on="1"/>
        <pt x="228" y="-22" on="0"/>
        <pt x="110" y="6" on="0"/>
        <pt x="44" y="47" on="1"/>
        <pt x="59" y="128" on="1"/>
        <pt x="91" y="101" on="0"/>
        <pt x="154" y="69" on="0"/>
        <pt x="211" y="52" on="0"/>
        <pt x="259" y="47" on="0"/>
        <pt x="274" y="47" on="1"/>
        <pt x="308" y="47" on="0"/>
        <pt x="362" y="70" on="0"/>
        <pt x="400" y="107" on="0"/>
        <pt x="420" y="154" on="0"/>
        <pt x="420" y="179" on="1"/>
        <pt x="420" y="211" on="0"/>
        <pt x="393" y="259" on="0"/>
        <pt x="378" y="272" on="1"/>
        <pt x="368" y="281" on="0"/>
        <pt x="350" y="293" on="0"/>
        <pt x="325" y="303" on="0"/>
        <pt x="287" y="313" on="0"/>
        <pt x="255" y="321" on="1"/>
        <pt x="233" y="326" on="0"/>
        <pt x="194" y="337" on="0"/>
        <pt x="158" y="353" on="0"/>
        <pt x="126" y="375" on="0"/>
        <pt x="110" y="392" on="1"/>
        <pt x="80" y="424" on="0"/>
        <pt x="56" y="487" on="0"/>
        <pt x="56" y="519" on="1"/>
        <pt x="56" y="556" on="0"/>
        <pt x="88" y="627" on="0"/>
        <pt x="146" y="682" on="0"/>
        <pt x="230" y="716" on="0"/>
        <pt x="282" y="716" on="1"/>
        <pt x="337" y="716" on="0"/>
        <pt x="423" y="691" on="0"/>
        <pt x="465" y="666" on="1"/>
      </contour>
    </TTGlyph>
    <TTGlyph name="Sigma" xMin="56" yMin="0" xMax="665" yMax="694">
      <contour>
        <pt x="199" y="69" on="1"/>
        <pt x="389" y="69" on="1"/>
        <pt x="398" y="69" on="0"/>
        <pt x="416" y="70" on="0"/>
        <pt x="425" y="70" on="1"/>
        <pt x="665" y="70" on="1"/>
        <pt x="665" y="0" on="1"/>
        <pt x="56" y="0" on="1"/>
        <pt x="287" y="335" on="1"/>
        <pt x="56" y="630" on="1"/>
        <pt x="56" y="694" on="1"/>
        <pt x="665" y="694" on="1"/>
        <pt x="665" y="629" on="1"/>
        <pt x="407" y="629" on="1"/>
        <pt x="398" y="629" on="0"/>
        <pt x="380" y="630" on="0"/>
        <pt x="371" y="630" on="1"/>
        <pt x="169" y="630" on="1"/>
        <pt x="391" y="347" on="1"/>
      </contour>
    </TTGlyph>
    <TTGlyph name="T" xMin="36" yMin="0" xMax="644" yMax="688">
      <contour>
        <pt x="385" y="0" on="1"/>
        <pt x="296" y="0" on="1"/>
        <pt x="296" y="624" on="1"/>
        <pt x="206" y="624" on="1"/>
        <pt x="197" y="624" on="0"/>
        <pt x="179" y="623" on="0"/>
        <pt x="170" y="623" on="1"/>
        <pt x="36" y="623" on="1"/>
        <pt x="36" y="688" on="1"/>
        <pt x="644" y="688" on="1"/>
        <pt x="644" y="623" on="1"/>
        <pt x="510" y="623" on="1"/>
        <pt x="501" y="623" on="0"/>
        <pt x="483" y="624" on="0"/>
        <pt x="474" y="624" on="1"/>
        <pt x="385" y="624" on="1"/>
      </contour>
    </TTGlyph>
    <TTGlyph name="Theta" xMin="56" yMin="-22" xMax="721" yMax="716">
      <contour>
        <pt x="721" y="345" on="1"/>
        <pt x="721" y="267" on="0"/>
        <pt x="668" y="133" on="0"/>
        <pt x="576" y="34" on="0"/>
        <pt x="456" y="-22" on="0"/>
        <pt x="388" y="-22" on="1"/>
        <pt x="322" y="-22" on="0"/>
        <pt x="202" y="33" on="0"/>
        <pt x="110" y="131" on="0"/>
        <pt x="56" y="266" on="0"/>
        <pt x="56" y="345" on="1"/>
        <pt x="56" y="422" on="0"/>
        <pt x="109" y="557" on="0"/>
        <pt x="199" y="658" on="0"/>
        <pt x="320" y="716" on="0"/>
        <pt x="389" y="716" on="1"/>
        <pt x="457" y="716" on="0"/>
        <pt x="577" y="659" on="0"/>
        <pt x="668" y="558" on="0"/>
        <pt x="721" y="423" on="0"/>
      </contour>
      <contour>
        <pt x="389" y="40" on="1"/>
        <pt x="437" y="40" on="0"/>
        <pt x="527" y="83" on="0"/>
        <pt x="596" y="162" on="0"/>
        <pt x="638" y="275" on="0"/>
        <pt x="638" y="345" on="1"/>
        <pt x="638" y="414" on="0"/>
        <pt x="598" y="528" on="0"/>
        <pt x="529" y="610" on="0"/>
        <pt x="438" y="655" on="0"/>
        <pt x="388" y="655" on="1"/>
        <pt x="339" y="655" on="0"/>
        <pt x="249" y="610" on="0"/>
        <pt x="180" y="529" on="0"/>
        <pt x="139" y="415" on="0"/>
        <pt x="139" y="345" on="1"/>
        <pt x="139" y="276" on="0"/>
        <pt x="180" y="163" on="0"/>
        <pt x="249" y="84" on="0"/>
        <pt x="339" y="40" on="0"/>
      </contour>
      <contour>
        <pt x="581" y="389" on="1"/>
        <pt x="581" y="306" on="1"/>
        <pt x="196" y="306" on="1"/>
        <pt x="196" y="389" on="1"/>
      </contour>
    </TTGlyph>
    <TTGlyph name="U" xMin="94" yMin="-22" xMax="593" yMax="694">
      <contour>
        <pt x="593" y="233" on="1"/>
        <pt x="593" y="179" on="0"/>
        <pt x="554" y="85" on="0"/>
        <pt x="486" y="17" on="0"/>
        <pt x="396" y="-22" on="0"/>
        <pt x="346" y="-22" on="1"/>
        <pt x="295" y="-22" on="0"/>
        <pt x="204" y="17" on="0"/>
        <pt x="135" y="85" on="0"/>
        <pt x="94" y="178" on="0"/>
        <pt x="94" y="233" on="1"/>
        <pt x="94" y="694" on="1"/>
        <pt x="183" y="694" on="1"/>
        <pt x="183" y="232" on="1"/>
        <pt x="183" y="181" on="0"/>
        <pt x="211" y="107" on="0"/>
        <pt x="257" y="58" on="0"/>
        <pt x="316" y="34" on="0"/>
        <pt x="347" y="34" on="1"/>
        <pt x="379" y="34" on="0"/>
        <pt x="439" y="59" on="0"/>
        <pt x="486" y="108" on="0"/>
        <pt x="515" y="183" on="0"/>
        <pt x="515" y="232" on="1"/>
        <pt x="515" y="694" on="1"/>
        <pt x="593" y="694" on="1"/>
      </contour>
    </TTGlyph>
    <TTGlyph name="Upsilon" xMin="56" yMin="0" xMax="721" yMax="716">
      <contour>
        <pt x="433" y="0" on="1"/>
        <pt x="344" y="0" on="1"/>
        <pt x="344" y="380" on="1"/>
        <pt x="344" y="460" on="0"/>
        <pt x="325" y="563" on="0"/>
        <pt x="290" y="625" on="0"/>
        <pt x="243" y="649" on="0"/>
        <pt x="216" y="649" on="1"/>
        <pt x="180" y="649" on="0"/>
        <pt x="136" y="596" on="0"/>
        <pt x="134" y="555" on="1"/>
        <pt x="56" y="555" on="1"/>
        <pt x="57" y="593" on="0"/>
        <pt x="84" y="652" on="0"/>
        <pt x="129" y="694" on="0"/>
        <pt x="185" y="716" on="0"/>
        <pt x="214" y="716" on="1"/>
        <pt x="263" y="716" on="0"/>
        <pt x="326" y="669" on="0"/>
        <pt x="365" y="600" on="0"/>
        <pt x="384" y="524" on="0"/>
        <pt x="388" y="494" on="1"/>
        <pt x="389" y="494" on="1"/>
        <pt x="395" y="535" on="0"/>
        <pt x="418" y="615" on="0"/>
        <pt x="459" y="678" on="0"/>
        <pt x="520" y="716" on="0"/>
        <pt x="563" y="716" on="1"/>
        <pt x="592" y="716" on="0"/>
        <pt x="648" y="694" on="0"/>
        <pt x="693" y="653" on="0"/>
        <pt x="720" y="593" on="0"/>
        <pt x="721" y="555" on="1"/>
        <pt x="643" y="555" on="1"/>
        <pt x="641" y="597" on="0"/>
        <pt x="597" y="649" on="0"/>
        <pt x="561" y="649" on="1"/>
        <pt x="536" y="649" on="0"/>
        <pt x="490" y="628" on="0"/>
        <pt x="454" y="569" on="0"/>
        <pt x="433" y="464" on="0"/>
        <pt x="433" y="380" on="1"/>
      </contour>
    </TTGlyph>
    <TTGlyph name="V" xMin="14" yMin="0" xMax="652" yMax="694">
      <contour>
        <pt x="379" y="0" on="1"/>
        <pt x="287" y="0" on="1"/>
        <pt x="14" y="694" on="1"/>
        <pt x="107" y="694" on="1"/>
        <pt x="280" y="246" on="1"/>
        <pt x="283" y="237" on="0"/>
        <pt x="301" y="192" on="0"/>
        <pt x="320" y="138" on="0"/>
        <pt x="337" y="87" on="0"/>
        <pt x="340" y="72" on="1"/>
        <pt x="341" y="72" on="1"/>
        <pt x="343" y="84" on="0"/>
        <pt x="358" y="128" on="0"/>
        <pt x="377" y="184" on="0"/>
        <pt x="400" y="244" on="0"/>
        <pt x="420" y="299" on="0"/>
        <pt x="437" y="342" on="0"/>
        <pt x="441" y="352" on="1"/>
        <pt x="574" y="694" on="1"/>
        <pt x="652" y="694" on="1"/>
      </contour>
    </TTGlyph>
    <TTGlyph name="W" xMin="14" yMin="0" xMax="929" yMax="694">
      <contour>
        <pt x="726" y="0" on="1"/>
        <pt x="639" y="0" on="1"/>
        <pt x="524" y="401" on="1"/>
        <pt x="514" y="437" on="0"/>
        <pt x="495" y="506" on="0"/>
        <pt x="480" y="565" on="0"/>
        <pt x="471" y="610" on="0"/>
        <pt x="469" y="621" on="1"/>
        <pt x="468" y="621" on="1"/>
        <pt x="466" y="602" on="0"/>
        <pt x="449" y="532" on="0"/>
        <pt x="428" y="452" on="0"/>
        <pt x="406" y="374" on="0"/>
        <pt x="398" y="347" on="1"/>
        <pt x="298" y="0" on="1"/>
        <pt x="217" y="0" on="1"/>
        <pt x="14" y="694" on="1"/>
        <pt x="100" y="694" on="1"/>
        <pt x="228" y="245" on="1"/>
        <pt x="231" y="233" on="0"/>
        <pt x="243" y="187" on="0"/>
        <pt x="255" y="137" on="0"/>
        <pt x="266" y="89" on="0"/>
        <pt x="267" y="74" on="1"/>
        <pt x="268" y="74" on="1"/>
        <pt x="270" y="95" on="0"/>
        <pt x="288" y="175" on="0"/>
        <pt x="312" y="265" on="0"/>
        <pt x="337" y="353" on="0"/>
        <pt x="345" y="382" on="1"/>
        <pt x="435" y="694" on="1"/>
        <pt x="516" y="694" on="1"/>
        <pt x="614" y="353" on="1"/>
        <pt x="639" y="268" on="0"/>
        <pt x="667" y="159" on="0"/>
        <pt x="682" y="96" on="0"/>
        <pt x="686" y="72" on="0"/>
        <pt x="686" y="72" on="1"/>
        <pt x="687" y="72" on="1"/>
        <pt x="689" y="91" on="0"/>
        <pt x="707" y="167" on="0"/>
        <pt x="731" y="256" on="0"/>
        <pt x="756" y="347" on="0"/>
        <pt x="766" y="380" on="1"/>
        <pt x="857" y="694" on="1"/>
        <pt x="929" y="694" on="1"/>
      </contour>
    </TTGlyph>
    <TTGlyph name="X" xMin="14" yMin="0" xMax="652" yMax="694">
      <contour>
        <pt x="652" y="0" on="1"/>
        <pt x="548" y="0" on="1"/>
        <pt x="326" y="306" on="1"/>
        <pt x="110" y="0" on="1"/>
        <pt x="14" y="0" on="1"/>
        <pt x="283" y="366" on="1"/>
        <pt x="28" y="694" on="1"/>
        <pt x="132" y="694" on="1"/>
        <pt x="326" y="433" on="1"/>
        <pt x="514" y="694" on="1"/>
        <pt x="610" y="694" on="1"/>
        <pt x="369" y="366" on="1"/>
      </contour>
    </TTGlyph>
    <TTGlyph name="Xi" xMin="42" yMin="0" xMax="624" yMax="688">
      <contour>
        <pt x="47" y="613" on="1"/>
        <pt x="47" y="688" on="1"/>
        <pt x="619" y="688" on="1"/>
        <pt x="619" y="613" on="1"/>
        <pt x="494" y="613" on="1"/>
        <pt x="454" y="613" on="0"/>
        <pt x="373" y="614" on="0"/>
        <pt x="333" y="614" on="1"/>
        <pt x="293" y="614" on="0"/>
        <pt x="212" y="613" on="0"/>
        <pt x="172" y="613" on="1"/>
      </contour>
      <contour>
        <pt x="624" y="75" on="1"/>
        <pt x="624" y="0" on="1"/>
        <pt x="42" y="0" on="1"/>
        <pt x="42" y="75" on="1"/>
        <pt x="170" y="75" on="1"/>
        <pt x="211" y="75" on="0"/>
        <pt x="292" y="74" on="0"/>
        <pt x="333" y="74" on="1"/>
        <pt x="374" y="74" on="0"/>
        <pt x="455" y="75" on="0"/>
        <pt x="496" y="75" on="1"/>
      </contour>
      <contour>
        <pt x="555" y="395" on="1"/>
        <pt x="555" y="321" on="1"/>
        <pt x="111" y="321" on="1"/>
        <pt x="111" y="395" on="1"/>
      </contour>
    </TTGlyph>
    <TTGlyph name="Y" xMin="3" yMin="0" xMax="663" yMax="694">
      <contour>
        <pt x="376" y="277" on="1"/>
        <pt x="376" y="0" on="1"/>
        <pt x="290" y="0" on="1"/>
        <pt x="290" y="278" on="1"/>
        <pt x="3" y="694" on="1"/>
        <pt x="108" y="694" on="1"/>
        <pt x="306" y="404" on="1"/>
        <pt x="312" y="395" on="0"/>
        <pt x="320" y="384" on="0"/>
        <pt x="327" y="373" on="0"/>
        <pt x="335" y="359" on="0"/>
        <pt x="342" y="347" on="1"/>
        <pt x="403" y="442" on="1"/>
        <pt x="408" y="450" on="0"/>
        <pt x="416" y="463" on="0"/>
        <pt x="420" y="468" on="1"/>
        <pt x="575" y="694" on="1"/>
        <pt x="663" y="694" on="1"/>
      </contour>
    </TTGlyph>
    <TTGlyph name="Z" xMin="56" yMin="0" xMax="560" yMax="694">
      <contour>
        <pt x="169" y="64" on="1"/>
        <pt x="201" y="64" on="1"/>
        <pt x="267" y="64" on="0"/>
        <pt x="398" y="66" on="0"/>
        <pt x="464" y="66" on="1"/>
        <pt x="560" y="66" on="1"/>
        <pt x="560" y="0" on="1"/>
        <pt x="56" y="0" on="1"/>
        <pt x="56" y="43" on="1"/>
        <pt x="441" y="633" on="1"/>
        <pt x="305" y="633" on="1"/>
        <pt x="296" y="633" on="0"/>
        <pt x="278" y="632" on="0"/>
        <pt x="269" y="632" on="1"/>
        <pt x="69" y="632" on="1"/>
        <pt x="69" y="694" on="1"/>
        <pt x="554" y="694" on="1"/>
        <pt x="554" y="653" on="1"/>
      </contour>
    </TTGlyph>
    <TTGlyph name="a" xMin="44" yMin="-11" xMax="399" yMax="461">
      <contour>
        <pt x="399" y="0" on="1"/>
        <pt x="324" y="0" on="1"/>
        <pt x="324" y="36" on="1"/>
        <pt x="302" y="19" on="0"/>
        <pt x="249" y="0" on="0"/>
        <pt x="200" y="-9" on="0"/>
        <pt x="163" y="-11" on="0"/>
        <pt x="158" y="-11" on="1"/>
        <pt x="125" y="-11" on="0"/>
        <pt x="82" y="16" on="0"/>
        <pt x="55" y="54" on="0"/>
        <pt x="44" y="97" on="0"/>
        <pt x="44" y="113" on="1"/>
        <pt x="44" y="146" on="0"/>
        <pt x="88" y="195" on="0"/>
        <pt x="164" y="228" on="0"/>
        <pt x="265" y="244" on="0"/>
        <pt x="321" y="245" on="1"/>
        <pt x="321" y="288" on="1"/>
        <pt x="321" y="344" on="0"/>
        <pt x="269" y="402" on="0"/>
        <pt x="234" y="402" on="1"/>
        <pt x="197" y="402" on="0"/>
        <pt x="122" y="380" on="0"/>
        <pt x="83" y="352" on="1"/>
        <pt x="77" y="418" on="1"/>
        <pt x="112" y="438" on="0"/>
        <pt x="185" y="461" on="0"/>
        <pt x="234" y="461" on="1"/>
        <pt x="269" y="461" on="0"/>
        <pt x="329" y="436" on="0"/>
        <pt x="373" y="391" on="0"/>
        <pt x="399" y="327" on="0"/>
        <pt x="399" y="289" on="1"/>
      </contour>
      <contour>
        <pt x="321" y="194" on="1"/>
        <pt x="305" y="193" on="0"/>
        <pt x="237" y="188" on="0"/>
        <pt x="168" y="172" on="0"/>
        <pt x="116" y="141" on="0"/>
        <pt x="116" y="115" on="1"/>
        <pt x="116" y="83" on="0"/>
        <pt x="173" y="50" on="0"/>
        <pt x="209" y="50" on="1"/>
        <pt x="213" y="50" on="0"/>
        <pt x="230" y="51" on="0"/>
        <pt x="252" y="55" on="0"/>
        <pt x="276" y="62" on="0"/>
        <pt x="287" y="69" on="1"/>
        <pt x="300" y="76" on="0"/>
        <pt x="314" y="92" on="0"/>
        <pt x="320" y="109" on="0"/>
        <pt x="321" y="125" on="0"/>
        <pt x="321" y="132" on="1"/>
      </contour>
    </TTGlyph>
    <TTGlyph name="acute" xMin="205" yMin="527" xMax="416" yMax="694">
      <contour>
        <pt x="266" y="527" on="1"/>
        <pt x="205" y="527" on="1"/>
        <pt x="338" y="694" on="1"/>
        <pt x="416" y="694" on="1"/>
      </contour>
    </TTGlyph>
    <TTGlyph name="ae" xMin="47" yMin="-11" xMax="693" yMax="461">
      <contour>
        <pt x="400" y="219" on="1"/>
        <pt x="402" y="179" on="0"/>
        <pt x="427" y="116" on="0"/>
        <pt x="467" y="73" on="0"/>
        <pt x="517" y="50" on="0"/>
        <pt x="544" y="50" on="1"/>
        <pt x="555" y="50" on="0"/>
        <pt x="585" y="54" on="0"/>
        <pt x="622" y="66" on="0"/>
        <pt x="662" y="88" on="0"/>
        <pt x="682" y="106" on="1"/>
        <pt x="688" y="41" on="1"/>
        <pt x="655" y="14" on="0"/>
        <pt x="579" y="-11" on="0"/>
        <pt x="543" y="-11" on="1"/>
        <pt x="534" y="-11" on="0"/>
        <pt x="498" y="-8" on="0"/>
        <pt x="454" y="7" on="0"/>
        <pt x="404" y="38" on="0"/>
        <pt x="380" y="66" on="1"/>
        <pt x="362" y="38" on="0"/>
        <pt x="297" y="7" on="0"/>
        <pt x="229" y="-8" on="0"/>
        <pt x="172" y="-11" on="0"/>
        <pt x="161" y="-11" on="1"/>
        <pt x="125" y="-11" on="0"/>
        <pt x="80" y="19" on="0"/>
        <pt x="56" y="59" on="0"/>
        <pt x="47" y="102" on="0"/>
        <pt x="47" y="114" on="1"/>
        <pt x="47" y="144" on="0"/>
        <pt x="80" y="187" on="0"/>
        <pt x="131" y="216" on="0"/>
        <pt x="195" y="233" on="0"/>
        <pt x="256" y="243" on="0"/>
        <pt x="308" y="246" on="0"/>
        <pt x="322" y="247" on="1"/>
        <pt x="322" y="288" on="1"/>
        <pt x="322" y="345" on="0"/>
        <pt x="269" y="402" on="0"/>
        <pt x="235" y="402" on="1"/>
        <pt x="192" y="402" on="0"/>
        <pt x="119" y="378" on="0"/>
        <pt x="83" y="352" on="1"/>
        <pt x="77" y="418" on="1"/>
        <pt x="112" y="438" on="0"/>
        <pt x="186" y="461" on="0"/>
        <pt x="234" y="461" on="1"/>
        <pt x="277" y="461" on="0"/>
        <pt x="352" y="420" on="0"/>
        <pt x="375" y="384" on="1"/>
        <pt x="406" y="422" on="0"/>
        <pt x="486" y="461" on="0"/>
        <pt x="527" y="461" on="1"/>
        <pt x="569" y="461" on="0"/>
        <pt x="625" y="430" on="0"/>
        <pt x="662" y="382" on="0"/>
        <pt x="682" y="324" on="0"/>
        <pt x="691" y="270" on="0"/>
        <pt x="693" y="228" on="0"/>
        <pt x="693" y="219" on="1"/>
      </contour>
      <contour>
        <pt x="634" y="274" on="1"/>
        <pt x="628" y="315" on="0"/>
        <pt x="603" y="365" on="0"/>
        <pt x="571" y="392" on="0"/>
        <pt x="540" y="400" on="0"/>
        <pt x="528" y="400" on="1"/>
        <pt x="487" y="400" on="0"/>
        <pt x="418" y="332" on="0"/>
        <pt x="405" y="274" on="1"/>
      </contour>
      <contour>
        <pt x="323" y="191" on="1"/>
        <pt x="313" y="191" on="0"/>
        <pt x="275" y="189" on="0"/>
        <pt x="229" y="184" on="0"/>
        <pt x="182" y="173" on="0"/>
        <pt x="144" y="156" on="0"/>
        <pt x="119" y="132" on="0"/>
        <pt x="119" y="115" on="1"/>
        <pt x="119" y="87" on="0"/>
        <pt x="170" y="50" on="0"/>
        <pt x="211" y="50" on="1"/>
        <pt x="217" y="50" on="0"/>
        <pt x="254" y="52" on="0"/>
        <pt x="295" y="67" on="0"/>
        <pt x="327" y="98" on="0"/>
        <pt x="327" y="127" on="1"/>
        <pt x="327" y="132" on="0"/>
        <pt x="326" y="151" on="0"/>
        <pt x="325" y="171" on="0"/>
        <pt x="323" y="188" on="0"/>
      </contour>
    </TTGlyph>
    <TTGlyph name="ampersand" xMin="42" yMin="-22" xMax="701" yMax="716">
      <contour>
        <pt x="665" y="387" on="1"/>
        <pt x="640" y="299" on="0"/>
        <pt x="551" y="139" on="0"/>
        <pt x="482" y="79" on="1"/>
        <pt x="505" y="63" on="0"/>
        <pt x="552" y="42" on="0"/>
        <pt x="586" y="42" on="1"/>
        <pt x="597" y="42" on="0"/>
        <pt x="660" y="47" on="0"/>
        <pt x="701" y="60" on="1"/>
        <pt x="701" y="-7" on="1"/>
        <pt x="656" y="-18" on="0"/>
        <pt x="594" y="-22" on="0"/>
        <pt x="585" y="-22" on="1"/>
        <pt x="549" y="-22" on="0"/>
        <pt x="469" y="1" on="0"/>
        <pt x="424" y="36" on="1"/>
        <pt x="413" y="30" on="0"/>
        <pt x="375" y="10" on="0"/>
        <pt x="325" y="-9" on="0"/>
        <pt x="262" y="-22" on="0"/>
        <pt x="225" y="-22" on="1"/>
        <pt x="185" y="-22" on="0"/>
        <pt x="118" y="5" on="0"/>
        <pt x="69" y="51" on="0"/>
        <pt x="42" y="112" on="0"/>
        <pt x="42" y="146" on="1"/>
        <pt x="42" y="175" on="0"/>
        <pt x="63" y="231" on="0"/>
        <pt x="87" y="257" on="1"/>
        <pt x="90" y="260" on="0"/>
        <pt x="108" y="276" on="0"/>
        <pt x="130" y="296" on="0"/>
        <pt x="154" y="316" on="0"/>
        <pt x="161" y="322" on="1"/>
        <pt x="169" y="330" on="0"/>
        <pt x="178" y="337" on="0"/>
        <pt x="183" y="342" on="1"/>
        <pt x="189" y="348" on="0"/>
        <pt x="192" y="351" on="0"/>
        <pt x="192" y="353" on="1"/>
        <pt x="192" y="354" on="0"/>
        <pt x="191" y="358" on="0"/>
        <pt x="189" y="363" on="1"/>
        <pt x="181" y="386" on="0"/>
        <pt x="162" y="469" on="0"/>
        <pt x="162" y="518" on="1"/>
        <pt x="162" y="558" on="0"/>
        <pt x="181" y="630" on="0"/>
        <pt x="217" y="684" on="0"/>
        <pt x="268" y="716" on="0"/>
        <pt x="300" y="716" on="1"/>
        <pt x="330" y="716" on="0"/>
        <pt x="378" y="688" on="0"/>
        <pt x="411" y="644" on="0"/>
        <pt x="429" y="588" on="0"/>
        <pt x="429" y="559" on="1"/>
        <pt x="429" y="509" on="0"/>
        <pt x="351" y="408" on="0"/>
        <pt x="278" y="343" on="1"/>
        <pt x="295" y="307" on="0"/>
        <pt x="339" y="238" on="0"/>
        <pt x="384" y="179" on="0"/>
        <pt x="423" y="134" on="0"/>
        <pt x="434" y="122" on="1"/>
        <pt x="466" y="147" on="0"/>
        <pt x="518" y="213" on="0"/>
        <pt x="561" y="288" on="0"/>
        <pt x="593" y="367" on="0"/>
        <pt x="603" y="405" on="1"/>
      </contour>
      <contour>
        <pt x="254" y="404" on="1"/>
        <pt x="300" y="446" on="0"/>
        <pt x="360" y="522" on="0"/>
        <pt x="360" y="560" on="1"/>
        <pt x="360" y="569" on="0"/>
        <pt x="356" y="601" on="0"/>
        <pt x="343" y="632" on="0"/>
        <pt x="319" y="655" on="0"/>
        <pt x="299" y="655" on="1"/>
        <pt x="287" y="655" on="0"/>
        <pt x="262" y="644" on="0"/>
        <pt x="241" y="619" on="0"/>
        <pt x="227" y="580" on="0"/>
        <pt x="227" y="552" on="1"/>
        <pt x="227" y="549" on="0"/>
        <pt x="228" y="522" on="0"/>
        <pt x="233" y="481" on="0"/>
        <pt x="244" y="430" on="0"/>
      </contour>
      <contour>
        <pt x="219" y="292" on="1"/>
        <pt x="216" y="290" on="0"/>
        <pt x="196" y="272" on="0"/>
        <pt x="173" y="252" on="0"/>
        <pt x="154" y="236" on="0"/>
        <pt x="154" y="235" on="1"/>
        <pt x="141" y="223" on="0"/>
        <pt x="120" y="182" on="0"/>
        <pt x="120" y="153" on="1"/>
        <pt x="120" y="134" on="0"/>
        <pt x="133" y="94" on="0"/>
        <pt x="160" y="62" on="0"/>
        <pt x="199" y="42" on="0"/>
        <pt x="226" y="42" on="1"/>
        <pt x="246" y="42" on="0"/>
        <pt x="325" y="55" on="0"/>
        <pt x="373" y="80" on="1"/>
        <pt x="369" y="84" on="0"/>
        <pt x="333" y="124" on="0"/>
        <pt x="287" y="184" on="0"/>
        <pt x="237" y="256" on="0"/>
      </contour>
    </TTGlyph>
    <TTGlyph name="asterisk" xMin="64" yMin="306" xMax="435" yMax="750">
      <contour>
        <pt x="300" y="528" on="1"/>
        <pt x="361" y="495" on="0"/>
        <pt x="416" y="467" on="0"/>
        <pt x="421" y="463" on="1"/>
        <pt x="435" y="454" on="0"/>
        <pt x="435" y="436" on="1"/>
        <pt x="435" y="418" on="0"/>
        <pt x="412" y="400" on="0"/>
        <pt x="401" y="400" on="1"/>
        <pt x="393" y="400" on="0"/>
        <pt x="382" y="406" on="0"/>
        <pt x="369" y="416" on="1"/>
        <pt x="276" y="480" on="1"/>
        <pt x="277" y="469" on="0"/>
        <pt x="279" y="430" on="0"/>
        <pt x="282" y="388" on="0"/>
        <pt x="284" y="350" on="0"/>
        <pt x="284" y="341" on="1"/>
        <pt x="284" y="322" on="0"/>
        <pt x="261" y="306" on="0"/>
        <pt x="249" y="306" on="1"/>
        <pt x="240" y="306" on="0"/>
        <pt x="215" y="321" on="0"/>
        <pt x="215" y="341" on="1"/>
        <pt x="215" y="350" on="0"/>
        <pt x="217" y="388" on="0"/>
        <pt x="220" y="430" on="0"/>
        <pt x="222" y="469" on="0"/>
        <pt x="223" y="480" on="1"/>
        <pt x="127" y="413" on="1"/>
        <pt x="116" y="405" on="0"/>
        <pt x="106" y="400" on="0"/>
        <pt x="98" y="400" on="1"/>
        <pt x="87" y="400" on="0"/>
        <pt x="64" y="418" on="0"/>
        <pt x="64" y="436" on="1"/>
        <pt x="64" y="450" on="0"/>
        <pt x="78" y="462" on="0"/>
        <pt x="90" y="469" on="1"/>
        <pt x="199" y="528" on="1"/>
        <pt x="138" y="561" on="0"/>
        <pt x="83" y="589" on="0"/>
        <pt x="78" y="593" on="1"/>
        <pt x="64" y="602" on="0"/>
        <pt x="64" y="620" on="1"/>
        <pt x="64" y="638" on="0"/>
        <pt x="87" y="656" on="0"/>
        <pt x="98" y="656" on="1"/>
        <pt x="102" y="656" on="0"/>
        <pt x="114" y="653" on="0"/>
        <pt x="125" y="645" on="1"/>
        <pt x="223" y="576" on="1"/>
        <pt x="222" y="587" on="0"/>
        <pt x="220" y="626" on="0"/>
        <pt x="217" y="668" on="0"/>
        <pt x="215" y="706" on="0"/>
        <pt x="215" y="715" on="1"/>
        <pt x="215" y="734" on="0"/>
        <pt x="238" y="750" on="0"/>
        <pt x="250" y="750" on="1"/>
        <pt x="259" y="750" on="0"/>
        <pt x="284" y="735" on="0"/>
        <pt x="284" y="715" on="1"/>
        <pt x="284" y="706" on="0"/>
        <pt x="282" y="668" on="0"/>
        <pt x="279" y="626" on="0"/>
        <pt x="277" y="587" on="0"/>
        <pt x="276" y="576" on="1"/>
        <pt x="372" y="643" on="1"/>
        <pt x="383" y="651" on="0"/>
        <pt x="393" y="656" on="0"/>
        <pt x="401" y="656" on="1"/>
        <pt x="412" y="656" on="0"/>
        <pt x="435" y="638" on="0"/>
        <pt x="435" y="620" on="1"/>
        <pt x="435" y="606" on="0"/>
        <pt x="421" y="594" on="0"/>
        <pt x="409" y="587" on="1"/>
      </contour>
    </TTGlyph>
    <TTGlyph name="at" xMin="56" yMin="-11" xMax="610" yMax="705">
      <contour>
        <pt x="610" y="85" on="1"/>
        <pt x="597" y="71" on="0"/>
        <pt x="556" y="37" on="0"/>
        <pt x="499" y="8" on="0"/>
        <pt x="429" y="-11" on="0"/>
        <pt x="388" y="-11" on="1"/>
        <pt x="321" y="-11" on="0"/>
        <pt x="200" y="44" on="0"/>
        <pt x="109" y="140" on="0"/>
        <pt x="56" y="271" on="0"/>
        <pt x="56" y="347" on="1"/>
        <pt x="56" y="423" on="0"/>
        <pt x="110" y="554" on="0"/>
        <pt x="202" y="650" on="0"/>
        <pt x="321" y="705" on="0"/>
        <pt x="387" y="705" on="1"/>
        <pt x="443" y="705" on="0"/>
        <pt x="519" y="666" on="0"/>
        <pt x="568" y="605" on="0"/>
        <pt x="595" y="528" on="0"/>
        <pt x="608" y="452" on="0"/>
        <pt x="610" y="384" on="0"/>
        <pt x="610" y="362" on="1"/>
        <pt x="610" y="293" on="0"/>
        <pt x="571" y="200" on="0"/>
        <pt x="515" y="144" on="0"/>
        <pt x="451" y="120" on="0"/>
        <pt x="425" y="120" on="1"/>
        <pt x="388" y="120" on="0"/>
        <pt x="321" y="154" on="0"/>
        <pt x="270" y="215" on="0"/>
        <pt x="240" y="298" on="0"/>
        <pt x="240" y="347" on="1"/>
        <pt x="240" y="396" on="0"/>
        <pt x="270" y="479" on="0"/>
        <pt x="321" y="540" on="0"/>
        <pt x="388" y="574" on="0"/>
        <pt x="425" y="574" on="1"/>
        <pt x="448" y="574" on="0"/>
        <pt x="491" y="560" on="0"/>
        <pt x="509" y="549" on="1"/>
        <pt x="499" y="578" on="0"/>
        <pt x="470" y="614" on="0"/>
        <pt x="437" y="636" on="0"/>
        <pt x="402" y="644" on="0"/>
        <pt x="386" y="644" on="1"/>
        <pt x="338" y="644" on="0"/>
        <pt x="246" y="600" on="0"/>
        <pt x="174" y="522" on="0"/>
        <pt x="131" y="413" on="0"/>
        <pt x="131" y="347" on="1"/>
        <pt x="131" y="286" on="0"/>
        <pt x="171" y="178" on="0"/>
        <pt x="241" y="97" on="0"/>
        <pt x="336" y="50" on="0"/>
        <pt x="391" y="50" on="1"/>
        <pt x="414" y="50" on="0"/>
        <pt x="489" y="61" on="0"/>
        <pt x="537" y="81" on="1"/>
        <pt x="543" y="84" on="0"/>
        <pt x="551" y="85" on="0"/>
        <pt x="562" y="85" on="1"/>
      </contour>
      <contour>
        <pt x="425" y="181" on="1"/>
        <pt x="447" y="181" on="0"/>
        <pt x="487" y="206" on="0"/>
        <pt x="517" y="251" on="0"/>
        <pt x="535" y="312" on="0"/>
        <pt x="535" y="347" on="1"/>
        <pt x="535" y="383" on="0"/>
        <pt x="517" y="443" on="0"/>
        <pt x="487" y="488" on="0"/>
        <pt x="447" y="513" on="0"/>
        <pt x="425" y="513" on="1"/>
        <pt x="403" y="513" on="0"/>
        <pt x="363" y="488" on="0"/>
        <pt x="333" y="443" on="0"/>
        <pt x="315" y="382" on="0"/>
        <pt x="315" y="347" on="1"/>
        <pt x="315" y="311" on="0"/>
        <pt x="333" y="251" on="0"/>
        <pt x="363" y="206" on="0"/>
        <pt x="403" y="181" on="0"/>
      </contour>
    </TTGlyph>
    <TTGlyph name="b" xMin="82" yMin="-11" xMax="480" yMax="694">
      <contour>
        <pt x="157" y="396" on="1"/>
        <pt x="202" y="433" on="0"/>
        <pt x="289" y="455" on="0"/>
        <pt x="318" y="455" on="1"/>
        <pt x="353" y="455" on="0"/>
        <pt x="413" y="417" on="0"/>
        <pt x="456" y="354" on="0"/>
        <pt x="480" y="270" on="0"/>
        <pt x="480" y="223" on="1"/>
        <pt x="480" y="173" on="0"/>
        <pt x="450" y="87" on="0"/>
        <pt x="399" y="24" on="0"/>
        <pt x="332" y="-11" on="0"/>
        <pt x="294" y="-11" on="1"/>
        <pt x="269" y="-11" on="0"/>
        <pt x="227" y="1" on="0"/>
        <pt x="194" y="18" on="0"/>
        <pt x="169" y="38" on="0"/>
        <pt x="160" y="46" on="1"/>
        <pt x="160" y="0" on="1"/>
        <pt x="82" y="0" on="1"/>
        <pt x="82" y="694" on="1"/>
        <pt x="157" y="694" on="1"/>
      </contour>
      <contour>
        <pt x="160" y="114" on="1"/>
        <pt x="179" y="79" on="0"/>
        <pt x="228" y="50" on="0"/>
        <pt x="257" y="50" on="1"/>
        <pt x="280" y="50" on="0"/>
        <pt x="331" y="68" on="0"/>
        <pt x="374" y="108" on="0"/>
        <pt x="402" y="174" on="0"/>
        <pt x="402" y="223" on="1"/>
        <pt x="402" y="271" on="0"/>
        <pt x="376" y="336" on="0"/>
        <pt x="337" y="377" on="0"/>
        <pt x="289" y="394" on="0"/>
        <pt x="267" y="394" on="1"/>
        <pt x="246" y="394" on="0"/>
        <pt x="212" y="382" on="0"/>
        <pt x="185" y="365" on="0"/>
        <pt x="166" y="344" on="0"/>
        <pt x="160" y="335" on="1"/>
      </contour>
    </TTGlyph>
    <TTGlyph name="bracketleft" xMin="102" yMin="-250" xMax="266" yMax="750">
      <contour>
        <pt x="102" y="-250" on="1"/>
        <pt x="102" y="750" on="1"/>
        <pt x="266" y="750" on="1"/>
        <pt x="266" y="689" on="1"/>
        <pt x="174" y="689" on="1"/>
        <pt x="174" y="-189" on="1"/>
        <pt x="266" y="-189" on="1"/>
        <pt x="266" y="-250" on="1"/>
      </contour>
    </TTGlyph>
    <TTGlyph name="bracketright" xMin="22" yMin="-250" xMax="186" yMax="750">
      <contour>
        <pt x="186" y="-250" on="1"/>
        <pt x="22" y="-250" on="1"/>
        <pt x="22" y="-189" on="1"/>
        <pt x="114" y="-189" on="1"/>
        <pt x="114" y="689" on="1"/>
        <pt x="22" y="689" on="1"/>
        <pt x="22" y="750" on="1"/>
        <pt x="186" y="750" on="1"/>
      </contour>
    </TTGlyph>
    <TTGlyph name="breve" xMin="81" yMin="516" xMax="418" yMax="694">
      <contour>
        <pt x="418" y="694" on="1"/>
        <pt x="417" y="655" on="0"/>
        <pt x="389" y="589" on="0"/>
        <pt x="343" y="542" on="0"/>
        <pt x="282" y="516" on="0"/>
        <pt x="249" y="516" on="1"/>
        <pt x="217" y="516" on="0"/>
        <pt x="157" y="542" on="0"/>
        <pt x="110" y="588" on="0"/>
        <pt x="82" y="654" on="0"/>
        <pt x="81" y="694" on="1"/>
        <pt x="142" y="694" on="1"/>
        <pt x="143" y="667" on="0"/>
        <pt x="162" y="626" on="0"/>
        <pt x="193" y="597" on="0"/>
        <pt x="231" y="583" on="0"/>
        <pt x="250" y="583" on="1"/>
        <pt x="268" y="583" on="0"/>
        <pt x="305" y="597" on="0"/>
        <pt x="336" y="625" on="0"/>
        <pt x="356" y="666" on="0"/>
        <pt x="357" y="694" on="1"/>
      </contour>
    </TTGlyph>
    <TTGlyph name="c" xMin="36" yMin="-11" xMax="415" yMax="461">
      <contour>
        <pt x="398" y="353" on="1"/>
        <pt x="377" y="367" on="0"/>
        <pt x="343" y="384" on="0"/>
        <pt x="310" y="393" on="0"/>
        <pt x="277" y="397" on="0"/>
        <pt x="257" y="397" on="1"/>
        <pt x="217" y="397" on="0"/>
        <pt x="163" y="365" on="0"/>
        <pt x="129" y="314" on="0"/>
        <pt x="114" y="252" on="0"/>
        <pt x="114" y="223" on="1"/>
        <pt x="114" y="186" on="0"/>
        <pt x="134" y="124" on="0"/>
        <pt x="171" y="79" on="0"/>
        <pt x="222" y="53" on="0"/>
        <pt x="253" y="53" on="1"/>
        <pt x="291" y="53" on="0"/>
        <pt x="371" y="77" on="0"/>
        <pt x="409" y="107" on="1"/>
        <pt x="415" y="40" on="1"/>
        <pt x="374" y="12" on="0"/>
        <pt x="293" y="-11" on="0"/>
        <pt x="252" y="-11" on="1"/>
        <pt x="205" y="-11" on="0"/>
        <pt x="126" y="27" on="0"/>
        <pt x="68" y="91" on="0"/>
        <pt x="36" y="176" on="0"/>
        <pt x="36" y="222" on="1"/>
        <pt x="36" y="266" on="0"/>
        <pt x="66" y="352" on="0"/>
        <pt x="122" y="420" on="0"/>
        <pt x="204" y="461" on="0"/>
        <pt x="256" y="461" on="1"/>
        <pt x="279" y="461" on="0"/>
        <pt x="316" y="457" on="0"/>
        <pt x="351" y="447" on="0"/>
        <pt x="388" y="431" on="0"/>
        <pt x="410" y="418" on="1"/>
      </contour>
    </TTGlyph>
    <TTGlyph name="caron" xMin="77" yMin="487" xMax="422" yMax="654">
      <contour>
        <pt x="281" y="487" on="1"/>
        <pt x="218" y="487" on="1"/>
        <pt x="77" y="654" on="1"/>
        <pt x="138" y="654" on="1"/>
        <pt x="250" y="531" on="1"/>
        <pt x="361" y="654" on="1"/>
        <pt x="422" y="654" on="1"/>
      </contour>
    </TTGlyph>
    <TTGlyph name="cedilla" xMin="145" yMin="-192" xMax="280" yMax="-24">
      <contour>
        <pt x="214" y="-192" on="1"/>
        <pt x="145" y="-192" on="1"/>
        <pt x="219" y="-24" on="1"/>
        <pt x="280" y="-24" on="1"/>
      </contour>
    </TTGlyph>
    <TTGlyph name="circumflex" xMin="77" yMin="527" xMax="422" yMax="694">
      <contour>
        <pt x="422" y="527" on="1"/>
        <pt x="361" y="527" on="1"/>
        <pt x="249" y="650" on="1"/>
        <pt x="138" y="527" on="1"/>
        <pt x="77" y="527" on="1"/>
        <pt x="218" y="694" on="1"/>
        <pt x="281" y="694" on="1"/>
      </contour>
    </TTGlyph>
    <TTGlyph name="colon" xMin="97" yMin="0" xMax="180" yMax="444">
      <contour>
        <pt x="180" y="361" on="1"/>
        <pt x="97" y="361" on="1"/>
        <pt x="97" y="444" on="1"/>
        <pt x="180" y="444" on="1"/>
      </contour>
      <contour>
        <pt x="180" y="83" on="1"/>
        <pt x="180" y="0" on="1"/>
        <pt x="97" y="0" on="1"/>
        <pt x="97" y="83" on="1"/>
      </contour>
    </TTGlyph>
    <TTGlyph name="comma" xMin="97" yMin="-125" xMax="180" yMax="83">
      <contour>
        <pt x="138" y="-125" on="1"/>
        <pt x="97" y="-125" on="1"/>
        <pt x="122" y="0" on="1"/>
        <pt x="97" y="0" on="1"/>
        <pt x="97" y="83" on="1"/>
        <pt x="180" y="83" on="1"/>
        <pt x="180" y="1" on="1"/>
      </contour>
    </TTGlyph>
    <TTGlyph name="d" xMin="36" yMin="-11" xMax="434" yMax="694">
      <contour>
        <pt x="434" y="0" on="1"/>
        <pt x="356" y="0" on="1"/>
        <pt x="356" y="52" on="1"/>
        <pt x="335" y="32" on="0"/>
        <pt x="293" y="7" on="0"/>
        <pt x="254" y="-7" on="0"/>
        <pt x="220" y="-11" on="0"/>
        <pt x="208" y="-11" on="1"/>
        <pt x="172" y="-11" on="0"/>
        <pt x="110" y="25" on="0"/>
        <pt x="63" y="88" on="0"/>
        <pt x="36" y="173" on="0"/>
        <pt x="36" y="222" on="1"/>
        <pt x="36" y="270" on="0"/>
        <pt x="63" y="355" on="0"/>
        <pt x="111" y="418" on="0"/>
        <pt x="176" y="455" on="0"/>
        <pt x="213" y="455" on="1"/>
        <pt x="241" y="455" on="0"/>
        <pt x="319" y="433" on="0"/>
        <pt x="359" y="400" on="1"/>
        <pt x="359" y="694" on="1"/>
        <pt x="434" y="694" on="1"/>
      </contour>
      <contour>
        <pt x="356" y="339" on="1"/>
        <pt x="339" y="363" on="0"/>
        <pt x="293" y="394" on="0"/>
        <pt x="259" y="394" on="1"/>
        <pt x="237" y="394" on="0"/>
        <pt x="186" y="377" on="0"/>
        <pt x="143" y="337" on="0"/>
        <pt x="114" y="271" on="0"/>
        <pt x="114" y="221" on="1"/>
        <pt x="114" y="175" on="0"/>
        <pt x="139" y="109" on="0"/>
        <pt x="178" y="69" on="0"/>
        <pt x="226" y="50" on="0"/>
        <pt x="249" y="50" on="1"/>
        <pt x="267" y="50" on="0"/>
        <pt x="304" y="63" on="0"/>
        <pt x="336" y="87" on="0"/>
        <pt x="356" y="120" on="0"/>
        <pt x="356" y="139" on="1"/>
      </contour>
    </TTGlyph>
    <TTGlyph name="dieresis" xMin="111" yMin="597" xMax="388" yMax="680">
      <contour>
        <pt x="194" y="597" on="1"/>
        <pt x="111" y="597" on="1"/>
        <pt x="111" y="680" on="1"/>
        <pt x="194" y="680" on="1"/>
      </contour>
      <contour>
        <pt x="388" y="597" on="1"/>
        <pt x="305" y="597" on="1"/>
        <pt x="305" y="680" on="1"/>
        <pt x="388" y="680" on="1"/>
      </contour>
    </TTGlyph>
    <TTGlyph name="dollar" xMin="44" yMin="-56" xMax="443" yMax="750">
      <contour>
        <pt x="279" y="399" on="1"/>
        <pt x="322" y="390" on="0"/>
        <pt x="384" y="348" on="0"/>
        <pt x="424" y="291" on="0"/>
        <pt x="443" y="226" on="0"/>
        <pt x="443" y="195" on="1"/>
        <pt x="443" y="159" on="0"/>
        <pt x="420" y="91" on="0"/>
        <pt x="377" y="36" on="0"/>
        <pt x="317" y="-2" on="0"/>
        <pt x="279" y="-8" on="1"/>
        <pt x="279" y="-56" on="1"/>
        <pt x="221" y="-56" on="1"/>
        <pt x="221" y="-10" on="1"/>
        <pt x="186" y="-7" on="0"/>
        <pt x="129" y="10" on="0"/>
        <pt x="85" y="31" on="0"/>
        <pt x="53" y="51" on="0"/>
        <pt x="44" y="58" on="1"/>
        <pt x="56" y="126" on="1"/>
        <pt x="95" y="91" on="0"/>
        <pt x="184" y="58" on="0"/>
        <pt x="221" y="54" on="1"/>
        <pt x="221" y="322" on="1"/>
        <pt x="166" y="335" on="0"/>
        <pt x="101" y="385" on="0"/>
        <pt x="67" y="442" on="0"/>
        <pt x="56" y="497" on="0"/>
        <pt x="56" y="513" on="1"/>
        <pt x="56" y="543" on="0"/>
        <pt x="76" y="604" on="0"/>
        <pt x="117" y="657" on="0"/>
        <pt x="179" y="696" on="0"/>
        <pt x="221" y="703" on="1"/>
        <pt x="221" y="750" on="1"/>
        <pt x="279" y="750" on="1"/>
        <pt x="279" y="704" on="1"/>
        <pt x="295" y="703" on="0"/>
        <pt x="328" y="697" on="0"/>
        <pt x="364" y="685" on="0"/>
        <pt x="404" y="665" on="0"/>
        <pt x="427" y="649" on="1"/>
        <pt x="415" y="583" on="1"/>
        <pt x="389" y="603" on="0"/>
        <pt x="326" y="635" on="0"/>
        <pt x="279" y="640" on="1"/>
      </contour>
      <contour>
        <pt x="221" y="638" on="1"/>
        <pt x="177" y="627" on="0"/>
        <pt x="129" y="564" on="0"/>
        <pt x="129" y="526" on="1"/>
        <pt x="129" y="511" on="0"/>
        <pt x="139" y="477" on="0"/>
        <pt x="160" y="445" on="0"/>
        <pt x="196" y="420" on="0"/>
        <pt x="221" y="414" on="1"/>
      </contour>
      <contour>
        <pt x="279" y="57" on="1"/>
        <pt x="302" y="64" on="0"/>
        <pt x="337" y="90" on="0"/>
        <pt x="359" y="124" on="0"/>
        <pt x="370" y="163" on="0"/>
        <pt x="370" y="182" on="1"/>
        <pt x="370" y="227" on="0"/>
        <pt x="320" y="297" on="0"/>
        <pt x="279" y="308" on="1"/>
      </contour>
    </TTGlyph>
    <TTGlyph name="dotaccent" xMin="94" yMin="591" xMax="183" yMax="680">
      <contour>
        <pt x="183" y="591" on="1"/>
        <pt x="94" y="591" on="1"/>
        <pt x="94" y="680" on="1"/>
        <pt x="183" y="680" on="1"/>
      </contour>
    </TTGlyph>
    <TTGlyph name="dotlessi" xMin="81" yMin="0" xMax="156" yMax="444">
      <contour>
        <pt x="156" y="0" on="1"/>
        <pt x="81" y="0" on="1"/>
        <pt x="81" y="444" on="1"/>
        <pt x="156" y="444" on="1"/>
      </contour>
    </TTGlyph>
    <TTGlyph name="e" xMin="35" yMin="-11" xMax="414" yMax="461">
      <contour>
        <pt x="105" y="219" on="1"/>
        <pt x="106" y="182" on="0"/>
        <pt x="130" y="120" on="0"/>
        <pt x="169" y="75" on="0"/>
        <pt x="222" y="50" on="0"/>
        <pt x="252" y="50" on="1"/>
        <pt x="261" y="50" on="0"/>
        <pt x="293" y="53" on="0"/>
        <pt x="333" y="64" on="0"/>
        <pt x="380" y="87" on="0"/>
        <pt x="404" y="106" on="1"/>
        <pt x="410" y="41" on="1"/>
        <pt x="381" y="20" on="0"/>
        <pt x="299" y="-11" on="0"/>
        <pt x="251" y="-11" on="1"/>
        <pt x="206" y="-11" on="0"/>
        <pt x="127" y="26" on="0"/>
        <pt x="69" y="90" on="0"/>
        <pt x="35" y="177" on="0"/>
        <pt x="35" y="226" on="1"/>
        <pt x="35" y="274" on="0"/>
        <pt x="67" y="360" on="0"/>
        <pt x="121" y="424" on="0"/>
        <pt x="194" y="461" on="0"/>
        <pt x="236" y="461" on="1"/>
        <pt x="287" y="461" on="0"/>
        <pt x="356" y="418" on="0"/>
        <pt x="397" y="349" on="0"/>
        <pt x="414" y="263" on="0"/>
        <pt x="414" y="219" on="1"/>
      </contour>
      <contour>
        <pt x="357" y="274" on="1"/>
        <pt x="352" y="309" on="0"/>
        <pt x="328" y="357" on="0"/>
        <pt x="295" y="387" on="0"/>
        <pt x="256" y="400" on="0"/>
        <pt x="236" y="400" on="1"/>
        <pt x="193" y="400" on="0"/>
        <pt x="122" y="331" on="0"/>
        <pt x="110" y="274" on="1"/>
      </contour>
    </TTGlyph>
    <TTGlyph name="eight" xMin="42" yMin="-22" xMax="457" yMax="678">
      <contour>
        <pt x="320" y="355" on="1"/>
        <pt x="345" y="346" on="0"/>
        <pt x="394" y="315" on="0"/>
        <pt x="433" y="271" on="0"/>
        <pt x="457" y="214" on="0"/>
        <pt x="457" y="180" on="1"/>
        <pt x="457" y="140" on="0"/>
        <pt x="425" y="67" on="0"/>
        <pt x="370" y="11" on="0"/>
        <pt x="294" y="-22" on="0"/>
        <pt x="249" y="-22" on="1"/>
        <pt x="206" y="-22" on="0"/>
        <pt x="130" y="10" on="0"/>
        <pt x="74" y="66" on="0"/>
        <pt x="42" y="139" on="0"/>
        <pt x="42" y="180" on="1"/>
        <pt x="42" y="213" on="0"/>
        <pt x="65" y="268" on="0"/>
        <pt x="102" y="313" on="0"/>
        <pt x="152" y="346" on="0"/>
        <pt x="179" y="355" on="1"/>
        <pt x="146" y="366" on="0"/>
        <pt x="99" y="400" on="0"/>
        <pt x="69" y="440" on="0"/>
        <pt x="56" y="483" on="0"/>
        <pt x="56" y="503" on="1"/>
        <pt x="56" y="538" on="0"/>
        <pt x="85" y="601" on="0"/>
        <pt x="137" y="649" on="0"/>
        <pt x="208" y="678" on="0"/>
        <pt x="250" y="678" on="1"/>
        <pt x="291" y="678" on="0"/>
        <pt x="361" y="650" on="0"/>
        <pt x="413" y="602" on="0"/>
        <pt x="443" y="538" on="0"/>
        <pt x="443" y="503" on="1"/>
        <pt x="443" y="483" on="0"/>
        <pt x="430" y="440" on="0"/>
        <pt x="400" y="400" on="0"/>
        <pt x="353" y="366" on="0"/>
      </contour>
      <contour>
        <pt x="250" y="385" on="1"/>
        <pt x="304" y="385" on="0"/>
        <pt x="373" y="449" on="0"/>
        <pt x="373" y="503" on="1"/>
        <pt x="373" y="552" on="0"/>
        <pt x="309" y="620" on="0"/>
        <pt x="249" y="620" on="1"/>
        <pt x="193" y="620" on="0"/>
        <pt x="126" y="555" on="0"/>
        <pt x="126" y="503" on="1"/>
        <pt x="126" y="451" on="0"/>
        <pt x="192" y="385" on="0"/>
      </contour>
      <contour>
        <pt x="250" y="39" on="1"/>
        <pt x="274" y="39" on="0"/>
        <pt x="319" y="56" on="0"/>
        <pt x="355" y="91" on="0"/>
        <pt x="376" y="145" on="0"/>
        <pt x="376" y="181" on="1"/>
        <pt x="376" y="220" on="0"/>
        <pt x="353" y="274" on="0"/>
        <pt x="316" y="308" on="0"/>
        <pt x="271" y="324" on="0"/>
        <pt x="249" y="324" on="1"/>
        <pt x="229" y="324" on="0"/>
        <pt x="184" y="309" on="0"/>
        <pt x="147" y="275" on="0"/>
        <pt x="123" y="220" on="0"/>
        <pt x="123" y="181" on="1"/>
        <pt x="123" y="146" on="0"/>
        <pt x="143" y="93" on="0"/>
        <pt x="178" y="57" on="0"/>
        <pt x="224" y="39" on="0"/>
      </contour>
    </TTGlyph>
    <TTGlyph name="emdash" xMin="0" yMin="244" xMax="999" yMax="305">
      <contour>
        <pt x="0" y="244" on="1"/>
        <pt x="0" y="305" on="1"/>
        <pt x="999" y="305" on="1"/>
        <pt x="999" y="244" on="1"/>
      </contour>
    </TTGlyph>
    <TTGlyph name="endash" xMin="0" yMin="244" xMax="499" yMax="305">
      <contour>
        <pt x="0" y="244" on="1"/>
        <pt x="0" y="305" on="1"/>
        <pt x="499" y="305" on="1"/>
        <pt x="499" y="244" on="1"/>
      </contour>
    </TTGlyph>
    <TTGlyph name="equal" xMin="56" yMin="130" xMax="721" yMax="370">
      <contour>
        <pt x="90" y="330" on="1"/>
        <pt x="79" y="330" on="0"/>
        <pt x="56" y="335" on="0"/>
        <pt x="56" y="350" on="1"/>
        <pt x="56" y="365" on="0"/>
        <pt x="78" y="370" on="0"/>
        <pt x="89" y="370" on="1"/>
        <pt x="688" y="370" on="1"/>
        <pt x="699" y="370" on="0"/>
        <pt x="721" y="365" on="0"/>
        <pt x="721" y="350" on="1"/>
        <pt x="721" y="335" on="0"/>
        <pt x="698" y="330" on="0"/>
        <pt x="687" y="330" on="1"/>
      </contour>
      <contour>
        <pt x="89" y="130" on="1"/>
        <pt x="78" y="130" on="0"/>
        <pt x="56" y="135" on="0"/>
        <pt x="56" y="150" on="1"/>
        <pt x="56" y="165" on="0"/>
        <pt x="79" y="170" on="0"/>
        <pt x="90" y="170" on="1"/>
        <pt x="687" y="170" on="1"/>
        <pt x="698" y="170" on="0"/>
        <pt x="721" y="165" on="0"/>
        <pt x="721" y="150" on="1"/>
        <pt x="721" y="135" on="0"/>
        <pt x="699" y="130" on="0"/>
        <pt x="688" y="130" on="1"/>
      </contour>
    </TTGlyph>
    <TTGlyph name="exclam" xMin="118" yMin="0" xMax="201" yMax="694">
      <contour>
        <pt x="193" y="218" on="1"/>
        <pt x="193" y="175" on="1"/>
        <pt x="126" y="175" on="1"/>
        <pt x="126" y="218" on="1"/>
        <pt x="118" y="694" on="1"/>
        <pt x="201" y="694" on="1"/>
      </contour>
      <contour>
        <pt x="201" y="0" on="1"/>
        <pt x="118" y="0" on="1"/>
        <pt x="118" y="83" on="1"/>
        <pt x="201" y="83" on="1"/>
      </contour>
    </TTGlyph>
    <TTGlyph name="exclamdown" xMin="118" yMin="-194" xMax="201" yMax="500">
      <contour>
        <pt x="201" y="417" on="1"/>
        <pt x="118" y="417" on="1"/>
        <pt x="118" y="500" on="1"/>
        <pt x="201" y="500" on="1"/>
      </contour>
      <contour>
        <pt x="201" y="-194" on="1"/>
        <pt x="118" y="-194" on="1"/>
        <pt x="126" y="282" on="1"/>
        <pt x="126" y="325" on="1"/>
        <pt x="193" y="325" on="1"/>
        <pt x="193" y="282" on="1"/>
      </contour>
    </TTGlyph>
    <TTGlyph name="f" xMin="27" yMin="0" xMax="347" yMax="705">
      <contour>
        <pt x="176" y="0" on="1"/>
        <pt x="101" y="0" on="1"/>
        <pt x="101" y="386" on="1"/>
        <pt x="27" y="386" on="1"/>
        <pt x="27" y="444" on="1"/>
        <pt x="101" y="444" on="1"/>
        <pt x="101" y="534" on="1"/>
        <pt x="101" y="572" on="0"/>
        <pt x="126" y="634" on="0"/>
        <pt x="171" y="680" on="0"/>
        <pt x="232" y="705" on="0"/>
        <pt x="267" y="705" on="1"/>
        <pt x="295" y="705" on="0"/>
        <pt x="338" y="696" on="0"/>
        <pt x="347" y="694" on="1"/>
        <pt x="347" y="627" on="1"/>
        <pt x="321" y="638" on="0"/>
        <pt x="281" y="644" on="0"/>
        <pt x="266" y="644" on="1"/>
        <pt x="256" y="644" on="0"/>
        <pt x="225" y="640" on="0"/>
        <pt x="195" y="623" on="0"/>
        <pt x="173" y="591" on="0"/>
        <pt x="173" y="563" on="1"/>
        <pt x="173" y="444" on="1"/>
        <pt x="286" y="444" on="1"/>
        <pt x="286" y="386" on="1"/>
        <pt x="176" y="386" on="1"/>
      </contour>
    </TTGlyph>
    <TTGlyph name="f_f" xMin="27" yMin="0" xMax="624" yMax="705">
      <contour>
        <pt x="176" y="0" on="1"/>
        <pt x="101" y="0" on="1"/>
        <pt x="101" y="386" on="1"/>
        <pt x="27" y="386" on="1"/>
        <pt x="27" y="444" on="1"/>
        <pt x="101" y="444" on="1"/>
        <pt x="101" y="534" on="1"/>
        <pt x="101" y="572" on="0"/>
        <pt x="126" y="634" on="0"/>
        <pt x="171" y="680" on="0"/>
        <pt x="232" y="705" on="0"/>
        <pt x="267" y="705" on="1"/>
        <pt x="295" y="705" on="0"/>
        <pt x="338" y="696" on="0"/>
        <pt x="347" y="694" on="1"/>
        <pt x="347" y="627" on="1"/>
        <pt x="321" y="638" on="0"/>
        <pt x="281" y="644" on="0"/>
        <pt x="266" y="644" on="1"/>
        <pt x="256" y="644" on="0"/>
        <pt x="225" y="640" on="0"/>
        <pt x="195" y="623" on="0"/>
        <pt x="173" y="591" on="0"/>
        <pt x="173" y="563" on="1"/>
        <pt x="173" y="444" on="1"/>
        <pt x="286" y="444" on="1"/>
        <pt x="286" y="386" on="1"/>
        <pt x="176" y="386" on="1"/>
      </contour>
      <contour>
        <pt x="453" y="0" on="1"/>
        <pt x="378" y="0" on="1"/>
        <pt x="378" y="534" on="1"/>
        <pt x="378" y="572" on="0"/>
        <pt x="403" y="634" on="0"/>
        <pt x="448" y="680" on="0"/>
        <pt x="509" y="705" on="0"/>
        <pt x="544" y="705" on="1"/>
        <pt x="572" y="705" on="0"/>
        <pt x="615" y="696" on="0"/>
        <pt x="624" y="694" on="1"/>
        <pt x="624" y="627" on="1"/>
        <pt x="598" y="638" on="0"/>
        <pt x="558" y="644" on="0"/>
        <pt x="543" y="644" on="1"/>
        <pt x="533" y="644" on="0"/>
        <pt x="502" y="640" on="0"/>
        <pt x="472" y="623" on="0"/>
        <pt x="450" y="591" on="0"/>
        <pt x="450" y="563" on="1"/>
        <pt x="450" y="444" on="1"/>
        <pt x="563" y="444" on="1"/>
        <pt x="563" y="386" on="1"/>
        <pt x="453" y="386" on="1"/>
      </contour>
    </TTGlyph>
    <TTGlyph name="f_f_i" xMin="27" yMin="0" xMax="735" yMax="705">
      <contour>
        <pt x="735" y="612" on="1"/>
        <pt x="652" y="612" on="1"/>
        <pt x="652" y="695" on="1"/>
        <pt x="735" y="695" on="1"/>
      </contour>
      <contour>
        <pt x="731" y="0" on="1"/>
        <pt x="656" y="0" on="1"/>
        <pt x="656" y="444" on="1"/>
        <pt x="731" y="444" on="1"/>
      </contour>
      <contour>
        <pt x="454" y="0" on="1"/>
        <pt x="379" y="0" on="1"/>
        <pt x="379" y="535" on="1"/>
        <pt x="379" y="573" on="0"/>
        <pt x="400" y="635" on="0"/>
        <pt x="436" y="680" on="0"/>
        <pt x="484" y="705" on="0"/>
        <pt x="512" y="705" on="1"/>
        <pt x="535" y="705" on="0"/>
        <pt x="556" y="701" on="0"/>
        <pt x="572" y="695" on="1"/>
        <pt x="572" y="627" on="1"/>
        <pt x="544" y="644" on="0"/>
        <pt x="512" y="644" on="1"/>
        <pt x="503" y="644" on="0"/>
        <pt x="481" y="637" on="0"/>
        <pt x="463" y="620" on="0"/>
        <pt x="451" y="589" on="0"/>
        <pt x="451" y="565" on="1"/>
        <pt x="451" y="444" on="1"/>
        <pt x="572" y="444" on="1"/>
        <pt x="572" y="386" on="1"/>
        <pt x="454" y="386" on="1"/>
      </contour>
      <contour>
        <pt x="176" y="0" on="1"/>
        <pt x="101" y="0" on="1"/>
        <pt x="101" y="386" on="1"/>
        <pt x="27" y="386" on="1"/>
        <pt x="27" y="444" on="1"/>
        <pt x="101" y="444" on="1"/>
        <pt x="101" y="534" on="1"/>
        <pt x="101" y="572" on="0"/>
        <pt x="124" y="635" on="0"/>
        <pt x="164" y="680" on="0"/>
        <pt x="219" y="705" on="0"/>
        <pt x="250" y="705" on="1"/>
        <pt x="286" y="705" on="0"/>
        <pt x="319" y="694" on="1"/>
        <pt x="319" y="627" on="1"/>
        <pt x="297" y="638" on="0"/>
        <pt x="261" y="644" on="0"/>
        <pt x="249" y="644" on="1"/>
        <pt x="240" y="644" on="0"/>
        <pt x="214" y="639" on="0"/>
        <pt x="190" y="622" on="0"/>
        <pt x="173" y="590" on="0"/>
        <pt x="173" y="564" on="1"/>
        <pt x="173" y="444" on="1"/>
        <pt x="294" y="444" on="1"/>
        <pt x="294" y="386" on="1"/>
        <pt x="176" y="386" on="1"/>
      </contour>
    </TTGlyph>
    <TTGlyph name="f_f_l" xMin="27" yMin="0" xMax="731" yMax="705">
      <contour>
        <pt x="176" y="0" on="1"/>
        <pt x="101" y="0" on="1"/>
        <pt x="101" y="386" on="1"/>
        <pt x="27" y="386" on="1"/>
        <pt x="27" y="444" on="1"/>
        <pt x="101" y="444" on="1"/>
        <pt x="101" y="534" on="1"/>
        <pt x="101" y="572" on="0"/>
        <pt x="124" y="635" on="0"/>
        <pt x="164" y="680" on="0"/>
        <pt x="219" y="705" on="0"/>
        <pt x="250" y="705" on="1"/>
        <pt x="286" y="705" on="0"/>
        <pt x="319" y="694" on="1"/>
        <pt x="319" y="627" on="1"/>
        <pt x="297" y="638" on="0"/>
        <pt x="261" y="644" on="0"/>
        <pt x="249" y="644" on="1"/>
        <pt x="240" y="644" on="0"/>
        <pt x="214" y="639" on="0"/>
        <pt x="190" y="622" on="0"/>
        <pt x="173" y="590" on="0"/>
        <pt x="173" y="564" on="1"/>
        <pt x="173" y="444" on="1"/>
        <pt x="294" y="444" on="1"/>
        <pt x="294" y="386" on="1"/>
        <pt x="176" y="386" on="1"/>
      </contour>
      <contour>
        <pt x="731" y="0" on="1"/>
        <pt x="656" y="0" on="1"/>
        <pt x="656" y="694" on="1"/>
        <pt x="731" y="694" on="1"/>
      </contour>
      <contour>
        <pt x="454" y="0" on="1"/>
        <pt x="379" y="0" on="1"/>
        <pt x="379" y="535" on="1"/>
        <pt x="379" y="573" on="0"/>
        <pt x="400" y="635" on="0"/>
        <pt x="436" y="680" on="0"/>
        <pt x="484" y="705" on="0"/>
        <pt x="512" y="705" on="1"/>
        <pt x="534" y="705" on="0"/>
        <pt x="567" y="696" on="0"/>
        <pt x="572" y="694" on="1"/>
        <pt x="572" y="627" on="1"/>
        <pt x="544" y="644" on="0"/>
        <pt x="512" y="644" on="1"/>
        <pt x="503" y="644" on="0"/>
        <pt x="481" y="637" on="0"/>
        <pt x="463" y="620" on="0"/>
        <pt x="451" y="589" on="0"/>
        <pt x="451" y="565" on="1"/>
        <pt x="451" y="444" on="1"/>
        <pt x="572" y="444" on="1"/>
        <pt x="572" y="386" on="1"/>
        <pt x="454" y="386" on="1"/>
      </contour>
    </TTGlyph>
    <TTGlyph name="fi" xMin="27" yMin="0" xMax="457" yMax="705">
      <contour>
        <pt x="457" y="612" on="1"/>
        <pt x="374" y="612" on="1"/>
        <pt x="374" y="695" on="1"/>
        <pt x="457" y="695" on="1"/>
      </contour>
      <contour>
        <pt x="453" y="0" on="1"/>
        <pt x="378" y="0" on="1"/>
        <pt x="378" y="444" on="1"/>
        <pt x="453" y="444" on="1"/>
      </contour>
      <contour>
        <pt x="176" y="0" on="1"/>
        <pt x="101" y="0" on="1"/>
        <pt x="101" y="386" on="1"/>
        <pt x="27" y="386" on="1"/>
        <pt x="27" y="444" on="1"/>
        <pt x="101" y="444" on="1"/>
        <pt x="101" y="535" on="1"/>
        <pt x="101" y="573" on="0"/>
        <pt x="122" y="635" on="0"/>
        <pt x="158" y="680" on="0"/>
        <pt x="206" y="705" on="0"/>
        <pt x="234" y="705" on="1"/>
        <pt x="256" y="705" on="0"/>
        <pt x="289" y="696" on="0"/>
        <pt x="294" y="694" on="1"/>
        <pt x="294" y="626" on="1"/>
        <pt x="281" y="634" on="0"/>
        <pt x="250" y="644" on="0"/>
        <pt x="234" y="644" on="1"/>
        <pt x="225" y="644" on="0"/>
        <pt x="203" y="637" on="0"/>
        <pt x="185" y="620" on="0"/>
        <pt x="173" y="589" on="0"/>
        <pt x="173" y="565" on="1"/>
        <pt x="173" y="444" on="1"/>
        <pt x="294" y="444" on="1"/>
        <pt x="294" y="386" on="1"/>
        <pt x="176" y="386" on="1"/>
      </contour>
    </TTGlyph>
    <TTGlyph name="five" xMin="39" yMin="-22" xMax="449" yMax="656">
      <contour>
        <pt x="153" y="386" on="1"/>
        <pt x="175" y="406" on="0"/>
        <pt x="230" y="427" on="0"/>
        <pt x="260" y="427" on="1"/>
        <pt x="299" y="427" on="0"/>
        <pt x="367" y="392" on="0"/>
        <pt x="419" y="332" on="0"/>
        <pt x="449" y="250" on="0"/>
        <pt x="449" y="203" on="1"/>
        <pt x="449" y="156" on="0"/>
        <pt x="414" y="74" on="0"/>
        <pt x="354" y="13" on="0"/>
        <pt x="275" y="-22" on="0"/>
        <pt x="230" y="-22" on="1"/>
        <pt x="169" y="-22" on="0"/>
        <pt x="70" y="33" on="0"/>
        <pt x="39" y="76" on="1"/>
        <pt x="72" y="132" on="1"/>
        <pt x="94" y="91" on="0"/>
        <pt x="178" y="39" on="0"/>
        <pt x="229" y="39" on="1"/>
        <pt x="232" y="39" on="0"/>
        <pt x="274" y="44" on="0"/>
        <pt x="322" y="75" on="0"/>
        <pt x="360" y="143" on="0"/>
        <pt x="360" y="205" on="1"/>
        <pt x="360" y="250" on="0"/>
        <pt x="342" y="312" on="0"/>
        <pt x="313" y="349" on="0"/>
        <pt x="277" y="366" on="0"/>
        <pt x="259" y="366" on="1"/>
        <pt x="215" y="366" on="0"/>
        <pt x="160" y="317" on="0"/>
        <pt x="147" y="287" on="1"/>
        <pt x="81" y="287" on="1"/>
        <pt x="81" y="656" on="1"/>
        <pt x="416" y="656" on="1"/>
        <pt x="416" y="592" on="1"/>
        <pt x="153" y="592" on="1"/>
      </contour>
    </TTGlyph>
    <TTGlyph name="fl" xMin="27" yMin="0" xMax="453" yMax="705">
      <contour>
        <pt x="176" y="0" on="1"/>
        <pt x="101" y="0" on="1"/>
        <pt x="101" y="386" on="1"/>
        <pt x="27" y="386" on="1"/>
        <pt x="27" y="444" on="1"/>
        <pt x="101" y="444" on="1"/>
        <pt x="101" y="535" on="1"/>
        <pt x="101" y="573" on="0"/>
        <pt x="122" y="635" on="0"/>
        <pt x="158" y="680" on="0"/>
        <pt x="206" y="705" on="0"/>
        <pt x="234" y="705" on="1"/>
        <pt x="256" y="705" on="0"/>
        <pt x="289" y="696" on="0"/>
        <pt x="294" y="694" on="1"/>
        <pt x="294" y="627" on="1"/>
        <pt x="266" y="644" on="0"/>
        <pt x="234" y="644" on="1"/>
        <pt x="225" y="644" on="0"/>
        <pt x="203" y="637" on="0"/>
        <pt x="185" y="620" on="0"/>
        <pt x="173" y="589" on="0"/>
        <pt x="173" y="565" on="1"/>
        <pt x="173" y="444" on="1"/>
        <pt x="294" y="444" on="1"/>
        <pt x="294" y="386" on="1"/>
        <pt x="176" y="386" on="1"/>
      </contour>
      <contour>
        <pt x="453" y="0" on="1"/>
        <pt x="378" y="0" on="1"/>
        <pt x="378" y="694" on="1"/>
        <pt x="453" y="694" on="1"/>
      </contour>
    </TTGlyph>
    <TTGlyph name="four" xMin="28" yMin="0" xMax="471" yMax="656">
      <contour>
        <pt x="372" y="0" on="1"/>
        <pt x="293" y="0" on="1"/>
        <pt x="293" y="171" on="1"/>
        <pt x="28" y="171" on="1"/>
        <pt x="28" y="232" on="1"/>
        <pt x="281" y="656" on="1"/>
        <pt x="372" y="656" on="1"/>
        <pt x="372" y="232" on="1"/>
        <pt x="471" y="232" on="1"/>
        <pt x="471" y="171" on="1"/>
        <pt x="372" y="171" on="1"/>
      </contour>
      <contour>
        <pt x="299" y="232" on="1"/>
        <pt x="299" y="612" on="1"/>
        <pt x="299" y="598" on="0"/>
        <pt x="278" y="542" on="0"/>
        <pt x="243" y="472" on="0"/>
        <pt x="201" y="394" on="0"/>
        <pt x="158" y="319" on="0"/>
        <pt x="119" y="253" on="0"/>
        <pt x="106" y="232" on="1"/>
      </contour>
    </TTGlyph>
    <TTGlyph name="g" xMin="28" yMin="-206" xMax="485" yMax="455">
      <contour>
        <pt x="348" y="392" on="1"/>
        <pt x="356" y="381" on="0"/>
        <pt x="381" y="328" on="0"/>
        <pt x="381" y="292" on="1"/>
        <pt x="381" y="259" on="0"/>
        <pt x="356" y="199" on="0"/>
        <pt x="313" y="155" on="0"/>
        <pt x="255" y="129" on="0"/>
        <pt x="221" y="129" on="1"/>
        <pt x="193" y="129" on="0"/>
        <pt x="146" y="147" on="0"/>
        <pt x="130" y="158" on="1"/>
        <pt x="125" y="151" on="0"/>
        <pt x="119" y="130" on="0"/>
        <pt x="119" y="122" on="1"/>
        <pt x="119" y="102" on="0"/>
        <pt x="133" y="81" on="0"/>
        <pt x="153" y="71" on="0"/>
        <pt x="172" y="69" on="0"/>
        <pt x="177" y="69" on="1"/>
        <pt x="265" y="69" on="1"/>
        <pt x="275" y="69" on="0"/>
        <pt x="313" y="68" on="0"/>
        <pt x="359" y="60" on="0"/>
        <pt x="407" y="43" on="0"/>
        <pt x="446" y="12" on="0"/>
        <pt x="471" y="-35" on="0"/>
        <pt x="471" y="-70" on="1"/>
        <pt x="471" y="-99" on="0"/>
        <pt x="436" y="-149" on="0"/>
        <pt x="376" y="-185" on="0"/>
        <pt x="295" y="-206" on="0"/>
        <pt x="249" y="-206" on="1"/>
        <pt x="203" y="-206" on="0"/>
        <pt x="123" y="-185" on="0"/>
        <pt x="63" y="-148" on="0"/>
        <pt x="28" y="-99" on="0"/>
        <pt x="28" y="-71" on="1"/>
        <pt x="28" y="-61" on="0"/>
        <pt x="33" y="-35" on="0"/>
        <pt x="48" y="-7" on="0"/>
        <pt x="73" y="20" on="0"/>
        <pt x="92" y="32" on="1"/>
        <pt x="79" y="48" on="0"/>
        <pt x="66" y="88" on="0"/>
        <pt x="66" y="108" on="1"/>
        <pt x="66" y="112" on="0"/>
        <pt x="73" y="162" on="0"/>
        <pt x="95" y="193" on="1"/>
        <pt x="80" y="213" on="0"/>
        <pt x="62" y="264" on="0"/>
        <pt x="62" y="292" on="1"/>
        <pt x="62" y="326" on="0"/>
        <pt x="88" y="386" on="0"/>
        <pt x="131" y="430" on="0"/>
        <pt x="189" y="455" on="0"/>
        <pt x="221" y="455" on="1"/>
        <pt x="251" y="455" on="0"/>
        <pt x="300" y="436" on="0"/>
        <pt x="316" y="423" on="1"/>
        <pt x="339" y="433" on="0"/>
        <pt x="421" y="455" on="0"/>
        <pt x="474" y="455" on="1"/>
        <pt x="485" y="392" on="1"/>
        <pt x="484" y="392" on="0"/>
        <pt x="471" y="393" on="0"/>
        <pt x="452" y="394" on="0"/>
        <pt x="433" y="395" on="0"/>
        <pt x="426" y="395" on="1"/>
        <pt x="408" y="395" on="0"/>
        <pt x="369" y="391" on="0"/>
        <pt x="352" y="391" on="1"/>
      </contour>
      <contour>
        <pt x="221" y="186" on="1"/>
        <pt x="237" y="186" on="0"/>
        <pt x="269" y="197" on="0"/>
        <pt x="295" y="222" on="0"/>
        <pt x="311" y="263" on="0"/>
        <pt x="311" y="292" on="1"/>
        <pt x="311" y="321" on="0"/>
        <pt x="295" y="362" on="0"/>
        <pt x="269" y="387" on="0"/>
        <pt x="237" y="398" on="0"/>
        <pt x="221" y="398" on="1"/>
        <pt x="207" y="398" on="0"/>
        <pt x="176" y="388" on="0"/>
        <pt x="149" y="364" on="0"/>
        <pt x="132" y="323" on="0"/>
        <pt x="132" y="292" on="1"/>
        <pt x="132" y="261" on="0"/>
        <pt x="149" y="220" on="0"/>
        <pt x="176" y="196" on="0"/>
        <pt x="207" y="186" on="0"/>
      </contour>
      <contour>
        <pt x="176" y="-3" on="1"/>
        <pt x="147" y="-3" on="0"/>
        <pt x="115" y="-23" on="0"/>
        <pt x="100" y="-48" on="0"/>
        <pt x="98" y="-70" on="0"/>
        <pt x="98" y="-71" on="1"/>
        <pt x="98" y="-89" on="0"/>
        <pt x="123" y="-117" on="0"/>
        <pt x="165" y="-138" on="0"/>
        <pt x="220" y="-149" on="0"/>
        <pt x="250" y="-149" on="1"/>
        <pt x="281" y="-149" on="0"/>
        <pt x="336" y="-137" on="0"/>
        <pt x="377" y="-117" on="0"/>
        <pt x="401" y="-89" on="0"/>
        <pt x="401" y="-72" on="1"/>
        <pt x="401" y="-46" on="0"/>
        <pt x="365" y="-18" on="0"/>
        <pt x="319" y="-5" on="0"/>
        <pt x="274" y="-3" on="0"/>
        <pt x="266" y="-3" on="1"/>
      </contour>
    </TTGlyph>
    <TTGlyph name="germandbls" xMin="82" yMin="-11" xMax="452" yMax="705">
      <contour>
        <pt x="328" y="411" on="1"/>
        <pt x="361" y="390" on="0"/>
        <pt x="408" y="335" on="0"/>
        <pt x="438" y="273" on="0"/>
        <pt x="452" y="209" on="0"/>
        <pt x="452" y="179" on="1"/>
        <pt x="452" y="138" on="0"/>
        <pt x="424" y="69" on="0"/>
        <pt x="376" y="18" on="0"/>
        <pt x="312" y="-11" on="0"/>
        <pt x="276" y="-11" on="1"/>
        <pt x="260" y="-11" on="0"/>
        <pt x="228" y="-6" on="0"/>
        <pt x="203" y="0" on="0"/>
        <pt x="187" y="7" on="0"/>
        <pt x="187" y="9" on="1"/>
        <pt x="187" y="9" on="0"/>
        <pt x="191" y="20" on="1"/>
        <pt x="208" y="65" on="1"/>
        <pt x="230" y="55" on="0"/>
        <pt x="267" y="50" on="0"/>
        <pt x="275" y="50" on="1"/>
        <pt x="317" y="50" on="0"/>
        <pt x="375" y="117" on="0"/>
        <pt x="375" y="179" on="1"/>
        <pt x="375" y="218" on="0"/>
        <pt x="353" y="291" on="0"/>
        <pt x="312" y="347" on="0"/>
        <pt x="252" y="382" on="0"/>
        <pt x="213" y="383" on="1"/>
        <pt x="213" y="444" on="1"/>
        <pt x="248" y="444" on="0"/>
        <pt x="298" y="465" on="0"/>
        <pt x="331" y="498" on="0"/>
        <pt x="347" y="539" on="0"/>
        <pt x="347" y="559" on="1"/>
        <pt x="347" y="595" on="0"/>
        <pt x="297" y="644" on="0"/>
        <pt x="252" y="644" on="1"/>
        <pt x="244" y="644" on="0"/>
        <pt x="212" y="639" on="0"/>
        <pt x="181" y="621" on="0"/>
        <pt x="157" y="584" on="0"/>
        <pt x="157" y="551" on="1"/>
        <pt x="157" y="0" on="1"/>
        <pt x="82" y="0" on="1"/>
        <pt x="82" y="552" on="1"/>
        <pt x="82" y="590" on="0"/>
        <pt x="113" y="648" on="0"/>
        <pt x="162" y="686" on="0"/>
        <pt x="223" y="705" on="0"/>
        <pt x="253" y="705" on="1"/>
        <pt x="288" y="705" on="0"/>
        <pt x="350" y="682" on="0"/>
        <pt x="397" y="643" on="0"/>
        <pt x="424" y="589" on="0"/>
        <pt x="424" y="558" on="1"/>
        <pt x="424" y="519" on="0"/>
        <pt x="378" y="439" on="0"/>
      </contour>
    </TTGlyph>
    <TTGlyph name="grave" xMin="83" yMin="527" xMax="294" yMax="694">
      <contour>
        <pt x="83" y="694" on="1"/>
        <pt x="161" y="694" on="1"/>
        <pt x="294" y="527" on="1"/>
        <pt x="233" y="527" on="1"/>
      </contour>
    </TTGlyph>
    <TTGlyph name="h" xMin="81" yMin="0" xMax="435" yMax="694">
      <contour>
        <pt x="435" y="0" on="1"/>
        <pt x="357" y="0" on="1"/>
        <pt x="357" y="291" on="1"/>
        <pt x="357" y="303" on="0"/>
        <pt x="354" y="338" on="0"/>
        <pt x="335" y="371" on="0"/>
        <pt x="296" y="394" on="0"/>
        <pt x="260" y="394" on="1"/>
        <pt x="232" y="394" on="0"/>
        <pt x="193" y="366" on="0"/>
        <pt x="169" y="323" on="0"/>
        <pt x="159" y="270" on="0"/>
        <pt x="159" y="245" on="1"/>
        <pt x="159" y="0" on="1"/>
        <pt x="81" y="0" on="1"/>
        <pt x="81" y="694" on="1"/>
        <pt x="156" y="694" on="1"/>
        <pt x="156" y="383" on="1"/>
        <pt x="180" y="414" on="0"/>
        <pt x="251" y="455" on="0"/>
        <pt x="298" y="455" on="1"/>
        <pt x="344" y="455" on="0"/>
        <pt x="398" y="425" on="0"/>
        <pt x="427" y="378" on="0"/>
        <pt x="435" y="323" on="0"/>
        <pt x="435" y="298" on="1"/>
      </contour>
    </TTGlyph>
    <TTGlyph name="hungarumlaut" xMin="108" yMin="527" xMax="416" yMax="694">
      <contour>
        <pt x="169" y="527" on="1"/>
        <pt x="108" y="527" on="1"/>
        <pt x="171" y="694" on="1"/>
        <pt x="249" y="694" on="1"/>
      </contour>
      <contour>
        <pt x="336" y="527" on="1"/>
        <pt x="275" y="527" on="1"/>
        <pt x="338" y="694" on="1"/>
        <pt x="416" y="694" on="1"/>
      </contour>
    </TTGlyph>
    <TTGlyph name="hyphen" xMin="11" yMin="193" xMax="276" yMax="251">
      <contour>
        <pt x="11" y="193" on="1"/>
        <pt x="11" y="251" on="1"/>
        <pt x="276" y="251" on="1"/>
        <pt x="276" y="193" on="1"/>
      </contour>
    </TTGlyph>
    <TTGlyph name="i" xMin="74" yMin="0" xMax="163" yMax="680">
      <contour>
        <pt x="163" y="591" on="1"/>
        <pt x="74" y="591" on="1"/>
        <pt x="74" y="680" on="1"/>
        <pt x="163" y="680" on="1"/>
      </contour>
      <contour>
        <pt x="156" y="0" on="1"/>
        <pt x="81" y="0" on="1"/>
        <pt x="81" y="444" on="1"/>
        <pt x="156" y="444" on="1"/>
      </contour>
    </TTGlyph>
    <TTGlyph name="j" xMin="-61" yMin="-205" xMax="184" yMax="680">
      <contour>
        <pt x="184" y="591" on="1"/>
        <pt x="95" y="591" on="1"/>
        <pt x="95" y="680" on="1"/>
        <pt x="184" y="680" on="1"/>
      </contour>
      <contour>
        <pt x="-46" y="-110" on="1"/>
        <pt x="-12" y="-141" on="0"/>
        <pt x="31" y="-141" on="1"/>
        <pt x="42" y="-141" on="0"/>
        <pt x="69" y="-136" on="0"/>
        <pt x="93" y="-121" on="0"/>
        <pt x="109" y="-92" on="0"/>
        <pt x="109" y="-68" on="1"/>
        <pt x="109" y="444" on="1"/>
        <pt x="184" y="444" on="1"/>
        <pt x="184" y="-59" on="1"/>
        <pt x="184" y="-94" on="0"/>
        <pt x="163" y="-149" on="0"/>
        <pt x="128" y="-186" on="0"/>
        <pt x="83" y="-205" on="0"/>
        <pt x="59" y="-205" on="1"/>
        <pt x="39" y="-205" on="0"/>
        <pt x="-25" y="-192" on="0"/>
        <pt x="-61" y="-171" on="1"/>
      </contour>
    </TTGlyph>
    <TTGlyph name="k" xMin="84" yMin="0" xMax="471" yMax="694">
      <contour>
        <pt x="471" y="0" on="1"/>
        <pt x="389" y="0" on="1"/>
        <pt x="233" y="224" on="1"/>
        <pt x="153" y="141" on="1"/>
        <pt x="153" y="0" on="1"/>
        <pt x="84" y="0" on="1"/>
        <pt x="84" y="694" on="1"/>
        <pt x="156" y="694" on="1"/>
        <pt x="156" y="236" on="1"/>
        <pt x="359" y="444" on="1"/>
        <pt x="449" y="444" on="1"/>
        <pt x="281" y="272" on="1"/>
      </contour>
    </TTGlyph>
    <TTGlyph name="l" xMin="81" yMin="0" xMax="156" yMax="694">
      <contour>
        <pt x="156" y="0" on="1"/>
        <pt x="81" y="0" on="1"/>
        <pt x="81" y="694" on="1"/>
        <pt x="156" y="694" on="1"/>
      </contour>
    </TTGlyph>
    <TTGlyph name="m" xMin="81" yMin="0" xMax="713" yMax="455">
      <contour>
        <pt x="713" y="0" on="1"/>
        <pt x="635" y="0" on="1"/>
        <pt x="635" y="291" on="1"/>
        <pt x="635" y="305" on="0"/>
        <pt x="631" y="341" on="0"/>
        <pt x="611" y="373" on="0"/>
        <pt x="572" y="394" on="0"/>
        <pt x="537" y="394" on="1"/>
        <pt x="509" y="394" on="0"/>
        <pt x="471" y="367" on="0"/>
        <pt x="447" y="323" on="0"/>
        <pt x="436" y="271" on="0"/>
        <pt x="436" y="245" on="1"/>
        <pt x="436" y="0" on="1"/>
        <pt x="358" y="0" on="1"/>
        <pt x="358" y="291" on="1"/>
        <pt x="358" y="305" on="0"/>
        <pt x="354" y="341" on="0"/>
        <pt x="334" y="373" on="0"/>
        <pt x="295" y="394" on="0"/>
        <pt x="260" y="394" on="1"/>
        <pt x="232" y="394" on="0"/>
        <pt x="194" y="367" on="0"/>
        <pt x="170" y="323" on="0"/>
        <pt x="159" y="271" on="0"/>
        <pt x="159" y="245" on="1"/>
        <pt x="159" y="0" on="1"/>
        <pt x="81" y="0" on="1"/>
        <pt x="81" y="450" on="1"/>
        <pt x="153" y="450" on="1"/>
        <pt x="153" y="378" on="1"/>
        <pt x="163" y="392" on="0"/>
        <pt x="191" y="419" on="0"/>
        <pt x="227" y="441" on="0"/>
        <pt x="272" y="455" on="0"/>
        <pt x="299" y="455" on="1"/>
        <pt x="311" y="455" on="0"/>
        <pt x="347" y="451" on="0"/>
        <pt x="384" y="434" on="0"/>
        <pt x="417" y="402" on="0"/>
        <pt x="427" y="373" on="1"/>
        <pt x="455" y="414" on="0"/>
        <pt x="531" y="455" on="0"/>
        <pt x="576" y="455" on="1"/>
        <pt x="621" y="455" on="0"/>
        <pt x="676" y="425" on="0"/>
        <pt x="704" y="378" on="0"/>
        <pt x="713" y="323" on="0"/>
        <pt x="713" y="298" on="1"/>
      </contour>
    </TTGlyph>
    <TTGlyph name="macron" xMin="69" yMin="567" xMax="430" yMax="631">
      <contour>
        <pt x="69" y="567" on="1"/>
        <pt x="69" y="631" on="1"/>
        <pt x="430" y="631" on="1"/>
        <pt x="430" y="567" on="1"/>
      </contour>
    </TTGlyph>
    <TTGlyph name="n" xMin="81" yMin="0" xMax="435" yMax="455">
      <contour>
        <pt x="435" y="0" on="1"/>
        <pt x="357" y="0" on="1"/>
        <pt x="357" y="291" on="1"/>
        <pt x="357" y="303" on="0"/>
        <pt x="354" y="338" on="0"/>
        <pt x="335" y="371" on="0"/>
        <pt x="296" y="394" on="0"/>
        <pt x="260" y="394" on="1"/>
        <pt x="232" y="394" on="0"/>
        <pt x="193" y="366" on="0"/>
        <pt x="169" y="323" on="0"/>
        <pt x="159" y="270" on="0"/>
        <pt x="159" y="245" on="1"/>
        <pt x="159" y="0" on="1"/>
        <pt x="81" y="0" on="1"/>
        <pt x="81" y="450" on="1"/>
        <pt x="153" y="450" on="1"/>
        <pt x="153" y="379" on="1"/>
        <pt x="155" y="382" on="0"/>
        <pt x="176" y="407" on="0"/>
        <pt x="212" y="434" on="0"/>
        <pt x="264" y="455" on="0"/>
        <pt x="298" y="455" on="1"/>
        <pt x="344" y="455" on="0"/>
        <pt x="398" y="425" on="0"/>
        <pt x="427" y="378" on="0"/>
        <pt x="435" y="323" on="0"/>
        <pt x="435" y="298" on="1"/>
      </contour>
    </TTGlyph>
    <TTGlyph name="nine" xMin="42" yMin="-22" xMax="457" yMax="678">
      <contour>
        <pt x="103" y="77" on="1"/>
        <pt x="130" y="54" on="0"/>
        <pt x="180" y="39" on="0"/>
        <pt x="206" y="39" on="1"/>
        <pt x="236" y="39" on="0"/>
        <pt x="292" y="68" on="0"/>
        <pt x="338" y="127" on="0"/>
        <pt x="369" y="217" on="0"/>
        <pt x="373" y="277" on="1"/>
        <pt x="341" y="236" on="0"/>
        <pt x="251" y="194" on="0"/>
        <pt x="204" y="194" on="1"/>
        <pt x="168" y="194" on="0"/>
        <pt x="108" y="233" on="0"/>
        <pt x="66" y="299" on="0"/>
        <pt x="42" y="386" on="0"/>
        <pt x="42" y="434" on="1"/>
        <pt x="42" y="450" on="0"/>
        <pt x="45" y="490" on="0"/>
        <pt x="57" y="536" on="0"/>
        <pt x="83" y="586" on="0"/>
        <pt x="107" y="611" on="1"/>
        <pt x="133" y="639" on="0"/>
        <pt x="200" y="678" on="0"/>
        <pt x="253" y="678" on="1"/>
        <pt x="285" y="678" on="0"/>
        <pt x="357" y="650" on="0"/>
        <pt x="417" y="573" on="0"/>
        <pt x="457" y="440" on="0"/>
        <pt x="457" y="335" on="1"/>
        <pt x="457" y="253" on="0"/>
        <pt x="415" y="121" on="0"/>
        <pt x="345" y="28" on="0"/>
        <pt x="254" y="-22" on="0"/>
        <pt x="205" y="-22" on="1"/>
        <pt x="158" y="-22" on="0"/>
        <pt x="98" y="5" on="0"/>
        <pt x="72" y="24" on="1"/>
      </contour>
      <contour>
        <pt x="370" y="435" on="1"/>
        <pt x="369" y="453" on="0"/>
        <pt x="360" y="516" on="0"/>
        <pt x="335" y="576" on="0"/>
        <pt x="290" y="620" on="0"/>
        <pt x="253" y="620" on="1"/>
        <pt x="214" y="620" on="0"/>
        <pt x="168" y="585" on="0"/>
        <pt x="153" y="563" on="1"/>
        <pt x="132" y="530" on="0"/>
        <pt x="124" y="467" on="0"/>
        <pt x="124" y="434" on="1"/>
        <pt x="124" y="402" on="0"/>
        <pt x="130" y="344" on="0"/>
        <pt x="147" y="315" on="1"/>
        <pt x="163" y="287" on="0"/>
        <pt x="208" y="255" on="0"/>
        <pt x="243" y="255" on="1"/>
        <pt x="273" y="255" on="0"/>
        <pt x="320" y="281" on="0"/>
        <pt x="353" y="324" on="0"/>
        <pt x="371" y="380" on="0"/>
        <pt x="371" y="411" on="1"/>
        <pt x="371" y="416" on="0"/>
        <pt x="371" y="430" on="0"/>
      </contour>
    </TTGlyph>
    <TTGlyph name="numbersign" xMin="56" yMin="-194" xMax="776" yMax="694">
      <contour>
        <pt x="438" y="-170" on="1"/>
        <pt x="436" y="-178" on="0"/>
        <pt x="428" y="-194" on="0"/>
        <pt x="416" y="-194" on="1"/>
        <pt x="408" y="-194" on="0"/>
        <pt x="396" y="-182" on="0"/>
        <pt x="396" y="-174" on="1"/>
        <pt x="396" y="-171" on="0"/>
        <pt x="399" y="-158" on="0"/>
        <pt x="400" y="-156" on="1"/>
        <pt x="477" y="130" on="1"/>
        <pt x="289" y="130" on="1"/>
        <pt x="209" y="-170" on="1"/>
        <pt x="207" y="-178" on="0"/>
        <pt x="199" y="-194" on="0"/>
        <pt x="187" y="-194" on="1"/>
        <pt x="179" y="-194" on="0"/>
        <pt x="167" y="-182" on="0"/>
        <pt x="167" y="-174" on="1"/>
        <pt x="167" y="-171" on="0"/>
        <pt x="170" y="-158" on="0"/>
        <pt x="171" y="-156" on="1"/>
        <pt x="248" y="130" on="1"/>
        <pt x="89" y="130" on="1"/>
        <pt x="78" y="130" on="0"/>
        <pt x="56" y="135" on="0"/>
        <pt x="56" y="150" on="1"/>
        <pt x="56" y="165" on="0"/>
        <pt x="79" y="170" on="0"/>
        <pt x="90" y="170" on="1"/>
        <pt x="260" y="170" on="1"/>
        <pt x="302" y="330" on="1"/>
        <pt x="90" y="330" on="1"/>
        <pt x="79" y="330" on="0"/>
        <pt x="56" y="335" on="0"/>
        <pt x="56" y="350" on="1"/>
        <pt x="56" y="365" on="0"/>
        <pt x="78" y="370" on="0"/>
        <pt x="89" y="370" on="1"/>
        <pt x="314" y="370" on="1"/>
        <pt x="394" y="670" on="1"/>
        <pt x="396" y="678" on="0"/>
        <pt x="404" y="694" on="0"/>
        <pt x="416" y="694" on="1"/>
        <pt x="424" y="694" on="0"/>
        <pt x="436" y="682" on="0"/>
        <pt x="436" y="674" on="1"/>
        <pt x="436" y="671" on="0"/>
        <pt x="433" y="658" on="0"/>
        <pt x="432" y="656" on="1"/>
        <pt x="355" y="370" on="1"/>
        <pt x="543" y="370" on="1"/>
        <pt x="623" y="670" on="1"/>
        <pt x="625" y="678" on="0"/>
        <pt x="633" y="694" on="0"/>
        <pt x="645" y="694" on="1"/>
        <pt x="653" y="694" on="0"/>
        <pt x="665" y="682" on="0"/>
        <pt x="665" y="674" on="1"/>
        <pt x="665" y="671" on="0"/>
        <pt x="662" y="658" on="0"/>
        <pt x="661" y="656" on="1"/>
        <pt x="584" y="370" on="1"/>
        <pt x="743" y="370" on="1"/>
        <pt x="754" y="370" on="0"/>
        <pt x="776" y="365" on="0"/>
        <pt x="776" y="350" on="1"/>
        <pt x="776" y="335" on="0"/>
        <pt x="753" y="330" on="0"/>
        <pt x="742" y="330" on="1"/>
        <pt x="572" y="330" on="1"/>
        <pt x="530" y="170" on="1"/>
        <pt x="742" y="170" on="1"/>
        <pt x="753" y="170" on="0"/>
        <pt x="776" y="165" on="0"/>
        <pt x="776" y="150" on="1"/>
        <pt x="776" y="135" on="0"/>
        <pt x="754" y="130" on="0"/>
        <pt x="743" y="130" on="1"/>
        <pt x="518" y="130" on="1"/>
      </contour>
      <contour>
        <pt x="489" y="170" on="1"/>
        <pt x="531" y="330" on="1"/>
        <pt x="343" y="330" on="1"/>
        <pt x="301" y="170" on="1"/>
      </contour>
    </TTGlyph>
    <TTGlyph name="o" xMin="30" yMin="-11" xMax="469" yMax="461">
      <contour>
        <pt x="469" y="220" on="1"/>
        <pt x="469" y="171" on="0"/>
        <pt x="434" y="87" on="0"/>
        <pt x="374" y="25" on="0"/>
        <pt x="294" y="-11" on="0"/>
        <pt x="249" y="-11" on="1"/>
        <pt x="205" y="-11" on="0"/>
        <pt x="126" y="24" on="0"/>
        <pt x="66" y="86" on="0"/>
        <pt x="30" y="171" on="0"/>
        <pt x="30" y="220" on="1"/>
        <pt x="30" y="269" on="0"/>
        <pt x="64" y="357" on="0"/>
        <pt x="124" y="423" on="0"/>
        <pt x="204" y="461" on="0"/>
        <pt x="250" y="461" on="1"/>
        <pt x="295" y="461" on="0"/>
        <pt x="374" y="423" on="0"/>
        <pt x="434" y="358" on="0"/>
        <pt x="469" y="270" on="0"/>
      </contour>
      <contour>
        <pt x="249" y="53" on="1"/>
        <pt x="277" y="53" on="0"/>
        <pt x="328" y="75" on="0"/>
        <pt x="367" y="119" on="0"/>
        <pt x="391" y="186" on="0"/>
        <pt x="391" y="230" on="1"/>
        <pt x="391" y="274" on="0"/>
        <pt x="366" y="338" on="0"/>
        <pt x="326" y="380" on="0"/>
        <pt x="275" y="400" on="0"/>
        <pt x="249" y="400" on="1"/>
        <pt x="225" y="400" on="0"/>
        <pt x="174" y="381" on="0"/>
        <pt x="134" y="340" on="0"/>
        <pt x="108" y="275" on="0"/>
        <pt x="108" y="230" on="1"/>
        <pt x="108" y="185" on="0"/>
        <pt x="133" y="118" on="0"/>
        <pt x="173" y="74" on="0"/>
        <pt x="223" y="53" on="0"/>
      </contour>
    </TTGlyph>
    <TTGlyph name="oe" xMin="30" yMin="-11" xMax="749" yMax="461">
      <contour>
        <pt x="455" y="219" on="1"/>
        <pt x="457" y="180" on="0"/>
        <pt x="482" y="117" on="0"/>
        <pt x="521" y="74" on="0"/>
        <pt x="572" y="50" on="0"/>
        <pt x="600" y="50" on="1"/>
        <pt x="629" y="50" on="0"/>
        <pt x="703" y="74" on="0"/>
        <pt x="738" y="106" on="1"/>
        <pt x="744" y="41" on="1"/>
        <pt x="723" y="24" on="0"/>
        <pt x="649" y="-11" on="0"/>
        <pt x="598" y="-11" on="1"/>
        <pt x="540" y="-11" on="0"/>
        <pt x="445" y="46" on="0"/>
        <pt x="417" y="90" on="1"/>
        <pt x="394" y="56" on="0"/>
        <pt x="344" y="16" on="0"/>
        <pt x="297" y="-5" on="0"/>
        <pt x="256" y="-11" on="0"/>
        <pt x="241" y="-11" on="1"/>
        <pt x="198" y="-11" on="0"/>
        <pt x="122" y="25" on="0"/>
        <pt x="64" y="89" on="0"/>
        <pt x="30" y="175" on="0"/>
        <pt x="30" y="225" on="1"/>
        <pt x="30" y="275" on="0"/>
        <pt x="64" y="361" on="0"/>
        <pt x="122" y="424" on="0"/>
        <pt x="198" y="461" on="0"/>
        <pt x="241" y="461" on="1"/>
        <pt x="251" y="461" on="0"/>
        <pt x="290" y="457" on="0"/>
        <pt x="338" y="437" on="0"/>
        <pt x="391" y="398" on="0"/>
        <pt x="415" y="362" on="1"/>
        <pt x="426" y="380" on="0"/>
        <pt x="460" y="415" on="0"/>
        <pt x="503" y="444" on="0"/>
        <pt x="554" y="461" on="0"/>
        <pt x="583" y="461" on="1"/>
        <pt x="637" y="461" on="0"/>
        <pt x="702" y="410" on="0"/>
        <pt x="738" y="335" on="0"/>
        <pt x="749" y="252" on="0"/>
        <pt x="749" y="219" on="1"/>
      </contour>
      <contour>
        <pt x="690" y="274" on="1"/>
        <pt x="681" y="340" on="0"/>
        <pt x="622" y="400" on="0"/>
        <pt x="583" y="400" on="1"/>
        <pt x="562" y="400" on="0"/>
        <pt x="522" y="381" on="0"/>
        <pt x="489" y="347" on="0"/>
        <pt x="466" y="301" on="0"/>
        <pt x="460" y="274" on="1"/>
      </contour>
      <contour>
        <pt x="241" y="50" on="1"/>
        <pt x="267" y="50" on="0"/>
        <pt x="315" y="72" on="0"/>
        <pt x="354" y="116" on="0"/>
        <pt x="377" y="184" on="0"/>
        <pt x="377" y="230" on="1"/>
        <pt x="377" y="275" on="0"/>
        <pt x="353" y="340" on="0"/>
        <pt x="314" y="381" on="0"/>
        <pt x="265" y="400" on="0"/>
        <pt x="241" y="400" on="1"/>
        <pt x="215" y="400" on="0"/>
        <pt x="165" y="379" on="0"/>
        <pt x="126" y="337" on="0"/>
        <pt x="102" y="273" on="0"/>
        <pt x="102" y="230" on="1"/>
        <pt x="102" y="185" on="0"/>
        <pt x="125" y="118" on="0"/>
        <pt x="164" y="73" on="0"/>
        <pt x="214" y="50" on="0"/>
      </contour>
    </TTGlyph>
    <TTGlyph name="one" xMin="89" yMin="0" xMax="424" yMax="678">
      <contour>
        <pt x="299" y="58" on="1"/>
        <pt x="424" y="58" on="1"/>
        <pt x="424" y="0" on="1"/>
        <pt x="95" y="0" on="1"/>
        <pt x="95" y="58" on="1"/>
        <pt x="220" y="58" on="1"/>
        <pt x="220" y="578" on="1"/>
        <pt x="182" y="562" on="0"/>
        <pt x="114" y="555" on="0"/>
        <pt x="89" y="554" on="1"/>
        <pt x="89" y="612" on="1"/>
        <pt x="107" y="613" on="0"/>
        <pt x="154" y="616" on="0"/>
        <pt x="205" y="629" on="0"/>
        <pt x="257" y="655" on="0"/>
        <pt x="279" y="678" on="1"/>
        <pt x="299" y="678" on="1"/>
      </contour>
    </TTGlyph>
    <TTGlyph name="oslash" xMin="32" yMin="-112" xMax="467" yMax="557">
      <contour>
        <pt x="388" y="406" on="1"/>
        <pt x="423" y="374" on="0"/>
        <pt x="467" y="277" on="0"/>
        <pt x="467" y="220" on="1"/>
        <pt x="467" y="171" on="0"/>
        <pt x="432" y="86" on="0"/>
        <pt x="372" y="24" on="0"/>
        <pt x="293" y="-11" on="0"/>
        <pt x="249" y="-11" on="1"/>
        <pt x="230" y="-11" on="0"/>
        <pt x="186" y="-3" on="0"/>
        <pt x="163" y="8" on="1"/>
        <pt x="96" y="-112" on="1"/>
        <pt x="43" y="-82" on="1"/>
        <pt x="112" y="41" on="1"/>
        <pt x="103" y="50" on="0"/>
        <pt x="75" y="80" on="0"/>
        <pt x="50" y="123" on="0"/>
        <pt x="32" y="182" on="0"/>
        <pt x="32" y="220" on="1"/>
        <pt x="32" y="270" on="0"/>
        <pt x="66" y="357" on="0"/>
        <pt x="125" y="423" on="0"/>
        <pt x="205" y="461" on="0"/>
        <pt x="250" y="461" on="1"/>
        <pt x="273" y="461" on="0"/>
        <pt x="320" y="449" on="0"/>
        <pt x="338" y="441" on="1"/>
        <pt x="403" y="557" on="1"/>
        <pt x="456" y="527" on="1"/>
      </contour>
      <contour>
        <pt x="307" y="387" on="1"/>
        <pt x="281" y="400" on="0"/>
        <pt x="250" y="400" on="1"/>
        <pt x="222" y="400" on="0"/>
        <pt x="170" y="377" on="0"/>
        <pt x="131" y="332" on="0"/>
        <pt x="107" y="264" on="0"/>
        <pt x="107" y="220" on="1"/>
        <pt x="107" y="212" on="0"/>
        <pt x="108" y="185" on="0"/>
        <pt x="116" y="152" on="0"/>
        <pt x="131" y="116" on="0"/>
        <pt x="144" y="99" on="1"/>
      </contour>
      <contour>
        <pt x="194" y="61" on="1"/>
        <pt x="207" y="55" on="0"/>
        <pt x="235" y="50" on="0"/>
        <pt x="249" y="50" on="1"/>
        <pt x="276" y="50" on="0"/>
        <pt x="328" y="71" on="0"/>
        <pt x="368" y="113" on="0"/>
        <pt x="392" y="177" on="0"/>
        <pt x="392" y="220" on="1"/>
        <pt x="392" y="268" on="0"/>
        <pt x="367" y="331" on="0"/>
        <pt x="355" y="347" on="1"/>
      </contour>
    </TTGlyph>
    <TTGlyph name="p" xMin="82" yMin="-194" xMax="480" yMax="455">
      <contour>
        <pt x="160" y="-194" on="1"/>
        <pt x="82" y="-194" on="1"/>
        <pt x="82" y="444" on="1"/>
        <pt x="157" y="444" on="1"/>
        <pt x="157" y="395" on="1"/>
        <pt x="192" y="424" on="0"/>
        <pt x="276" y="455" on="0"/>
        <pt x="321" y="455" on="1"/>
        <pt x="357" y="455" on="0"/>
        <pt x="416" y="416" on="0"/>
        <pt x="457" y="352" on="0"/>
        <pt x="480" y="268" on="0"/>
        <pt x="480" y="223" on="1"/>
        <pt x="480" y="172" on="0"/>
        <pt x="449" y="86" on="0"/>
        <pt x="398" y="24" on="0"/>
        <pt x="331" y="-11" on="0"/>
        <pt x="295" y="-11" on="1"/>
        <pt x="250" y="-11" on="0"/>
        <pt x="183" y="24" on="0"/>
        <pt x="160" y="46" on="1"/>
      </contour>
      <contour>
        <pt x="160" y="132" on="1"/>
        <pt x="160" y="118" on="0"/>
        <pt x="162" y="108" on="0"/>
        <pt x="170" y="97" on="1"/>
        <pt x="185" y="77" on="0"/>
        <pt x="227" y="50" on="0"/>
        <pt x="256" y="50" on="1"/>
        <pt x="284" y="50" on="0"/>
        <pt x="337" y="75" on="0"/>
        <pt x="377" y="121" on="0"/>
        <pt x="402" y="184" on="0"/>
        <pt x="402" y="223" on="1"/>
        <pt x="402" y="258" on="0"/>
        <pt x="381" y="319" on="0"/>
        <pt x="344" y="364" on="0"/>
        <pt x="295" y="391" on="0"/>
        <pt x="266" y="391" on="1"/>
        <pt x="234" y="391" on="0"/>
        <pt x="178" y="359" on="0"/>
        <pt x="160" y="333" on="1"/>
      </contour>
    </TTGlyph>
    <TTGlyph name="parenleft" xMin="79" yMin="-250" xMax="332" yMax="750">
      <contour>
        <pt x="332" y="750" on="1"/>
        <pt x="281" y="699" on="0"/>
        <pt x="214" y="583" on="0"/>
        <pt x="174" y="455" on="0"/>
        <pt x="157" y="320" on="0"/>
        <pt x="157" y="250" on="1"/>
        <pt x="157" y="129" on="0"/>
        <pt x="198" y="-44" on="0"/>
        <pt x="255" y="-162" on="0"/>
        <pt x="314" y="-232" on="0"/>
        <pt x="332" y="-250" on="1"/>
        <pt x="271" y="-250" on="1"/>
        <pt x="259" y="-239" on="0"/>
        <pt x="221" y="-201" on="0"/>
        <pt x="179" y="-144" on="0"/>
        <pt x="135" y="-65" on="0"/>
        <pt x="101" y="38" on="0"/>
        <pt x="79" y="169" on="0"/>
        <pt x="79" y="250" on="1"/>
        <pt x="79" y="305" on="0"/>
        <pt x="96" y="455" on="0"/>
        <pt x="126" y="536" on="1"/>
        <pt x="143" y="582" on="0"/>
        <pt x="184" y="652" on="0"/>
        <pt x="224" y="704" on="0"/>
        <pt x="259" y="739" on="0"/>
        <pt x="271" y="750" on="1"/>
      </contour>
    </TTGlyph>
    <TTGlyph name="parenright" xMin="56" yMin="-250" xMax="309" yMax="750">
      <contour>
        <pt x="56" y="-250" on="1"/>
        <pt x="107" y="-199" on="0"/>
        <pt x="174" y="-83" on="0"/>
        <pt x="214" y="45" on="0"/>
        <pt x="231" y="180" on="0"/>
        <pt x="231" y="250" on="1"/>
        <pt x="231" y="371" on="0"/>
        <pt x="190" y="544" on="0"/>
        <pt x="133" y="662" on="0"/>
        <pt x="74" y="732" on="0"/>
        <pt x="56" y="750" on="1"/>
        <pt x="117" y="750" on="1"/>
        <pt x="129" y="739" on="0"/>
        <pt x="167" y="701" on="0"/>
        <pt x="209" y="644" on="0"/>
        <pt x="253" y="565" on="0"/>
        <pt x="287" y="462" on="0"/>
        <pt x="309" y="331" on="0"/>
        <pt x="309" y="250" on="1"/>
        <pt x="309" y="195" on="0"/>
        <pt x="292" y="45" on="0"/>
        <pt x="262" y="-36" on="1"/>
        <pt x="245" y="-82" on="0"/>
        <pt x="204" y="-152" on="0"/>
        <pt x="164" y="-204" on="0"/>
        <pt x="129" y="-239" on="0"/>
        <pt x="117" y="-250" on="1"/>
      </contour>
    </TTGlyph>
    <TTGlyph name="percent" xMin="56" yMin="-56" xMax="776" yMax="750">
      <contour>
        <pt x="217" y="-40" on="1"/>
        <pt x="213" y="-47" on="0"/>
        <pt x="204" y="-56" on="0"/>
        <pt x="196" y="-56" on="1"/>
        <pt x="188" y="-56" on="0"/>
        <pt x="176" y="-44" on="0"/>
        <pt x="176" y="-36" on="1"/>
        <pt x="176" y="-31" on="0"/>
        <pt x="183" y="-19" on="0"/>
        <pt x="183" y="-18" on="1"/>
        <pt x="618" y="734" on="1"/>
        <pt x="621" y="739" on="0"/>
        <pt x="630" y="750" on="0"/>
        <pt x="639" y="750" on="1"/>
        <pt x="647" y="750" on="0"/>
        <pt x="659" y="738" on="0"/>
        <pt x="659" y="730" on="1"/>
        <pt x="659" y="727" on="0"/>
        <pt x="657" y="721" on="0"/>
        <pt x="651" y="712" on="1"/>
      </contour>
      <contour>
        <pt x="776" y="145" on="1"/>
        <pt x="776" y="102" on="0"/>
        <pt x="753" y="28" on="0"/>
        <pt x="715" y="-26" on="0"/>
        <pt x="666" y="-56" on="0"/>
        <pt x="639" y="-56" on="1"/>
        <pt x="612" y="-56" on="0"/>
        <pt x="562" y="-27" on="0"/>
        <pt x="523" y="27" on="0"/>
        <pt x="499" y="101" on="0"/>
        <pt x="499" y="146" on="1"/>
        <pt x="499" y="190" on="0"/>
        <pt x="522" y="264" on="0"/>
        <pt x="561" y="317" on="0"/>
        <pt x="612" y="347" on="0"/>
        <pt x="639" y="347" on="1"/>
        <pt x="665" y="347" on="0"/>
        <pt x="715" y="318" on="0"/>
        <pt x="753" y="264" on="0"/>
        <pt x="776" y="190" on="0"/>
      </contour>
      <contour>
        <pt x="639" y="5" on="1"/>
        <pt x="654" y="5" on="0"/>
        <pt x="679" y="27" on="0"/>
        <pt x="697" y="66" on="0"/>
        <pt x="707" y="117" on="0"/>
        <pt x="707" y="146" on="1"/>
        <pt x="707" y="173" on="0"/>
        <pt x="697" y="224" on="0"/>
        <pt x="679" y="263" on="0"/>
        <pt x="654" y="286" on="0"/>
        <pt x="639" y="286" on="1"/>
        <pt x="634" y="286" on="0"/>
        <pt x="612" y="279" on="0"/>
        <pt x="590" y="251" on="0"/>
        <pt x="574" y="195" on="0"/>
        <pt x="574" y="145" on="1"/>
        <pt x="574" y="94" on="0"/>
        <pt x="591" y="37" on="0"/>
        <pt x="614" y="10" on="0"/>
        <pt x="635" y="5" on="0"/>
      </contour>
      <contour>
        <pt x="333" y="548" on="1"/>
        <pt x="333" y="505" on="0"/>
        <pt x="310" y="431" on="0"/>
        <pt x="272" y="377" on="0"/>
        <pt x="223" y="347" on="0"/>
        <pt x="196" y="347" on="1"/>
        <pt x="169" y="347" on="0"/>
        <pt x="119" y="376" on="0"/>
        <pt x="80" y="430" on="0"/>
        <pt x="56" y="504" on="0"/>
        <pt x="56" y="549" on="1"/>
        <pt x="56" y="593" on="0"/>
        <pt x="79" y="667" on="0"/>
        <pt x="118" y="720" on="0"/>
        <pt x="169" y="750" on="0"/>
        <pt x="196" y="750" on="1"/>
        <pt x="222" y="750" on="0"/>
        <pt x="272" y="721" on="0"/>
        <pt x="310" y="667" on="0"/>
        <pt x="333" y="593" on="0"/>
      </contour>
      <contour>
        <pt x="196" y="408" on="1"/>
        <pt x="211" y="408" on="0"/>
        <pt x="236" y="430" on="0"/>
        <pt x="254" y="469" on="0"/>
        <pt x="264" y="520" on="0"/>
        <pt x="264" y="549" on="1"/>
        <pt x="264" y="576" on="0"/>
        <pt x="254" y="627" on="0"/>
        <pt x="236" y="666" on="0"/>
        <pt x="211" y="689" on="0"/>
        <pt x="196" y="689" on="1"/>
        <pt x="191" y="689" on="0"/>
        <pt x="169" y="682" on="0"/>
        <pt x="147" y="654" on="0"/>
        <pt x="131" y="598" on="0"/>
        <pt x="131" y="548" on="1"/>
        <pt x="131" y="497" on="0"/>
        <pt x="148" y="440" on="0"/>
        <pt x="171" y="413" on="0"/>
        <pt x="192" y="408" on="0"/>
      </contour>
    </TTGlyph>
    <TTGlyph name="period" xMin="97" yMin="0" xMax="180" yMax="83">
      <contour>
        <pt x="180" y="0" on="1"/>
        <pt x="97" y="0" on="1"/>
        <pt x="97" y="83" on="1"/>
        <pt x="180" y="83" on="1"/>
      </contour>
    </TTGlyph>
    <TTGlyph name="plus" xMin="56" yMin="-83" xMax="721" yMax="583">
      <contour>
        <pt x="409" y="-50" on="1"/>
        <pt x="409" y="-61" on="0"/>
        <pt x="404" y="-83" on="0"/>
        <pt x="389" y="-83" on="1"/>
        <pt x="374" y="-83" on="0"/>
        <pt x="369" y="-61" on="0"/>
        <pt x="369" y="-50" on="1"/>
        <pt x="369" y="230" on="1"/>
        <pt x="89" y="230" on="1"/>
        <pt x="78" y="230" on="0"/>
        <pt x="56" y="235" on="0"/>
        <pt x="56" y="250" on="1"/>
        <pt x="56" y="265" on="0"/>
        <pt x="78" y="270" on="0"/>
        <pt x="89" y="270" on="1"/>
        <pt x="369" y="270" on="1"/>
        <pt x="369" y="550" on="1"/>
        <pt x="369" y="561" on="0"/>
        <pt x="374" y="583" on="0"/>
        <pt x="389" y="583" on="1"/>
        <pt x="404" y="583" on="0"/>
        <pt x="409" y="561" on="0"/>
        <pt x="409" y="550" on="1"/>
        <pt x="409" y="270" on="1"/>
        <pt x="688" y="270" on="1"/>
        <pt x="699" y="270" on="0"/>
        <pt x="721" y="265" on="0"/>
        <pt x="721" y="250" on="1"/>
        <pt x="721" y="235" on="0"/>
        <pt x="699" y="230" on="0"/>
        <pt x="688" y="230" on="1"/>
        <pt x="409" y="230" on="1"/>
      </contour>
    </TTGlyph>
    <TTGlyph name="q" xMin="36" yMin="-194" xMax="434" yMax="455">
      <contour>
        <pt x="434" y="-194" on="1"/>
        <pt x="356" y="-194" on="1"/>
        <pt x="356" y="50" on="1"/>
        <pt x="324" y="21" on="0"/>
        <pt x="247" y="-11" on="0"/>
        <pt x="205" y="-11" on="1"/>
        <pt x="169" y="-11" on="0"/>
        <pt x="107" y="26" on="0"/>
        <pt x="62" y="89" on="0"/>
        <pt x="36" y="173" on="0"/>
        <pt x="36" y="221" on="1"/>
        <pt x="36" y="272" on="0"/>
        <pt x="66" y="357" on="0"/>
        <pt x="117" y="420" on="0"/>
        <pt x="185" y="455" on="0"/>
        <pt x="222" y="455" on="1"/>
        <pt x="251" y="455" on="0"/>
        <pt x="299" y="437" on="0"/>
        <pt x="333" y="414" on="0"/>
        <pt x="355" y="392" on="0"/>
        <pt x="359" y="387" on="1"/>
        <pt x="359" y="455" on="1"/>
        <pt x="434" y="455" on="1"/>
      </contour>
      <contour>
        <pt x="359" y="280" on="1"/>
        <pt x="359" y="295" on="0"/>
        <pt x="347" y="333" on="0"/>
        <pt x="323" y="368" on="0"/>
        <pt x="285" y="391" on="0"/>
        <pt x="259" y="391" on="1"/>
        <pt x="232" y="391" on="0"/>
        <pt x="179" y="367" on="0"/>
        <pt x="139" y="322" on="0"/>
        <pt x="114" y="259" on="0"/>
        <pt x="114" y="221" on="1"/>
        <pt x="114" y="186" on="0"/>
        <pt x="135" y="124" on="0"/>
        <pt x="172" y="77" on="0"/>
        <pt x="222" y="50" on="0"/>
        <pt x="250" y="50" on="1"/>
        <pt x="277" y="50" on="0"/>
        <pt x="329" y="77" on="0"/>
        <pt x="349" y="107" on="1"/>
        <pt x="357" y="117" on="0"/>
        <pt x="359" y="126" on="0"/>
        <pt x="359" y="140" on="1"/>
      </contour>
    </TTGlyph>
    <TTGlyph name="question" xMin="56" yMin="0" xMax="415" yMax="705">
      <contour>
        <pt x="255" y="175" on="1"/>
        <pt x="188" y="175" on="1"/>
        <pt x="188" y="207" on="1"/>
        <pt x="188" y="223" on="0"/>
        <pt x="192" y="284" on="0"/>
        <pt x="213" y="358" on="0"/>
        <pt x="259" y="439" on="0"/>
        <pt x="302" y="475" on="1"/>
        <pt x="312" y="484" on="0"/>
        <pt x="337" y="517" on="0"/>
        <pt x="337" y="551" on="1"/>
        <pt x="337" y="583" on="0"/>
        <pt x="315" y="620" on="0"/>
        <pt x="281" y="639" on="0"/>
        <pt x="242" y="644" on="0"/>
        <pt x="224" y="644" on="1"/>
        <pt x="197" y="644" on="0"/>
        <pt x="152" y="633" on="0"/>
        <pt x="115" y="617" on="0"/>
        <pt x="88" y="597" on="0"/>
        <pt x="79" y="589" on="1"/>
        <pt x="56" y="652" on="1"/>
        <pt x="134" y="705" on="0"/>
        <pt x="224" y="705" on="1"/>
        <pt x="281" y="705" on="0"/>
        <pt x="354" y="676" on="0"/>
        <pt x="398" y="630" on="0"/>
        <pt x="415" y="576" on="0"/>
        <pt x="415" y="550" on="1"/>
        <pt x="415" y="523" on="0"/>
        <pt x="403" y="483" on="0"/>
        <pt x="385" y="455" on="0"/>
        <pt x="365" y="436" on="0"/>
        <pt x="358" y="430" on="1"/>
        <pt x="306" y="386" on="0"/>
        <pt x="255" y="281" on="0"/>
        <pt x="255" y="229" on="1"/>
      </contour>
      <contour>
        <pt x="180" y="83" on="1"/>
        <pt x="263" y="83" on="1"/>
        <pt x="263" y="0" on="1"/>
        <pt x="180" y="0" on="1"/>
      </contour>
    </TTGlyph>
    <TTGlyph name="questiondown" xMin="56" yMin="-205" xMax="415" yMax="500">
      <contour>
        <pt x="263" y="417" on="1"/>
        <pt x="180" y="417" on="1"/>
        <pt x="180" y="500" on="1"/>
        <pt x="263" y="500" on="1"/>
      </contour>
      <contour>
        <pt x="415" y="-152" on="1"/>
        <pt x="366" y="-181" on="0"/>
        <pt x="268" y="-205" on="0"/>
        <pt x="223" y="-205" on="1"/>
        <pt x="177" y="-205" on="0"/>
        <pt x="113" y="-179" on="0"/>
        <pt x="73" y="-136" on="0"/>
        <pt x="56" y="-80" on="0"/>
        <pt x="56" y="-50" on="1"/>
        <pt x="56" y="-23" on="0"/>
        <pt x="66" y="16" on="0"/>
        <pt x="81" y="44" on="0"/>
        <pt x="98" y="63" on="0"/>
        <pt x="105" y="70" on="1"/>
        <pt x="131" y="96" on="0"/>
        <pt x="163" y="151" on="0"/>
        <pt x="181" y="203" on="0"/>
        <pt x="188" y="250" on="0"/>
        <pt x="188" y="268" on="1"/>
        <pt x="188" y="325" on="1"/>
        <pt x="255" y="325" on="1"/>
        <pt x="255" y="293" on="1"/>
        <pt x="255" y="220" on="0"/>
        <pt x="213" y="81" on="0"/>
        <pt x="164" y="27" on="1"/>
        <pt x="153" y="15" on="0"/>
        <pt x="134" y="-17" on="0"/>
        <pt x="134" y="-52" on="1"/>
        <pt x="134" y="-102" on="0"/>
        <pt x="176" y="-144" on="0"/>
        <pt x="224" y="-144" on="1"/>
        <pt x="238" y="-144" on="0"/>
        <pt x="275" y="-140" on="0"/>
        <pt x="319" y="-128" on="0"/>
        <pt x="368" y="-107" on="0"/>
        <pt x="392" y="-89" on="1"/>
      </contour>
    </TTGlyph>
    <TTGlyph name="quotedblleft" xMin="189" yMin="486" xMax="466" yMax="694">
      <contour>
        <pt x="247" y="569" on="1"/>
        <pt x="272" y="569" on="1"/>
        <pt x="272" y="486" on="1"/>
        <pt x="189" y="486" on="1"/>
        <pt x="189" y="568" on="1"/>
        <pt x="231" y="694" on="1"/>
        <pt x="272" y="694" on="1"/>
      </contour>
      <contour>
        <pt x="441" y="569" on="1"/>
        <pt x="466" y="569" on="1"/>
        <pt x="466" y="486" on="1"/>
        <pt x="383" y="486" on="1"/>
        <pt x="383" y="568" on="1"/>
        <pt x="425" y="694" on="1"/>
        <pt x="466" y="694" on="1"/>
      </contour>
    </TTGlyph>
    <TTGlyph name="quotedblright" xMin="33" yMin="486" xMax="310" yMax="694">
      <contour>
        <pt x="74" y="486" on="1"/>
        <pt x="33" y="486" on="1"/>
        <pt x="58" y="611" on="1"/>
        <pt x="33" y="611" on="1"/>
        <pt x="33" y="694" on="1"/>
        <pt x="116" y="694" on="1"/>
        <pt x="116" y="612" on="1"/>
      </contour>
      <contour>
        <pt x="268" y="486" on="1"/>
        <pt x="227" y="486" on="1"/>
        <pt x="252" y="611" on="1"/>
        <pt x="227" y="611" on="1"/>
        <pt x="227" y="694" on="1"/>
        <pt x="310" y="694" on="1"/>
        <pt x="310" y="612" on="1"/>
      </contour>
    </TTGlyph>
    <TTGlyph name="quoteleft" xMin="97" yMin="486" xMax="180" yMax="694">
      <contour>
        <pt x="155" y="569" on="1"/>
        <pt x="180" y="569" on="1"/>
        <pt x="180" y="486" on="1"/>
        <pt x="97" y="486" on="1"/>
        <pt x="97" y="568" on="1"/>
        <pt x="139" y="694" on="1"/>
        <pt x="180" y="694" on="1"/>
      </contour>
    </TTGlyph>
    <TTGlyph name="quoteright" xMin="97" yMin="486" xMax="180" yMax="694">
      <contour>
        <pt x="138" y="486" on="1"/>
        <pt x="97" y="486" on="1"/>
        <pt x="122" y="611" on="1"/>
        <pt x="97" y="611" on="1"/>
        <pt x="97" y="694" on="1"/>
        <pt x="180" y="694" on="1"/>
        <pt x="180" y="612" on="1"/>
      </contour>
    </TTGlyph>
    <TTGlyph name="r" xMin="82" yMin="0" xMax="327" yMax="455">
      <contour>
        <pt x="157" y="0" on="1"/>
        <pt x="82" y="0" on="1"/>
        <pt x="82" y="450" on="1"/>
        <pt x="152" y="450" on="1"/>
        <pt x="152" y="359" on="1"/>
        <pt x="164" y="376" on="0"/>
        <pt x="196" y="410" on="0"/>
        <pt x="239" y="437" on="0"/>
        <pt x="294" y="455" on="0"/>
        <pt x="327" y="455" on="1"/>
        <pt x="327" y="388" on="1"/>
        <pt x="290" y="387" on="0"/>
        <pt x="228" y="361" on="0"/>
        <pt x="183" y="315" on="0"/>
        <pt x="157" y="252" on="0"/>
        <pt x="157" y="214" on="1"/>
      </contour>
    </TTGlyph>
    <TTGlyph name="ring" xMin="222" yMin="527" xMax="444" yMax="694">
      <contour>
        <pt x="444" y="610" on="1"/>
        <pt x="444" y="594" on="0"/>
        <pt x="428" y="564" on="0"/>
        <pt x="398" y="541" on="0"/>
        <pt x="357" y="527" on="0"/>
        <pt x="333" y="527" on="1"/>
        <pt x="310" y="527" on="0"/>
        <pt x="269" y="540" on="0"/>
        <pt x="239" y="563" on="0"/>
        <pt x="222" y="593" on="0"/>
        <pt x="222" y="611" on="1"/>
        <pt x="222" y="627" on="0"/>
        <pt x="238" y="657" on="0"/>
        <pt x="268" y="680" on="0"/>
        <pt x="309" y="694" on="0"/>
        <pt x="333" y="694" on="1"/>
        <pt x="356" y="694" on="0"/>
        <pt x="397" y="681" on="0"/>
        <pt x="427" y="658" on="0"/>
        <pt x="444" y="628" on="0"/>
      </contour>
      <contour>
        <pt x="333" y="569" on="1"/>
        <pt x="337" y="569" on="0"/>
        <pt x="355" y="570" on="0"/>
        <pt x="374" y="578" on="0"/>
        <pt x="388" y="595" on="0"/>
        <pt x="388" y="611" on="1"/>
        <pt x="388" y="626" on="0"/>
        <pt x="373" y="643" on="0"/>
        <pt x="354" y="651" on="0"/>
        <pt x="336" y="652" on="0"/>
        <pt x="333" y="652" on="1"/>
        <pt x="329" y="652" on="0"/>
        <pt x="311" y="651" on="0"/>
        <pt x="292" y="643" on="0"/>
        <pt x="278" y="626" on="0"/>
        <pt x="278" y="610" on="1"/>
        <pt x="278" y="595" on="0"/>
        <pt x="293" y="578" on="0"/>
        <pt x="312" y="570" on="0"/>
        <pt x="330" y="569" on="0"/>
      </contour>
    </TTGlyph>
    <TTGlyph name="s" xMin="28" yMin="-11" xMax="360" yMax="461">
      <contour>
        <pt x="331" y="364" on="1"/>
        <pt x="288" y="390" on="0"/>
        <pt x="213" y="402" on="0"/>
        <pt x="189" y="402" on="1"/>
        <pt x="184" y="402" on="0"/>
        <pt x="156" y="400" on="0"/>
        <pt x="127" y="388" on="0"/>
        <pt x="104" y="363" on="0"/>
        <pt x="104" y="340" on="1"/>
        <pt x="104" y="322" on="0"/>
        <pt x="120" y="298" on="0"/>
        <pt x="148" y="283" on="0"/>
        <pt x="184" y="274" on="0"/>
        <pt x="205" y="270" on="1"/>
        <pt x="224" y="267" on="0"/>
        <pt x="254" y="260" on="0"/>
        <pt x="281" y="250" on="0"/>
        <pt x="306" y="233" on="0"/>
        <pt x="321" y="220" on="1"/>
        <pt x="322" y="219" on="0"/>
        <pt x="334" y="205" on="0"/>
        <pt x="348" y="182" on="0"/>
        <pt x="360" y="149" on="0"/>
        <pt x="360" y="128" on="1"/>
        <pt x="360" y="91" on="0"/>
        <pt x="334" y="38" on="0"/>
        <pt x="289" y="5" on="0"/>
        <pt x="230" y="-11" on="0"/>
        <pt x="196" y="-11" on="1"/>
        <pt x="135" y="-11" on="0"/>
        <pt x="52" y="21" on="0"/>
        <pt x="28" y="33" on="1"/>
        <pt x="40" y="101" on="1"/>
        <pt x="47" y="97" on="0"/>
        <pt x="74" y="80" on="0"/>
        <pt x="114" y="64" on="0"/>
        <pt x="165" y="52" on="0"/>
        <pt x="195" y="52" on="1"/>
        <pt x="201" y="52" on="0"/>
        <pt x="231" y="54" on="0"/>
        <pt x="264" y="67" on="0"/>
        <pt x="289" y="95" on="0"/>
        <pt x="289" y="121" on="1"/>
        <pt x="289" y="141" on="0"/>
        <pt x="270" y="166" on="0"/>
        <pt x="241" y="182" on="0"/>
        <pt x="209" y="190" on="0"/>
        <pt x="195" y="193" on="1"/>
        <pt x="154" y="201" on="0"/>
        <pt x="110" y="214" on="0"/>
        <pt x="87" y="230" on="1"/>
        <pt x="68" y="244" on="0"/>
        <pt x="33" y="293" on="0"/>
        <pt x="33" y="330" on="1"/>
        <pt x="33" y="379" on="0"/>
        <pt x="78" y="432" on="0"/>
        <pt x="135" y="457" on="0"/>
        <pt x="190" y="461" on="0"/>
        <pt x="199" y="461" on="1"/>
        <pt x="237" y="461" on="0"/>
        <pt x="304" y="447" on="0"/>
        <pt x="343" y="429" on="1"/>
      </contour>
    </TTGlyph>
    <TTGlyph name="semicolon" xMin="97" yMin="-125" xMax="180" yMax="444">
      <contour>
        <pt x="180" y="361" on="1"/>
        <pt x="97" y="361" on="1"/>
        <pt x="97" y="444" on="1"/>
        <pt x="180" y="444" on="1"/>
      </contour>
      <contour>
        <pt x="122" y="0" on="1"/>
        <pt x="97" y="0" on="1"/>
        <pt x="97" y="83" on="1"/>
        <pt x="180" y="83" on="1"/>
        <pt x="180" y="1" on="1"/>
        <pt x="138" y="-125" on="1"/>
        <pt x="97" y="-125" on="1"/>
      </contour>
    </TTGlyph>
    <TTGlyph name="seven" xMin="42" yMin="-11" xMax="457" yMax="656">
      <contour>
        <pt x="42" y="585" on="1"/>
        <pt x="42" y="656" on="1"/>
        <pt x="457" y="656" on="1"/>
        <pt x="457" y="591" on="1"/>
        <pt x="428" y="558" on="0"/>
        <pt x="351" y="446" on="0"/>
        <pt x="283" y="293" on="0"/>
        <pt x="236" y="102" on="0"/>
        <pt x="236" y="-11" on="1"/>
        <pt x="152" y="-11" on="1"/>
        <pt x="152" y="165" on="0"/>
        <pt x="278" y="464" on="0"/>
        <pt x="389" y="586" on="1"/>
        <pt x="268" y="586" on="1"/>
        <pt x="259" y="586" on="0"/>
        <pt x="241" y="585" on="0"/>
        <pt x="232" y="585" on="1"/>
      </contour>
    </TTGlyph>
    <TTGlyph name="six" xMin="42" yMin="-22" xMax="457" yMax="678">
      <contour>
        <pt x="415" y="599" on="1"/>
        <pt x="389" y="610" on="0"/>
        <pt x="339" y="620" on="0"/>
        <pt x="310" y="620" on="1"/>
        <pt x="276" y="620" on="0"/>
        <pt x="213" y="590" on="0"/>
        <pt x="164" y="530" on="0"/>
        <pt x="131" y="439" on="0"/>
        <pt x="126" y="379" on="1"/>
        <pt x="149" y="407" on="0"/>
        <pt x="198" y="440" on="0"/>
        <pt x="244" y="457" on="0"/>
        <pt x="283" y="462" on="0"/>
        <pt x="295" y="462" on="1"/>
        <pt x="331" y="462" on="0"/>
        <pt x="391" y="423" on="0"/>
        <pt x="433" y="357" on="0"/>
        <pt x="457" y="270" on="0"/>
        <pt x="457" y="222" on="1"/>
        <pt x="457" y="163" on="0"/>
        <pt x="427" y="84" on="0"/>
        <pt x="393" y="46" on="1"/>
        <pt x="364" y="12" on="0"/>
        <pt x="296" y="-22" on="0"/>
        <pt x="251" y="-22" on="1"/>
        <pt x="219" y="-22" on="0"/>
        <pt x="146" y="6" on="0"/>
        <pt x="83" y="82" on="0"/>
        <pt x="42" y="216" on="0"/>
        <pt x="42" y="322" on="1"/>
        <pt x="42" y="403" on="0"/>
        <pt x="86" y="534" on="0"/>
        <pt x="159" y="627" on="0"/>
        <pt x="256" y="678" on="0"/>
        <pt x="309" y="678" on="1"/>
        <pt x="320" y="678" on="0"/>
        <pt x="377" y="673" on="0"/>
        <pt x="415" y="658" on="1"/>
      </contour>
      <contour>
        <pt x="127" y="219" on="1"/>
        <pt x="128" y="207" on="0"/>
        <pt x="137" y="147" on="0"/>
        <pt x="163" y="86" on="0"/>
        <pt x="211" y="39" on="0"/>
        <pt x="251" y="39" on="1"/>
        <pt x="272" y="39" on="0"/>
        <pt x="304" y="51" on="0"/>
        <pt x="328" y="69" on="0"/>
        <pt x="345" y="91" on="0"/>
        <pt x="351" y="101" on="1"/>
        <pt x="369" y="132" on="0"/>
        <pt x="375" y="196" on="0"/>
        <pt x="375" y="222" on="1"/>
        <pt x="375" y="256" on="0"/>
        <pt x="368" y="311" on="0"/>
        <pt x="352" y="339" on="1"/>
        <pt x="337" y="367" on="0"/>
        <pt x="292" y="401" on="0"/>
        <pt x="256" y="401" on="1"/>
        <pt x="225" y="401" on="0"/>
        <pt x="177" y="374" on="0"/>
        <pt x="145" y="330" on="0"/>
        <pt x="128" y="275" on="0"/>
        <pt x="128" y="247" on="1"/>
        <pt x="127" y="238" on="0"/>
        <pt x="127" y="230" on="0"/>
      </contour>
    </TTGlyph>
    <TTGlyph name="slash" xMin="56" yMin="-250" xMax="443" yMax="750">
      <contour>
        <pt x="97" y="-230" on="1"/>
        <pt x="95" y="-238" on="0"/>
        <pt x="87" y="-250" on="0"/>
        <pt x="76" y="-250" on="1"/>
        <pt x="68" y="-250" on="0"/>
        <pt x="56" y="-238" on="0"/>
        <pt x="56" y="-230" on="1"/>
        <pt x="56" y="-228" on="0"/>
        <pt x="57" y="-222" on="0"/>
        <pt x="61" y="-212" on="1"/>
        <pt x="402" y="730" on="1"/>
        <pt x="404" y="738" on="0"/>
        <pt x="412" y="750" on="0"/>
        <pt x="423" y="750" on="1"/>
        <pt x="431" y="750" on="0"/>
        <pt x="443" y="738" on="0"/>
        <pt x="443" y="730" on="1"/>
        <pt x="443" y="728" on="0"/>
        <pt x="442" y="722" on="0"/>
        <pt x="438" y="712" on="1"/>
      </contour>
    </TTGlyph>
    <TTGlyph name="suppress" xMin="-7" yMin="266" xMax="245" yMax="398">
      <contour>
        <pt x="11" y="266" on="1"/>
        <pt x="-7" y="321" on="1"/>
        <pt x="227" y="398" on="1"/>
        <pt x="245" y="343" on="1"/>
      </contour>
    </TTGlyph>
    <TTGlyph name="t" xMin="19" yMin="-11" xMax="332" yMax="571">
      <contour>
        <pt x="175" y="136" on="1"/>
        <pt x="175" y="96" on="0"/>
        <pt x="198" y="53" on="0"/>
        <pt x="226" y="53" on="1"/>
        <pt x="275" y="53" on="0"/>
        <pt x="316" y="86" on="1"/>
        <pt x="332" y="27" on="1"/>
        <pt x="313" y="17" on="0"/>
        <pt x="239" y="-11" on="0"/>
        <pt x="186" y="-11" on="1"/>
        <pt x="160" y="-11" on="0"/>
        <pt x="128" y="13" on="0"/>
        <pt x="110" y="50" on="0"/>
        <pt x="103" y="97" on="0"/>
        <pt x="103" y="119" on="1"/>
        <pt x="103" y="386" on="1"/>
        <pt x="19" y="386" on="1"/>
        <pt x="19" y="444" on="1"/>
        <pt x="106" y="444" on="1"/>
        <pt x="106" y="571" on="1"/>
        <pt x="175" y="571" on="1"/>
        <pt x="175" y="444" on="1"/>
        <pt x="316" y="444" on="1"/>
        <pt x="316" y="386" on="1"/>
        <pt x="175" y="386" on="1"/>
      </contour>
    </TTGlyph>
    <TTGlyph name="three" xMin="42" yMin="-22" xMax="457" yMax="678">
      <contour>
        <pt x="56" y="568" on="1"/>
        <pt x="88" y="621" on="0"/>
        <pt x="190" y="678" on="0"/>
        <pt x="248" y="678" on="1"/>
        <pt x="285" y="678" on="0"/>
        <pt x="351" y="655" on="0"/>
        <pt x="401" y="614" on="0"/>
        <pt x="430" y="558" on="0"/>
        <pt x="430" y="526" on="1"/>
        <pt x="430" y="478" on="0"/>
        <pt x="376" y="385" on="0"/>
        <pt x="319" y="354" on="1"/>
        <pt x="345" y="346" on="0"/>
        <pt x="394" y="315" on="0"/>
        <pt x="433" y="271" on="0"/>
        <pt x="457" y="214" on="0"/>
        <pt x="457" y="180" on="1"/>
        <pt x="457" y="141" on="0"/>
        <pt x="426" y="68" on="0"/>
        <pt x="370" y="12" on="0"/>
        <pt x="293" y="-22" on="0"/>
        <pt x="247" y="-22" on="1"/>
        <pt x="232" y="-22" on="0"/>
        <pt x="185" y="-16" on="0"/>
        <pt x="129" y="5" on="0"/>
        <pt x="69" y="47" on="0"/>
        <pt x="42" y="82" on="1"/>
        <pt x="53" y="142" on="1"/>
        <pt x="70" y="117" on="0"/>
        <pt x="114" y="78" on="0"/>
        <pt x="165" y="52" on="0"/>
        <pt x="219" y="39" on="0"/>
        <pt x="245" y="39" on="1"/>
        <pt x="274" y="39" on="0"/>
        <pt x="320" y="61" on="0"/>
        <pt x="351" y="100" on="0"/>
        <pt x="368" y="152" on="0"/>
        <pt x="368" y="181" on="1"/>
        <pt x="368" y="200" on="0"/>
        <pt x="358" y="249" on="0"/>
        <pt x="329" y="293" on="0"/>
        <pt x="279" y="324" on="0"/>
        <pt x="238" y="324" on="1"/>
        <pt x="167" y="324" on="1"/>
        <pt x="167" y="385" on="1"/>
        <pt x="194" y="387" on="0"/>
        <pt x="223" y="390" on="0"/>
        <pt x="238" y="391" on="0"/>
        <pt x="244" y="392" on="0"/>
        <pt x="246" y="392" on="1"/>
        <pt x="269" y="397" on="0"/>
        <pt x="306" y="423" on="0"/>
        <pt x="333" y="459" on="0"/>
        <pt x="348" y="503" on="0"/>
        <pt x="348" y="526" on="1"/>
        <pt x="348" y="550" on="0"/>
        <pt x="331" y="585" on="0"/>
        <pt x="303" y="609" on="0"/>
        <pt x="267" y="620" on="0"/>
        <pt x="247" y="620" on="1"/>
        <pt x="201" y="620" on="0"/>
        <pt x="114" y="567" on="0"/>
        <pt x="92" y="514" on="1"/>
      </contour>
    </TTGlyph>
    <TTGlyph name="tilde" xMin="83" yMin="558" xMax="416" yMax="677">
      <contour>
        <pt x="416" y="677" on="1"/>
        <pt x="415" y="648" on="0"/>
        <pt x="398" y="603" on="0"/>
        <pt x="370" y="573" on="0"/>
        <pt x="336" y="558" on="0"/>
        <pt x="318" y="558" on="1"/>
        <pt x="299" y="558" on="0"/>
        <pt x="268" y="573" on="0"/>
        <pt x="254" y="583" on="1"/>
        <pt x="234" y="597" on="0"/>
        <pt x="200" y="616" on="0"/>
        <pt x="183" y="616" on="1"/>
        <pt x="163" y="616" on="0"/>
        <pt x="145" y="584" on="0"/>
        <pt x="144" y="558" on="1"/>
        <pt x="83" y="558" on="1"/>
        <pt x="84" y="587" on="0"/>
        <pt x="101" y="632" on="0"/>
        <pt x="129" y="662" on="0"/>
        <pt x="163" y="677" on="0"/>
        <pt x="181" y="677" on="1"/>
        <pt x="200" y="677" on="0"/>
        <pt x="231" y="662" on="0"/>
        <pt x="245" y="652" on="1"/>
        <pt x="265" y="638" on="0"/>
        <pt x="299" y="619" on="0"/>
        <pt x="316" y="619" on="1"/>
        <pt x="336" y="619" on="0"/>
        <pt x="354" y="651" on="0"/>
        <pt x="355" y="677" on="1"/>
      </contour>
    </TTGlyph>
    <TTGlyph name="two" xMin="42" yMin="0" xMax="449" yMax="678">
      <contour>
        <pt x="251" y="259" on="1"/>
        <pt x="273" y="282" on="0"/>
        <pt x="315" y="326" on="0"/>
        <pt x="347" y="375" on="0"/>
        <pt x="367" y="429" on="0"/>
        <pt x="367" y="461" on="1"/>
        <pt x="367" y="490" on="0"/>
        <pt x="348" y="545" on="0"/>
        <pt x="311" y="588" on="0"/>
        <pt x="257" y="614" on="0"/>
        <pt x="222" y="614" on="1"/>
        <pt x="188" y="614" on="0"/>
        <pt x="142" y="587" on="0"/>
        <pt x="110" y="544" on="0"/>
        <pt x="91" y="488" on="0"/>
        <pt x="83" y="459" on="1"/>
        <pt x="75" y="470" on="0"/>
        <pt x="63" y="486" on="0"/>
        <pt x="61" y="488" on="1"/>
        <pt x="59" y="490" on="0"/>
        <pt x="51" y="501" on="0"/>
        <pt x="42" y="514" on="1"/>
        <pt x="51" y="546" on="0"/>
        <pt x="82" y="606" on="0"/>
        <pt x="129" y="651" on="0"/>
        <pt x="193" y="678" on="0"/>
        <pt x="236" y="678" on="1"/>
        <pt x="286" y="678" on="0"/>
        <pt x="364" y="643" on="0"/>
        <pt x="420" y="584" on="0"/>
        <pt x="449" y="506" on="0"/>
        <pt x="449" y="463" on="1"/>
        <pt x="449" y="431" on="0"/>
        <pt x="431" y="379" on="0"/>
        <pt x="402" y="334" on="0"/>
        <pt x="367" y="297" on="0"/>
        <pt x="350" y="280" on="1"/>
        <pt x="343" y="273" on="0"/>
        <pt x="319" y="252" on="0"/>
        <pt x="292" y="230" on="0"/>
        <pt x="268" y="209" on="0"/>
        <pt x="261" y="202" on="1"/>
        <pt x="249" y="191" on="0"/>
        <pt x="212" y="155" on="0"/>
        <pt x="172" y="116" on="0"/>
        <pt x="134" y="81" on="0"/>
        <pt x="122" y="70" on="1"/>
        <pt x="231" y="70" on="1"/>
        <pt x="240" y="70" on="0"/>
        <pt x="258" y="71" on="0"/>
        <pt x="267" y="71" on="1"/>
        <pt x="449" y="71" on="1"/>
        <pt x="449" y="0" on="1"/>
        <pt x="50" y="0" on="1"/>
        <pt x="50" y="64" on="1"/>
        <pt x="174" y="188" on="1"/>
      </contour>
    </TTGlyph>
    <TTGlyph name="u" xMin="81" yMin="-11" xMax="435" yMax="444">
      <contour>
        <pt x="435" y="0" on="1"/>
        <pt x="360" y="0" on="1"/>
        <pt x="360" y="48" on="1"/>
        <pt x="323" y="16" on="0"/>
        <pt x="227" y="-11" on="0"/>
        <pt x="187" y="-11" on="1"/>
        <pt x="156" y="-11" on="0"/>
        <pt x="115" y="6" on="0"/>
        <pt x="91" y="38" on="0"/>
        <pt x="81" y="82" on="0"/>
        <pt x="81" y="109" on="1"/>
        <pt x="81" y="444" on="1"/>
        <pt x="159" y="444" on="1"/>
        <pt x="159" y="113" on="1"/>
        <pt x="159" y="97" on="0"/>
        <pt x="163" y="71" on="0"/>
        <pt x="179" y="53" on="0"/>
        <pt x="210" y="44" on="0"/>
        <pt x="237" y="44" on="1"/>
        <pt x="261" y="44" on="0"/>
        <pt x="305" y="57" on="0"/>
        <pt x="338" y="84" on="0"/>
        <pt x="357" y="126" on="0"/>
        <pt x="357" y="154" on="1"/>
        <pt x="357" y="444" on="1"/>
        <pt x="435" y="444" on="1"/>
      </contour>
    </TTGlyph>
    <TTGlyph name="uni00AD" xMin="11" yMin="193" xMax="276" yMax="251">
      <contour>
        <pt x="11" y="193" on="1"/>
        <pt x="11" y="251" on="1"/>
        <pt x="276" y="251" on="1"/>
        <pt x="276" y="193" on="1"/>
      </contour>
    </TTGlyph>
    <TTGlyph name="uni0237" xMin="-61" yMin="-205" xMax="184" yMax="444">
      <contour>
        <pt x="184" y="-59" on="1"/>
        <pt x="184" y="-94" on="0"/>
        <pt x="163" y="-149" on="0"/>
        <pt x="128" y="-186" on="0"/>
        <pt x="83" y="-205" on="0"/>
        <pt x="59" y="-205" on="1"/>
        <pt x="39" y="-205" on="0"/>
        <pt x="-25" y="-192" on="0"/>
        <pt x="-61" y="-171" on="1"/>
        <pt x="-40" y="-110" on="1"/>
        <pt x="-8" y="-141" on="0"/>
        <pt x="34" y="-141" on="1"/>
        <pt x="41" y="-141" on="0"/>
        <pt x="66" y="-137" on="0"/>
        <pt x="91" y="-123" on="0"/>
        <pt x="109" y="-94" on="0"/>
        <pt x="109" y="-69" on="1"/>
        <pt x="109" y="444" on="1"/>
        <pt x="184" y="444" on="1"/>
      </contour>
    </TTGlyph>
    <TTGlyph name="uni0394" xMin="42" yMin="0" xMax="790" yMax="694">
      <contour>
        <pt x="790" y="0" on="1"/>
        <pt x="42" y="0" on="1"/>
        <pt x="371" y="694" on="1"/>
        <pt x="461" y="694" on="1"/>
      </contour>
      <contour>
        <pt x="158" y="83" on="1"/>
        <pt x="652" y="83" on="1"/>
        <pt x="470" y="474" on="1"/>
        <pt x="450" y="518" on="0"/>
        <pt x="426" y="572" on="0"/>
        <pt x="412" y="605" on="0"/>
        <pt x="407" y="620" on="0"/>
        <pt x="405" y="625" on="1"/>
        <pt x="396" y="595" on="0"/>
        <pt x="343" y="479" on="0"/>
        <pt x="301" y="388" on="1"/>
      </contour>
    </TTGlyph>
    <TTGlyph name="uni03A9" xMin="44" yMin="0" xMax="677" yMax="716">
      <contour>
        <pt x="677" y="0" on="1"/>
        <pt x="432" y="0" on="1"/>
        <pt x="432" y="30" on="0"/>
        <pt x="443" y="85" on="0"/>
        <pt x="461" y="139" on="0"/>
        <pt x="487" y="196" on="0"/>
        <pt x="503" y="228" on="1"/>
        <pt x="532" y="288" on="0"/>
        <pt x="576" y="402" on="0"/>
        <pt x="576" y="461" on="1"/>
        <pt x="576" y="503" on="0"/>
        <pt x="543" y="574" on="0"/>
        <pt x="485" y="626" on="0"/>
        <pt x="406" y="655" on="0"/>
        <pt x="360" y="655" on="1"/>
        <pt x="315" y="655" on="0"/>
        <pt x="237" y="626" on="0"/>
        <pt x="179" y="575" on="0"/>
        <pt x="145" y="504" on="0"/>
        <pt x="145" y="461" on="1"/>
        <pt x="145" y="398" on="0"/>
        <pt x="195" y="277" on="0"/>
        <pt x="225" y="216" on="1"/>
        <pt x="246" y="174" on="0"/>
        <pt x="271" y="110" on="0"/>
        <pt x="284" y="59" on="0"/>
        <pt x="289" y="19" on="0"/>
        <pt x="289" y="0" on="1"/>
        <pt x="44" y="0" on="1"/>
        <pt x="44" y="71" on="1"/>
        <pt x="129" y="71" on="1"/>
        <pt x="138" y="71" on="0"/>
        <pt x="156" y="70" on="0"/>
        <pt x="165" y="70" on="1"/>
        <pt x="218" y="70" on="1"/>
        <pt x="210" y="104" on="0"/>
        <pt x="177" y="171" on="0"/>
        <pt x="149" y="219" on="1"/>
        <pt x="110" y="285" on="0"/>
        <pt x="56" y="399" on="0"/>
        <pt x="56" y="462" on="1"/>
        <pt x="56" y="514" on="0"/>
        <pt x="103" y="606" on="0"/>
        <pt x="185" y="675" on="0"/>
        <pt x="296" y="716" on="0"/>
        <pt x="361" y="716" on="1"/>
        <pt x="424" y="716" on="0"/>
        <pt x="535" y="676" on="0"/>
        <pt x="618" y="607" on="0"/>
        <pt x="665" y="515" on="0"/>
        <pt x="665" y="462" on="1"/>
        <pt x="665" y="431" on="0"/>
        <pt x="650" y="371" on="0"/>
        <pt x="626" y="315" on="0"/>
        <pt x="596" y="261" on="0"/>
        <pt x="581" y="235" on="1"/>
        <pt x="554" y="189" on="0"/>
        <pt x="514" y="112" on="0"/>
        <pt x="503" y="70" on="1"/>
        <pt x="556" y="70" on="1"/>
        <pt x="565" y="70" on="0"/>
        <pt x="583" y="71" on="0"/>
        <pt x="592" y="71" on="1"/>
        <pt x="677" y="71" on="1"/>
      </contour>
    </TTGlyph>
    <TTGlyph name="v" xMin="14" yMin="0" xMax="446" yMax="444">
      <contour>
        <pt x="274" y="0" on="1"/>
        <pt x="186" y="0" on="1"/>
        <pt x="14" y="444" on="1"/>
        <pt x="92" y="444" on="1"/>
        <pt x="189" y="185" on="1"/>
        <pt x="193" y="175" on="0"/>
        <pt x="205" y="141" on="0"/>
        <pt x="218" y="104" on="0"/>
        <pt x="229" y="67" on="0"/>
        <pt x="231" y="53" on="1"/>
        <pt x="232" y="53" on="1"/>
        <pt x="235" y="71" on="0"/>
        <pt x="249" y="117" on="0"/>
        <pt x="266" y="166" on="0"/>
        <pt x="284" y="215" on="0"/>
        <pt x="292" y="236" on="1"/>
        <pt x="371" y="444" on="1"/>
        <pt x="446" y="444" on="1"/>
      </contour>
    </TTGlyph>
    <TTGlyph name="w" xMin="14" yMin="0" xMax="668" yMax="444">
      <contour>
        <pt x="531" y="0" on="1"/>
        <pt x="443" y="0" on="1"/>
        <pt x="370" y="248" on="1"/>
        <pt x="365" y="264" on="0"/>
        <pt x="354" y="304" on="0"/>
        <pt x="345" y="343" on="0"/>
        <pt x="339" y="378" on="0"/>
        <pt x="338" y="388" on="1"/>
        <pt x="337" y="388" on="1"/>
        <pt x="336" y="374" on="0"/>
        <pt x="325" y="327" on="0"/>
        <pt x="312" y="274" on="0"/>
        <pt x="297" y="223" on="0"/>
        <pt x="292" y="206" on="1"/>
        <pt x="284" y="177" on="0"/>
        <pt x="264" y="110" on="0"/>
        <pt x="246" y="50" on="0"/>
        <pt x="232" y="6" on="0"/>
        <pt x="230" y="0" on="1"/>
        <pt x="151" y="0" on="1"/>
        <pt x="14" y="444" on="1"/>
        <pt x="90" y="444" on="1"/>
        <pt x="142" y="271" on="1"/>
        <pt x="148" y="250" on="0"/>
        <pt x="165" y="191" on="0"/>
        <pt x="181" y="130" on="0"/>
        <pt x="194" y="73" on="0"/>
        <pt x="196" y="55" on="1"/>
        <pt x="197" y="55" on="1"/>
        <pt x="199" y="74" on="0"/>
        <pt x="211" y="132" on="0"/>
        <pt x="227" y="191" on="0"/>
        <pt x="242" y="243" on="0"/>
        <pt x="246" y="256" on="1"/>
        <pt x="303" y="444" on="1"/>
        <pt x="373" y="444" on="1"/>
        <pt x="438" y="231" on="1"/>
        <pt x="444" y="210" on="0"/>
        <pt x="459" y="158" on="0"/>
        <pt x="473" y="108" on="0"/>
        <pt x="483" y="66" on="0"/>
        <pt x="484" y="54" on="1"/>
        <pt x="485" y="54" on="1"/>
        <pt x="487" y="70" on="0"/>
        <pt x="499" y="120" on="0"/>
        <pt x="513" y="172" on="0"/>
        <pt x="527" y="219" on="0"/>
        <pt x="531" y="232" on="1"/>
        <pt x="595" y="444" on="1"/>
        <pt x="668" y="444" on="1"/>
      </contour>
    </TTGlyph>
    <TTGlyph name="x" xMin="0" yMin="0" xMax="460" yMax="444">
      <contour>
        <pt x="460" y="0" on="1"/>
        <pt x="377" y="0" on="1"/>
        <pt x="227" y="188" on="1"/>
        <pt x="82" y="0" on="1"/>
        <pt x="0" y="0" on="1"/>
        <pt x="194" y="229" on="1"/>
        <pt x="6" y="444" on="1"/>
        <pt x="89" y="444" on="1"/>
        <pt x="227" y="279" on="1"/>
        <pt x="361" y="444" on="1"/>
        <pt x="443" y="444" on="1"/>
        <pt x="260" y="229" on="1"/>
      </contour>
    </TTGlyph>
    <TTGlyph name="y" xMin="14" yMin="-205" xMax="446" yMax="444">
      <contour>
        <pt x="228" y="-91" on="1"/>
        <pt x="213" y="-129" on="0"/>
        <pt x="183" y="-174" on="0"/>
        <pt x="155" y="-198" on="0"/>
        <pt x="128" y="-205" on="0"/>
        <pt x="115" y="-205" on="1"/>
        <pt x="98" y="-205" on="0"/>
        <pt x="60" y="-201" on="0"/>
        <pt x="43" y="-197" on="1"/>
        <pt x="37" y="-132" on="1"/>
        <pt x="60" y="-141" on="0"/>
        <pt x="103" y="-148" on="0"/>
        <pt x="115" y="-148" on="1"/>
        <pt x="120" y="-148" on="0"/>
        <pt x="132" y="-146" on="0"/>
        <pt x="146" y="-135" on="0"/>
        <pt x="162" y="-112" on="0"/>
        <pt x="172" y="-90" on="1"/>
        <pt x="174" y="-87" on="0"/>
        <pt x="182" y="-66" on="0"/>
        <pt x="192" y="-40" on="0"/>
        <pt x="204" y="-12" on="0"/>
        <pt x="208" y="0" on="1"/>
        <pt x="14" y="444" on="1"/>
        <pt x="93" y="444" on="1"/>
        <pt x="147" y="319" on="1"/>
        <pt x="148" y="317" on="0"/>
        <pt x="161" y="285" on="0"/>
        <pt x="180" y="238" on="0"/>
        <pt x="202" y="181" on="0"/>
        <pt x="222" y="124" on="0"/>
        <pt x="235" y="74" on="0"/>
        <pt x="237" y="57" on="1"/>
        <pt x="238" y="57" on="1"/>
        <pt x="238" y="63" on="0"/>
        <pt x="240" y="80" on="0"/>
        <pt x="248" y="113" on="0"/>
        <pt x="264" y="166" on="0"/>
        <pt x="294" y="249" on="0"/>
        <pt x="339" y="365" on="0"/>
        <pt x="371" y="444" on="1"/>
        <pt x="446" y="444" on="1"/>
      </contour>
    </TTGlyph>
    <TTGlyph name="z" xMin="28" yMin="0" xMax="402" yMax="444">
      <contour>
        <pt x="134" y="61" on="1"/>
        <pt x="219" y="61" on="1"/>
        <pt x="228" y="61" on="0"/>
        <pt x="246" y="62" on="0"/>
        <pt x="255" y="62" on="1"/>
        <pt x="402" y="62" on="1"/>
        <pt x="402" y="0" on="1"/>
        <pt x="28" y="0" on="1"/>
        <pt x="28" y="41" on="1"/>
        <pt x="295" y="386" on="1"/>
        <pt x="217" y="386" on="1"/>
        <pt x="208" y="386" on="0"/>
        <pt x="190" y="385" on="0"/>
        <pt x="181" y="385" on="1"/>
        <pt x="42" y="385" on="1"/>
        <pt x="42" y="444" on="1"/>
        <pt x="400" y="444" on="1"/>
        <pt x="400" y="405" on="1"/>
      </contour>
    </TTGlyph>
    <TTGlyph name="zero" xMin="42" yMin="-22" xMax="457" yMax="678">
      <contour>
        <pt x="457" y="326" on="1"/>
        <pt x="457" y="286" on="0"/>
        <pt x="453" y="220" on="0"/>
        <pt x="444" y="163" on="0"/>
        <pt x="428" y="112" on="0"/>
        <pt x="417" y="88" on="1"/>
        <pt x="393" y="36" on="0"/>
        <pt x="304" y="-22" on="0"/>
        <pt x="249" y="-22" on="1"/>
        <pt x="228" y="-22" on="0"/>
        <pt x="179" y="-11" on="0"/>
        <pt x="133" y="18" on="0"/>
        <pt x="91" y="65" on="0"/>
        <pt x="76" y="101" on="1"/>
        <pt x="53" y="156" on="0"/>
        <pt x="42" y="266" on="0"/>
        <pt x="42" y="326" on="1"/>
        <pt x="42" y="386" on="0"/>
        <pt x="55" y="507" on="0"/>
        <pt x="80" y="562" on="1"/>
        <pt x="95" y="595" on="0"/>
        <pt x="136" y="640" on="0"/>
        <pt x="181" y="667" on="0"/>
        <pt x="228" y="678" on="0"/>
        <pt x="250" y="678" on="1"/>
        <pt x="269" y="678" on="0"/>
        <pt x="313" y="668" on="0"/>
        <pt x="356" y="645" on="0"/>
        <pt x="396" y="607" on="0"/>
        <pt x="411" y="579" on="1"/>
        <pt x="427" y="549" on="0"/>
        <pt x="445" y="484" on="0"/>
        <pt x="454" y="419" on="0"/>
        <pt x="457" y="356" on="0"/>
      </contour>
      <contour>
        <pt x="250" y="39" on="1"/>
        <pt x="283" y="39" on="0"/>
        <pt x="327" y="71" on="0"/>
        <pt x="356" y="122" on="0"/>
        <pt x="371" y="187" on="0"/>
        <pt x="378" y="254" on="0"/>
        <pt x="379" y="316" on="0"/>
        <pt x="379" y="338" on="1"/>
        <pt x="379" y="385" on="0"/>
        <pt x="374" y="481" on="0"/>
        <pt x="360" y="523" on="1"/>
        <pt x="357" y="530" on="0"/>
        <pt x="344" y="561" on="0"/>
        <pt x="318" y="593" on="0"/>
        <pt x="278" y="617" on="0"/>
        <pt x="249" y="617" on="1"/>
        <pt x="219" y="617" on="0"/>
        <pt x="178" y="591" on="0"/>
        <pt x="152" y="556" on="0"/>
        <pt x="139" y="523" on="0"/>
        <pt x="137" y="516" on="1"/>
        <pt x="124" y="474" on="0"/>
        <pt x="120" y="386" on="0"/>
        <pt x="120" y="338" on="1"/>
        <pt x="120" y="279" on="0"/>
        <pt x="125" y="192" on="0"/>
        <pt x="137" y="149" on="1"/>
        <pt x="152" y="95" on="0"/>
        <pt x="211" y="39" on="0"/>
      </contour>
    </TTGlyph>
</ttFont>
